# Blender 5.1.0
# www.blender.org
o Glass
v 0.000000 -0.253477 0.199864
v 0.000000 -0.253477 0.199864
v 0.000000 -0.253477 0.199864
v 0.000000 -0.226868 0.151901
v 0.000000 -0.226868 0.151901
v 0.000000 -0.226868 0.151901
v -0.173087 -0.253477 0.099932
v -0.173087 -0.253477 0.099932
v -0.173087 -0.253477 0.099932
v -0.131550 -0.226868 0.075951
v -0.131550 -0.226868 0.075951
v -0.131550 -0.226868 0.075951
v -0.173087 -0.253477 -0.099932
v -0.173087 -0.253477 -0.099932
v -0.173087 -0.253477 -0.099932
v -0.131550 -0.226868 -0.075951
v -0.131550 -0.226868 -0.075951
v -0.131550 -0.226868 -0.075951
v 0.000000 -0.253477 -0.199864
v 0.000000 -0.253477 -0.199864
v 0.000000 -0.253477 -0.199864
v 0.000000 -0.226868 -0.151901
v 0.000000 -0.226868 -0.151901
v 0.000000 -0.226868 -0.151901
v 0.173088 -0.253477 -0.099932
v 0.173088 -0.253477 -0.099932
v 0.173088 -0.253477 -0.099932
v 0.131551 -0.226868 -0.075951
v 0.131551 -0.226868 -0.075951
v 0.131551 -0.226868 -0.075951
v 0.173088 -0.253477 0.099932
v 0.173088 -0.253477 0.099932
v 0.173088 -0.253477 0.099932
v 0.131551 -0.226868 0.075951
v 0.131551 -0.226868 0.075951
v 0.131551 -0.226868 0.075951
v -0.222829 0.416540 0.128650
v -0.222829 0.416540 0.128650
v -0.222829 0.416540 0.128650
v 0.000000 0.416540 0.257300
v 0.000000 0.416540 0.257300
v 0.000000 0.416540 0.257300
v -0.222829 0.416540 -0.128650
v -0.222829 0.416540 -0.128650
v -0.222829 0.416540 -0.128650
v 0.000000 0.416540 -0.257300
v 0.000000 0.416540 -0.257300
v 0.000000 0.416540 -0.257300
v 0.222829 0.416540 -0.128650
v 0.222829 0.416540 -0.128650
v 0.222829 0.416540 -0.128650
v 0.222829 0.416540 0.128650
v 0.222829 0.416540 0.128650
v 0.222829 0.416540 0.128650
v -0.180929 0.416540 0.104459
v -0.180929 0.416540 0.104459
v -0.180929 0.416540 0.104459
v 0.000000 0.416540 0.208919
v 0.000000 0.416540 0.208919
v 0.000000 0.416540 0.208919
v -0.180929 0.416540 -0.104459
v -0.180929 0.416540 -0.104459
v -0.180929 0.416540 -0.104459
v 0.000000 0.416540 -0.208919
v 0.000000 0.416540 -0.208919
v 0.000000 0.416540 -0.208919
v 0.180929 0.416540 -0.104459
v 0.180929 0.416540 -0.104459
v 0.180929 0.416540 -0.104459
v 0.180929 0.416540 0.104459
v 0.180929 0.416540 0.104459
v 0.180929 0.416540 0.104459
vn -0.4986 -0.0740 0.8636
vn -0.9973 -0.0740 -0.0000
vn -0.4986 -0.0740 -0.8636
vn 0.4986 -0.0740 -0.8636
vn -0.0000 1.0000 -0.0000
vn 0.9973 -0.0740 -0.0000
vn 0.4986 -0.0740 0.8636
vn -0.0000 -1.0000 -0.0000
vn 0.4985 0.0765 -0.8635
vn 0.9971 0.0765 -0.0000
vn 0.4985 0.0765 0.8635
vn -0.4985 0.0765 0.8635
vn -0.9971 0.0765 -0.0000
vn -0.4985 0.0765 -0.8635
vt -0.306331 -0.403854
vt -0.983466 -0.403854
vt -0.986998 -1.110597
vt -0.309864 -1.110597
vt -0.986998 3.471945
vt -0.986998 1.716374
vt -0.441808 1.716374
vt -0.441808 3.471945
vt 0.962379 0.467210
vt 1.639513 0.467210
vt 1.635981 1.173953
vt 0.958846 1.173953
vt 1.635981 2.587438
vt 0.958846 2.587439
vt 0.128690 2.524181
vt -0.113546 2.749372
vt -0.355782 1.986208
vt -0.355782 0.997855
vt -0.113546 0.772664
vt 0.128690 1.535828
vt -0.309864 1.716374
vt -0.983466 1.009631
vt -0.306331 1.009631
vt -0.037060 0.772664
vt -0.355782 -0.231469
vt -0.355782 -1.531896
vt -0.037060 -1.828190
vt 0.281663 -0.824058
vt 0.281663 0.476369
vt 0.345330 -0.604076
vt 0.482793 0.389861
vt 0.450959 0.620038
vt 0.281663 -0.604076
vt 0.757717 0.389861
vt 0.789551 0.620038
vt 0.895180 -0.604076
vt 0.958847 -0.604076
vt 0.757717 -1.598013
vt 0.789551 -1.828190
vt 0.482793 -1.598013
vt 0.450959 -1.828190
vt 0.283452 1.738098
vt 0.281663 0.663828
vt 0.913838 0.620039
vt 0.915750 1.767728
vt 1.593774 -1.754771
vt 1.591089 -1.217630
vt 0.958847 -1.254340
vt 0.961715 -1.828190
vt 1.591089 -0.143350
vt 0.958847 -0.106640
vt 1.593774 0.393791
vt 0.961715 0.467210
vt 2.022290 -0.189009
vt 1.607933 -0.189009
vt 1.593774 -1.828190
vt 2.036449 -1.828190
vt 0.281663 2.275263
vt 0.913838 2.341605
s 0
f 2/1/1 41/2/1 38/3/1
f 2/1/1 38/3/1 8/4/1
f 9/5/2 39/6/2 45/7/2
f 9/5/2 45/7/2 15/8/2
f 14/9/3 44/10/3 47/11/3
f 14/9/3 47/11/3 20/12/3
f 21/12/4 48/11/4 50/13/4
f 21/12/4 50/13/4 26/14/4
f 16/15/5 10/16/5 4/17/5
f 4/17/5 34/18/5 28/19/5
f 28/19/5 22/20/5 16/15/5
f 4/17/5 28/19/5 16/15/5
f 27/21/6 51/6/6 54/22/6
f 27/21/6 54/22/6 33/23/6
f 32/23/7 53/22/7 42/2/7
f 32/23/7 42/2/7 3/1/7
f 31/24/8 1/25/8 7/26/8
f 7/26/8 13/27/8 19/28/8
f 19/28/8 25/29/8 31/24/8
f 7/26/8 19/28/8 31/24/8
f 58/30/5 55/31/5 37/32/5
f 58/30/5 37/32/5 40/33/5
f 55/31/5 61/34/5 43/35/5
f 55/31/5 43/35/5 37/32/5
f 61/34/5 64/36/5 46/37/5
f 61/34/5 46/37/5 43/35/5
f 64/36/5 67/38/5 49/39/5
f 64/36/5 49/39/5 46/37/5
f 67/38/5 70/40/5 52/41/5
f 67/38/5 52/41/5 49/39/5
f 70/40/5 58/30/5 40/33/5
f 70/40/5 40/33/5 52/41/5
f 6/42/9 11/43/9 56/44/9
f 6/42/9 56/44/9 60/45/9
f 12/46/10 18/47/10 63/48/10
f 12/46/10 63/48/10 57/49/10
f 17/47/11 24/50/11 66/51/11
f 17/47/11 66/51/11 62/48/11
f 23/50/12 29/52/12 68/53/12
f 23/50/12 68/53/12 65/51/12
f 30/54/13 36/55/13 72/56/13
f 30/54/13 72/56/13 69/57/13
f 35/58/14 5/42/14 59/45/14
f 35/58/14 59/45/14 71/59/14
