# Blender 5.1.0
# www.blender.org
o Plane.003
v 0.284589 -0.267267 -0.116331
v -0.229997 -0.197308 -0.081584
v 0.286721 0.286721 -0.000090
v -0.284481 0.283389 -0.000090
v 0.291352 0.001539 -0.030763
v -0.005636 -0.284398 -0.080344
v -0.285402 -0.002961 -0.019282
v -0.000008 0.288922 -0.000090
v -0.000662 -0.003378 -0.018582
v 0.294997 -0.140663 -0.063842
v -0.201674 -0.277237 -0.062098
v -0.286676 0.142848 -0.008390
v 0.143376 0.282336 -0.000090
v 0.280197 0.144114 -0.008714
v 0.199277 -0.281598 -0.096389
v -0.288519 -0.196006 -0.036119
v -0.142247 0.285615 -0.000090
v -0.000654 0.144183 -0.012861
v 0.001325 -0.141072 -0.041304
v 0.141103 -0.000187 -0.020580
v -0.141259 0.001286 -0.016789
v -0.143371 -0.141093 -0.035214
v 0.152843 -0.237493 -0.082017
v 0.143246 0.142949 -0.008295
v -0.142553 0.143964 -0.002845
v 0.146456 -0.282320 -0.092253
vn -0.1678 0.3286 -0.9294
vn -0.5727 -0.3800 -0.7263
vn -0.0027 0.0596 -0.9982
vn 0.0189 0.0390 -0.9991
vn -0.0463 0.1811 -0.9824
vn -0.0752 0.2507 -0.9652
vn 0.0078 0.0956 -0.9954
vn -0.0091 0.0639 -0.9979
vn -0.0327 0.1236 -0.9918
vn -0.0880 0.2663 -0.9599
vn -0.1883 0.1116 -0.9757
vn 0.0226 0.0627 -0.9978
vn 0.0076 0.0666 -0.9977
vn -0.0203 0.0890 -0.9958
vn -0.1898 0.0276 -0.9814
vn -0.0089 0.0467 -0.9989
vn -0.0125 0.0643 -0.9979
vn -0.0613 0.2122 -0.9753
vn -0.0390 0.1584 -0.9866
vn -0.0123 0.1005 -0.9949
vn -0.0396 0.1741 -0.9839
vn -0.0993 0.2660 -0.9588
vn -0.0037 0.0785 -0.9969
vn -0.0077 0.0616 -0.9981
vn -0.0866 0.2581 -0.9622
vt 0.741217 0.742172
vt 0.984989 0.740175
vt 0.981276 0.977195
vt 0.740698 0.980959
vt 0.257810 0.740347
vt 0.501205 0.742344
vt 0.500111 0.986554
vt 0.257590 0.975414
vt 0.241577 0.095433
vt 0.497858 0.259323
vt 0.501218 0.492658
vt 0.261433 0.498015
vt 0.742600 0.259410
vt 0.988105 0.166517
vt 0.982834 0.493349
vt 0.739027 0.500584
vt 0.509633 0.016136
vt 0.841215 0.028611
vt 0.889121 0.163408
vt 0.001135 0.259565
vt 0.007300 0.500733
vt 0.018739 0.044393
vt 0.163039 0.020553
vt 0.026167 0.742310
vt 0.015134 0.982830
vt 0.252381 0.019414
s 1
f 25/1/24 12/2/12 4/3/4 17/4/16
f 24/5/23 18/6/17 8/7/8 13/8/13
f 23/9/22 19/10/18 9/11/9 20/12/19
f 22/13/21 16/14/15 7/15/7 21/16/20
f 19/10/18 22/13/21 21/16/20 9/11/9
f 6/17/6 11/18/11 22/13/21 19/10/18
f 11/18/11 16/14/15 2/19/2
f 10/20/10 23/9/22 20/12/19 5/21/5
f 1/22/1 15/23/1 23/9/22 10/20/10
f 14/24/14 24/5/23 13/8/13 3/25/3
f 5/21/5 20/12/19 24/5/23 14/24/14
f 20/12/19 9/11/9 18/6/17 24/5/23
f 18/6/17 25/1/24 17/4/16 8/7/8
f 9/11/9 21/16/20 25/1/24 18/6/17
f 21/16/20 7/15/7 12/2/12 25/1/24
f 23/9/22 26/26/25 6/17/6 19/10/18
f 22/13/21 11/18/11 16/14/15
