# Blender 5.1.0
# www.blender.org
o Worm_Cannot
v 0.000000 0.000000 0.269246
v 0.000000 0.538493 0.269246
v -0.190386 0.000000 0.190386
v -0.190386 0.538493 0.190386
v -0.269246 0.000000 0.000000
v -0.269246 0.538493 0.000000
v -0.190386 0.000000 -0.190386
v -0.190386 0.538493 -0.190386
v 0.000000 0.000000 -0.269246
v 0.000000 0.538493 -0.269246
v 0.190386 0.000000 -0.190386
v 0.190386 0.538493 -0.190386
v 0.269246 0.000000 0.000000
v 0.269246 0.538493 0.000000
v 0.190386 0.000000 0.190386
v 0.190386 0.538493 0.190386
v 0.115194 0.000000 -0.115194
v -0.115194 0.000000 -0.115194
v 0.115194 0.000000 0.115194
v -0.115194 0.000000 0.115194
v 0.000000 0.000000 -0.115194
v 0.000000 0.000000 0.115194
v 0.115194 0.000000 0.000000
v -0.115194 0.000000 0.000000
v 0.000000 0.000000 0.000000
v 0.000000 0.538493 0.249664
v -0.176539 0.538493 0.176539
v -0.249664 0.538493 0.000000
v -0.176539 0.538493 -0.176539
v 0.000000 0.538493 -0.249664
v 0.176539 0.538493 -0.176539
v 0.249664 0.538493 0.000000
v 0.176539 0.538493 0.176539
v 0.000015 0.066428 0.249647
v -0.176525 0.066428 0.176522
v -0.249649 0.066428 -0.000018
v -0.176525 0.066428 -0.176557
v 0.000015 0.066428 -0.249682
v 0.176554 0.066428 -0.176557
v 0.249679 0.066428 -0.000018
v 0.176554 0.066428 0.176522
v 0.120256 0.066428 -0.120461
v -0.119910 0.066428 -0.120768
v 0.120012 0.066428 0.119980
v -0.118933 0.066428 0.119480
v 0.000202 0.066428 -0.119244
v -0.000153 0.066428 0.120843
v 0.120506 0.066428 -0.000018
v -0.120377 0.066428 0.000050
v 0.000015 0.066428 -0.000018
v 0.281121 0.689193 0.273680
v 0.360597 0.659509 0.217890
v 0.402789 0.824832 0.333449
v 0.297049 0.939048 0.468502
v 0.105318 0.935252 0.543937
v -0.060091 0.815666 0.515566
v -0.102283 0.650343 0.400008
v 0.056350 0.613143 0.301125
v 0.242091 0.862265 0.433621
v 0.017320 0.786216 0.461066
v 0.168735 0.651168 0.287403
v 0.129706 0.824241 0.447343
v 0.261606 0.775729 0.353651
v 0.036835 0.699680 0.381095
v 0.149220 0.737704 0.367373
vn -0.0000 -0.6302 0.7764
vn -0.1879 0.9409 0.2819
vn -0.5490 -0.6302 0.5490
vn -0.5490 0.6302 0.5490
vn -0.7764 -0.6302 -0.0000
vn -0.7764 0.6302 -0.0000
vn -0.5490 -0.6302 -0.5490
vn -0.5490 0.6302 -0.5490
vn -0.0000 -0.6302 -0.7764
vn -0.0000 0.6302 -0.7764
vn 0.5490 -0.6302 -0.5490
vn 0.5490 0.6302 -0.5490
vn 0.7764 -0.6302 -0.0000
vn 0.7764 0.6302 -0.0000
vn 0.5490 -0.6302 0.5490
vn 0.3394 0.9378 0.0727
vn -0.0000 -1.0000 -0.0000
vn -0.0000 -0.0000 -0.0000
vn -0.0000 1.0000 -0.0000
vn -0.0000 0.8042 -0.5944
vn 0.4203 0.8042 -0.4203
vn 0.5944 0.8042 -0.0000
vn 0.4203 0.8042 0.4203
vn -0.0000 0.8042 0.5944
vn -0.4203 0.8042 0.4203
vn -0.5944 0.8042 -0.0000
vn -0.4203 0.8042 -0.4203
vn -0.0000 0.6303 -0.7764
vn 0.5490 0.6303 -0.5490
vn 0.7764 0.6303 -0.0000
vn 0.5490 0.6302 0.5490
vn -0.0000 0.6302 0.7764
vn -0.3007 0.6004 -0.7411
vn -0.3021 0.5967 -0.7434
vn -0.3153 0.5955 -0.7389
vn -0.3127 0.5849 -0.7484
vn -0.2990 0.5855 -0.7535
vn -0.3009 0.5963 -0.7442
vn -0.3148 0.5946 -0.7398
vn -0.3096 0.5900 -0.7457
vn -0.3085 0.5915 -0.7449
vn -0.2998 0.6001 -0.7416
vn -0.2985 0.5984 -0.7435
vn -0.2977 0.5985 -0.7437
vn -0.3059 0.6034 -0.7364
vn -0.3056 0.6030 -0.7369
vn -0.2964 0.6113 -0.7338
vt 0.308594 0.050563
vt 0.308594 0.676000
vt 0.138255 0.678056
vt 0.138255 0.052619
vt 0.062935 0.678056
vt 0.062935 0.052619
vt 0.002936 0.059508
vt 0.002936 0.698304
vt 0.095282 0.698304
vt 0.095282 0.059508
vt 0.276424 0.698304
vt 0.276424 0.059508
vt 0.471380 0.698304
vt 0.471380 0.059508
vt 0.551752 0.698304
vt 0.551752 0.059508
vt 0.565753 0.050563
vt 0.565753 0.676000
vt 0.490432 0.676000
vt 0.490432 0.050563
vt 0.730469 0.517715
vt 0.844932 0.565127
vt 0.892344 0.450664
vt 0.777881 0.403252
vt 0.616006 0.470303
vt 0.663418 0.355840
vt 0.568594 0.584765
vt 0.683057 0.632177
vt 0.797520 0.679590
vt 0.619651 0.785252
vt 0.841286 0.785252
vt 0.998006 0.628532
vt 0.998006 0.406897
vt 0.841286 0.250177
vt 0.619651 0.250177
vt 0.462931 0.406897
vt 0.462931 0.628532
vt 0.612152 0.276215
vt 0.507812 0.319433
vt 0.507812 0.308702
vt 0.604563 0.268626
vt 0.507812 0.024317
vt 0.612152 0.067536
vt 0.604563 0.075124
vt 0.507812 0.035049
vt 0.403473 0.276215
vt 0.360254 0.171875
vt 0.370986 0.171875
vt 0.411061 0.268626
vt 0.655371 0.171875
vt 0.644639 0.171875
vt 0.403473 0.067536
vt 0.411061 0.075124
vt 0.928648 0.889901
vt 0.883422 0.889902
vt 0.883422 0.578835
vt 0.928648 0.578834
vt 0.838195 0.889908
vt 0.792969 0.889914
vt 0.792969 0.578847
vt 0.838195 0.578841
vt 0.747742 0.889916
vt 0.702515 0.889915
vt 0.702515 0.578848
vt 0.747742 0.578850
vt 0.657289 0.889909
vt 0.657289 0.578842
vt 0.973875 0.889903
vt 0.973875 0.578836
vt 0.612062 0.889903
vt 0.612062 0.578836
vt 0.761719 0.234375
vt 0.848088 0.233331
vt 0.849132 0.319700
vt 0.762763 0.320744
vt 0.675350 0.235419
vt 0.676394 0.321788
vt 0.674305 0.149050
vt 0.760674 0.148006
vt 0.847043 0.146962
vt 0.759546 0.054678
vt 0.887248 0.105773
vt 0.941416 0.232202
vt 0.890321 0.359904
vt 0.763892 0.414073
vt 0.636190 0.362977
vt 0.582021 0.236548
vt 0.633117 0.108846
vt 0.777344 0.226562
vt 0.856385 0.258425
vt 0.824426 0.337443
vt 0.745384 0.305580
vt 0.698302 0.194700
vt 0.666343 0.273717
vt 0.730262 0.115682
vt 0.809303 0.147545
vt 0.888344 0.179408
vt 0.954990 0.297972
vt 0.851697 0.402643
vt 0.704564 0.403745
vt 0.599781 0.300630
vt 0.598727 0.153703
vt 0.702020 0.049031
vt 0.852423 0.049504
vt 0.954548 0.155273
s 1
f 1/1/1 2/2/2 4/3/4 3/4/3
f 3/4/3 4/3/4 6/5/6 5/6/5
f 5/7/5 6/8/6 8/9/8 7/10/7
f 7/10/7 8/9/8 10/11/10 9/12/9
f 9/12/9 10/11/10 12/13/12 11/14/11
f 11/14/11 12/13/12 14/15/14 13/16/13
f 13/17/13 14/18/14 16/19/16 15/20/15
f 15/20/15 16/19/16 2/2/2 1/1/1
f 25/21/19 24/22/19 20/23/17 22/24/18
f 23/25/19 25/21/19 22/24/18 19/26/17
f 17/27/17 21/28/18 25/21/19 23/25/19
f 21/28/18 18/29/17 24/22/19 25/21/19
f 9/30/9 21/28/18 18/29/17 7/31/7
f 7/31/7 18/29/17 24/22/19 5/32/5
f 5/32/5 24/22/19 20/23/17 3/33/3
f 3/33/3 20/23/17 22/24/18 1/34/1
f 1/34/1 22/24/18 19/26/17 15/35/15
f 15/35/15 19/26/17 23/25/19 13/36/13
f 13/36/13 23/25/19 17/27/17 11/37/11
f 11/37/11 17/27/17 21/28/18 9/30/9
f 4/38/4 2/39/2 26/40/20 27/41/21
f 10/42/10 8/43/8 29/44/23 30/45/24
f 16/46/16 14/47/14 32/48/26 33/49/27
f 6/50/6 4/38/4 27/41/21 28/51/22
f 12/52/12 10/42/10 30/45/24 31/53/25
f 2/39/2 16/46/16 33/49/27 26/40/20
f 8/43/8 6/50/6 28/51/22 29/44/23
f 14/47/14 12/52/12 31/53/25 32/48/26
f 31/54/25 30/55/24 38/56/32 39/57/4
f 29/58/23 28/59/22 36/60/30 37/61/31
f 27/62/21 26/63/20 34/64/28 35/65/29
f 26/63/20 33/66/27 41/67/8 34/64/28
f 32/68/26 31/54/25 39/57/4 40/69/6
f 30/55/24 29/58/23 37/61/31 38/56/32
f 28/59/22 27/62/21 35/65/29 36/60/30
f 33/66/27 32/70/26 40/71/6 41/67/8
f 50/72/19 49/73/19 45/74/19 47/75/19
f 48/76/19 50/72/19 47/75/19 44/77/19
f 42/78/19 46/79/19 50/72/19 48/76/19
f 46/79/19 43/80/19 49/73/19 50/72/19
f 38/81/32 37/82/31 43/80/19 46/79/19
f 37/82/31 36/83/30 49/73/19 43/80/19
f 36/83/30 35/84/29 45/74/19 49/73/19
f 35/84/29 34/85/28 47/75/19 45/74/19
f 34/85/28 41/86/8 44/77/19 47/75/19
f 41/86/8 40/87/6 48/76/19 44/77/19
f 40/87/6 39/88/4 42/78/19 48/76/19
f 39/88/4 38/81/32 46/79/19 42/78/19
f 65/89/47 64/90/46 60/91/42 62/92/44
f 63/93/45 65/89/47 62/92/44 59/94/41
f 51/95/33 61/96/43 65/89/47 63/93/45
f 61/96/43 58/97/40 64/90/46 65/89/47
f 57/98/39 56/99/38 60/91/42 64/90/46
f 56/99/38 55/100/37 62/92/44 60/91/42
f 55/100/37 54/101/36 59/94/41 62/92/44
f 54/101/36 53/102/35 63/93/45 59/94/41
f 53/102/35 52/103/34 51/95/33 63/93/45
f 52/103/34 16/104/16 61/96/43 51/95/33
f 16/104/16 2/105/2 58/97/40 61/96/43
f 2/105/2 57/98/39 64/90/46 58/97/40
