# Blender 5.1.0
# www.blender.org
o Sphere.001
v 0.000000 0.128718 0.381682
v 0.000000 0.057764 0.415485
v 0.000000 -0.079646 0.304156
v 0.000005 -0.125705 0.215073
v 0.000274 -0.168384 0.000124
v -0.190841 0.131672 0.330546
v -0.207743 0.060852 0.359821
v -0.186257 -0.018696 0.322606
v -0.152078 -0.079296 0.263407
v -0.107535 -0.127800 0.186257
v -0.055629 -0.158029 0.096430
v -0.330546 0.137682 0.190841
v -0.359821 0.062470 0.207743
v -0.322606 -0.013218 0.186257
v -0.263407 -0.082645 0.152078
v -0.186257 -0.120938 0.107535
v -0.096390 -0.154213 0.055675
v -0.381682 0.131982 0.000000
v -0.415485 0.062017 0.000000
v -0.372514 -0.017166 -0.000000
v -0.304156 -0.083632 -0.000000
v -0.215071 -0.126820 -0.000000
v -0.111219 -0.166170 0.000050
v -0.330546 0.130289 -0.190841
v -0.359821 0.057764 -0.207743
v -0.322606 -0.020544 -0.186257
v -0.263407 -0.083742 -0.152078
v -0.186245 -0.125714 -0.107530
v -0.096258 -0.158615 -0.055594
v -0.190841 0.128285 -0.330546
v -0.207743 0.057764 -0.359821
v -0.186257 -0.022834 -0.322606
v -0.152078 -0.086645 -0.263407
v -0.107472 -0.132226 -0.186228
v -0.055651 -0.164046 -0.096407
v 0.000056 0.128219 -0.381656
v 0.000000 0.057764 -0.415485
v 0.000023 -0.022861 -0.372503
v 0.000128 -0.086865 -0.304098
v 0.000173 -0.135760 -0.214992
v 0.000080 -0.161866 -0.111292
v 0.191108 0.127974 -0.330425
v 0.207853 0.057635 -0.359770
v 0.186482 -0.023096 -0.322504
v 0.152213 -0.086872 -0.263346
v 0.107863 -0.136113 -0.186108
v 0.056072 -0.162608 -0.096229
v 0.330669 0.128142 -0.190785
v 0.359910 0.057660 -0.207702
v 0.322777 -0.023032 -0.186180
v 0.263644 -0.086990 -0.151971
v 0.186505 -0.136022 -0.107423
v 0.096701 -0.163614 -0.055534
v 0.381723 0.128237 0.000019
v 0.415501 0.057745 0.000007
v 0.372635 -0.022975 0.000055
v 0.304477 -0.087088 0.000145
v 0.215454 -0.136178 0.000174
v 0.111557 -0.161729 0.000103
v 0.330619 0.128199 0.190874
v 0.359821 0.057764 0.207743
v 0.322641 -0.022875 0.186273
v 0.263549 -0.086880 0.152142
v 0.186291 -0.135611 0.107551
v 0.096746 -0.165893 0.055815
v 0.190841 0.128285 0.330546
v 0.207743 0.057764 0.359821
v 0.186257 -0.022835 0.322606
v 0.152078 -0.086505 0.263407
v 0.107585 -0.130806 0.186279
v 0.055923 -0.157395 0.096531
v 0.000000 -0.022769 0.372514
v 0.000108 -0.166448 0.111378
v -0.215071 0.130763 0.372514
v 0.000000 0.128285 0.430142
v -0.372514 0.133921 0.215071
v -0.430142 0.131030 0.000000
v -0.372514 0.128285 -0.215071
v -0.215071 0.128285 -0.372514
v 0.000000 0.128285 -0.430142
v 0.215120 0.128228 -0.372491
v 0.372680 0.128091 -0.214995
v 0.430201 0.128216 0.000027
v 0.372514 0.128285 0.215071
v 0.215071 0.128285 0.372514
v -0.190841 0.093288 0.330546
v 0.000000 0.093670 0.381682
v -0.330546 0.103286 0.190841
v -0.381682 0.091593 0.000000
v -0.330546 0.094550 -0.190841
v -0.190841 0.091249 -0.330546
v 0.000062 0.091177 -0.381653
v 0.191055 0.091050 -0.330477
v 0.330912 0.090825 -0.190675
v 0.381833 0.091073 0.000069
v 0.330604 0.091181 0.190867
v 0.190841 0.091249 0.330546
v 0.000000 -0.205870 0.148371
v 0.000126 -0.152360 0.148428
v -0.074185 -0.198354 0.128493
v -0.074171 -0.147422 0.128499
v -0.128493 -0.199815 0.074185
v -0.128463 -0.149204 0.074199
v -0.148371 -0.199057 -0.000000
v -0.148344 -0.146587 0.000012
v -0.128493 -0.206059 -0.074185
v -0.128354 -0.149453 -0.074122
v -0.074169 -0.203586 -0.128486
v -0.074004 -0.151405 -0.128410
v 0.000014 -0.206253 -0.148364
v 0.000334 -0.149893 -0.148220
v 0.074328 -0.206401 -0.128428
v 0.074603 -0.153040 -0.128303
v 0.128517 -0.206264 -0.074175
v 0.128787 -0.154328 -0.074052
v 0.148458 -0.206337 0.000039
v 0.148763 -0.152718 0.000178
v 0.128512 -0.206135 0.074194
v 0.128801 -0.153715 0.074325
v 0.074189 -0.205565 0.128495
v 0.074383 -0.151505 0.128582
v 0.273299 0.045339 -0.168580
v -0.168466 0.094246 -0.273158
v 0.168666 0.095340 0.273249
v -0.273225 0.093002 0.168614
v 0.127198 0.106334 -0.212046
v -0.021116 0.135220 -0.238255
v -0.125823 0.120019 0.203540
v 0.021543 0.108359 0.238449
v 0.203648 0.155932 0.126020
v 0.238602 0.094447 -0.021222
v -0.203418 0.100212 -0.125916
v -0.238232 0.116690 0.021390
v 0.092785 0.107433 -0.055429
v 0.057025 0.101760 0.091447
v -0.055795 0.094331 -0.090889
v -0.090458 0.141965 0.056484
vn -0.1811 -0.7471 0.6395
vn -0.1191 -0.8764 0.4666
vn -0.2561 -0.1976 0.9462
vn -0.1204 -0.9420 0.3131
vn -0.2376 -0.4603 0.8554
vn -0.1538 -0.9880 0.0170
vn -0.6948 -0.1964 0.6918
vn -0.2557 -0.9516 0.1706
vn -0.6293 -0.4716 0.6177
vn -0.1262 -0.9914 0.0334
vn -0.4992 -0.7126 0.4930
vn -0.3266 -0.8928 0.3101
vn -0.4072 -0.9036 0.1330
vn -0.9465 -0.1976 0.2552
vn -0.3018 -0.9356 0.1830
vn -0.8500 -0.4724 0.2330
vn -0.0195 -0.9764 0.2151
vn -0.6901 -0.6969 0.1951
vn -0.8567 -0.4663 -0.2205
vn -0.0196 -0.9900 -0.1397
vn -0.6786 -0.7135 -0.1745
vn -0.4275 -0.8963 -0.1180
vn -0.9475 -0.1989 -0.2506
vn -0.3143 -0.9398 -0.1342
vn -0.6933 -0.1968 -0.6933
vn -0.2643 -0.9495 -0.1691
vn -0.6286 -0.4630 -0.6249
vn -0.1123 -0.9935 0.0204
vn -0.4977 -0.7207 -0.4826
vn -0.3424 -0.8909 -0.2983
vn -0.1802 -0.7187 -0.6715
vn -0.1360 -0.8766 -0.4615
vn -0.2538 -0.1968 -0.9470
vn -0.0791 -0.9606 -0.2664
vn -0.2301 -0.4579 -0.8587
vn 0.0234 -0.9980 -0.0584
vn 0.2299 -0.4576 -0.8589
vn 0.0025 -0.9983 -0.0584
vn 0.1796 -0.7187 -0.6718
vn 0.1271 -0.8687 -0.4787
vn 0.2537 -0.1968 -0.9470
vn 0.0598 -0.9672 -0.2468
vn 0.3507 -0.8683 -0.3508
vn 0.6932 -0.1969 -0.6934
vn 0.1807 -0.9654 -0.1879
vn 0.6291 -0.4570 -0.6288
vn 0.0223 -0.9986 -0.0469
vn 0.4915 -0.7188 -0.4917
vn 0.6730 -0.7173 -0.1805
vn 0.4783 -0.8686 -0.1293
vn 0.9470 -0.1977 -0.2533
vn 0.2500 -0.9666 -0.0568
vn 0.8594 -0.4567 -0.2299
vn 0.0597 -0.9981 0.0179
vn 0.2646 -0.9631 0.0501
vn 0.8592 -0.4568 0.2306
vn 0.0596 -0.9965 -0.0586
vn 0.6732 -0.7169 0.1816
vn 0.4763 -0.8694 0.1313
vn 0.9469 -0.1972 0.2540
vn 0.3240 -0.8796 0.3483
vn 0.6933 -0.1968 0.6933
vn 0.1394 -0.9591 0.2464
vn 0.6286 -0.4576 0.6288
vn -0.0592 -0.9874 0.1467
vn 0.4908 -0.7186 0.4926
vn -0.7071 -0.0013 0.7071
vn 0.1646 -0.9862 0.0174
vn 0.1604 -0.7385 0.6549
vn 0.0822 -0.8847 0.4589
vn 0.2538 -0.1968 0.9470
vn 0.1036 -0.9476 0.3022
vn 0.2300 -0.4580 0.8587
vn 0.0088 0.9998 0.0172
vn -0.0198 0.9985 0.0506
vn -0.0538 0.9985 -0.0067
vn -0.0278 0.9994 -0.0184
vn -0.0118 0.9998 -0.0185
vn 0.0003 1.0000 0.0006
vn 0.0001 1.0000 0.0021
vn -0.0009 1.0000 0.0025
vn -0.0005 1.0000 0.0004
vn -0.0000 1.0000 -0.0005
vn -0.0006 1.0000 -0.0005
vn 0.0008 1.0000 0.0017
vn 0.0022 1.0000 0.0042
vn 0.7071 -0.0000 0.7071
vn -0.2588 -0.0000 -0.9659
vn 0.7071 -0.0000 -0.7071
vn -0.9661 -0.0040 0.2582
vn 0.2586 0.0001 0.9660
vn 0.9659 -0.0000 -0.2588
vn -0.9659 -0.0014 -0.2590
vn -0.2589 -0.0005 0.9659
vn 0.9659 -0.0000 0.2588
vn -0.7069 0.0002 -0.7073
vn 0.2588 -0.0000 -0.9659
vn -0.2590 -0.0002 0.9659
vn -0.7071 0.0002 0.7071
vn -0.9659 0.0005 0.2588
vn -0.9657 0.0016 -0.2597
vn -0.7068 0.0029 -0.7074
vn -0.2581 0.0031 -0.9661
vn 0.2591 0.0010 -0.9659
vn 0.7075 -0.0020 -0.7067
vn 0.9657 -0.0046 -0.2596
vn 0.9656 -0.0061 0.2598
vn 0.0192 0.9998 -0.0031
vn 0.7064 -0.0047 0.7078
vn 0.2585 -0.0021 0.9660
vn -0.0201 -0.9997 0.0099
vn -0.1974 0.9748 0.1040
vn -0.1694 0.9758 0.1385
vn 0.1523 0.9844 0.0881
vn 0.0246 0.9905 0.1352
vn 0.1171 0.9867 -0.1127
vn 0.2687 0.9583 -0.0972
vn -0.0887 0.9745 -0.2062
vn -0.1374 0.9869 0.0845
vn -0.0130 0.9764 -0.2155
vn 0.1246 0.9756 -0.1806
vn -0.1276 0.9658 -0.2255
vn -0.0210 0.9988 -0.0450
vn -0.0928 0.9937 -0.0633
vn -0.0734 0.9965 0.0389
vn -0.0833 0.9957 0.0408
vn -0.0738 0.9965 0.0389
vn -0.0839 0.9956 0.0409
vn -0.0052 0.9887 0.1499
vn 0.0499 0.9944 0.0930
vn 0.1801 0.9346 0.3068
vn 0.2743 0.9560 -0.1043
vn -0.2039 0.9701 -0.1318
vn 0.0475 0.9673 0.2490
vt 0.197581 0.731263
vt 0.197581 0.760295
vt 0.176540 0.760295
vt 0.176540 0.731263
vt 0.197581 0.702230
vt 0.176540 0.702230
vt 0.197581 0.789328
vt 0.197581 0.818361
vt 0.176540 0.818361
vt 0.176540 0.789328
vt 0.197581 0.673197
vt 0.176540 0.673197
vt 0.187061 0.644165
vt 0.155499 0.818361
vt 0.155499 0.789328
vt 0.155499 0.702230
vt 0.155499 0.673197
vt 0.155499 0.760295
vt 0.166020 0.644165
vt 0.155499 0.731263
vt 0.134458 0.731263
vt 0.134458 0.702230
vt 0.134458 0.818361
vt 0.134458 0.789328
vt 0.134458 0.673197
vt 0.134458 0.760295
vt 0.144979 0.644165
vt 0.113417 0.789328
vt 0.113417 0.760295
vt 0.123938 0.644165
vt 0.113417 0.673197
vt 0.113417 0.731263
vt 0.113417 0.702230
vt 0.113417 0.818361
vt 0.092376 0.818361
vt 0.092376 0.789328
vt 0.092376 0.702230
vt 0.092376 0.673197
vt 0.092376 0.760295
vt 0.102897 0.644165
vt 0.092376 0.731263
vt 0.071336 0.760295
vt 0.071336 0.731263
vt 0.071336 0.702230
vt 0.071336 0.818361
vt 0.071336 0.789328
vt 0.071336 0.673197
vt 0.081856 0.644165
vt 0.050295 0.789328
vt 0.050295 0.760295
vt 0.060815 0.644165
vt 0.050295 0.673197
vt 0.050295 0.731263
vt 0.050295 0.702230
vt 0.050295 0.818361
vt 0.029254 0.731263
vt 0.029254 0.702230
vt 0.029254 0.818361
vt 0.029254 0.789328
vt 0.029254 0.673197
vt 0.029254 0.760295
vt 0.039774 0.644165
vt 0.008213 0.760295
vt 0.008213 0.731263
vt 0.008213 0.702230
vt 0.008213 0.818361
vt 0.008213 0.789328
vt 0.008213 0.673197
vt 0.018733 0.644165
vt 0.260704 0.673197
vt 0.260704 0.702230
vt 0.239663 0.702230
vt 0.239663 0.673197
vt 0.260704 0.760295
vt 0.260704 0.789328
vt 0.239663 0.789328
vt 0.239663 0.760295
vt 0.250183 0.644165
vt 0.260704 0.731263
vt 0.239663 0.731263
vt 0.260704 0.818361
vt 0.239663 0.818361
vt 0.218622 0.731263
vt 0.218622 0.702230
vt 0.218622 0.818361
vt 0.218622 0.789328
vt 0.218622 0.673197
vt 0.218622 0.760295
vt 0.229142 0.644165
vt 0.505399 0.912666
vt 0.532295 0.864926
vt 0.548412 0.868650
vt 0.517455 0.923820
vt 0.208102 0.644165
vt 0.190980 0.818342
vt 0.172154 0.818422
vt 0.152846 0.818504
vt 0.133334 0.818587
vt 0.113764 0.818671
vt 0.094252 0.818754
vt 0.074944 0.818836
vt 0.056118 0.818916
vt 0.039075 0.818361
vt 0.042136 0.818976
vt 0.204963 0.818282
vt 0.208411 0.818267
vt 0.506378 0.761004
vt 0.460416 0.732439
vt 0.464519 0.716673
vt 0.518042 0.749407
vt 0.337403 0.862149
vt 0.360535 0.910854
vt 0.348768 0.921973
vt 0.321607 0.866094
vt 0.361650 0.758921
vt 0.337498 0.806698
vt 0.321607 0.803382
vt 0.349505 0.748295
vt 0.458749 0.939975
vt 0.463401 0.955580
vt 0.532321 0.809563
vt 0.548259 0.805093
vt 0.407065 0.731691
vt 0.402376 0.716214
vt 0.405353 0.939310
vt 0.401226 0.954968
vt 0.260704 0.992557
vt 0.239663 0.992557
vt 0.218622 0.992557
vt 0.197581 0.992557
vt 0.176540 0.992557
vt 0.155499 0.992557
vt 0.134458 0.992557
vt 0.113417 0.992557
vt 0.092377 0.992557
vt 0.092377 0.818361
vt 0.071336 0.992557
vt 0.050295 0.992557
vt 0.101634 0.803675
vt 0.071336 0.814877
vt 0.041037 0.803675
vt 0.018856 0.773070
vt 0.010738 0.731263
vt 0.018856 0.689456
vt 0.041037 0.658851
vt 0.071336 0.647648
vt 0.101634 0.658851
vt 0.123815 0.689456
vt 0.131933 0.731263
vt 0.123815 0.773070
vt 0.029254 0.992557
vt 0.008213 0.992557
vt 0.197581 0.814877
vt 0.227880 0.803675
vt 0.250060 0.773070
vt 0.258179 0.731263
vt 0.250060 0.689456
vt 0.227880 0.658851
vt 0.197581 0.647648
vt 0.167282 0.658851
vt 0.145102 0.689456
vt 0.136983 0.731263
vt 0.145102 0.773070
vt 0.167282 0.803675
vt 0.728038 0.390872
vt 0.846423 0.362757
vt 0.874457 0.480702
vt 0.756369 0.508682
vt 0.492422 0.446579
vt 0.609886 0.418882
vt 0.638311 0.536649
vt 0.520447 0.564527
vt 0.553668 0.175746
vt 0.672486 0.154749
vt 0.700268 0.272808
vt 0.581237 0.301216
vt 0.436623 0.210568
vt 0.464420 0.328620
vt 0.790532 0.126788
vt 0.818533 0.244747
vt 0.502510 0.080868
vt 0.655520 0.039869
vt 0.808457 0.080813
vt 0.920378 0.192734
vt 0.961344 0.345621
vt 0.920378 0.498508
vt 0.808457 0.610430
vt 0.655570 0.651396
vt 0.502682 0.610430
vt 0.390714 0.498529
vt 0.349674 0.345676
vt 0.390468 0.192867
s 1
g off
f 3/1/1 72/2/1 8/3/1 9/4/1
f 4/5/2 3/1/2 9/4/2 10/6/2
f 2/7/3 75/8/3 74/9/3 7/10/3
f 73/11/4 4/5/4 10/6/4 11/12/4
f 72/2/5 2/7/5 7/10/5 8/3/5
f 5/13/6 73/11/6 11/12/6
f 7/10/7 74/9/7 76/14/7 13/15/7
f 11/12/8 10/6/8 16/16/8 17/17/8
f 8/3/9 7/10/9 13/15/9 14/18/9
f 5/19/10 11/12/10 17/17/10
f 9/4/11 8/3/11 14/18/11 15/20/11
f 10/6/12 9/4/12 15/20/12 16/16/12
f 16/16/13 15/20/13 21/21/13 22/22/13
f 13/15/14 76/14/14 77/23/14 19/24/14
f 17/17/15 16/16/15 22/22/15 23/25/15
f 14/18/16 13/15/16 19/24/16 20/26/16
f 5/27/17 17/17/17 23/25/17
f 15/20/18 14/18/18 20/26/18 21/21/18
f 20/26/19 19/24/19 25/28/19 26/29/19
f 5/30/20 23/25/20 29/31/20
f 21/21/21 20/26/21 26/29/21 27/32/21
f 22/22/22 21/21/22 27/32/22 28/33/22
f 19/24/23 77/23/23 78/34/23 25/28/23
f 23/25/24 22/22/24 28/33/24 29/31/24
f 25/28/25 78/34/25 79/35/25 31/36/25
f 29/31/26 28/33/26 34/37/26 35/38/26
f 26/29/27 25/28/27 31/36/27 32/39/27
f 5/40/28 29/31/28 35/38/28
f 27/32/29 26/29/29 32/39/29 33/41/29
f 28/33/30 27/32/30 33/41/30 34/37/30
f 33/41/31 32/39/31 38/42/31 39/43/31
f 34/37/32 33/41/32 39/43/32 40/44/32
f 31/36/33 79/35/33 80/45/33 37/46/33
f 35/38/34 34/37/34 40/44/34 41/47/34
f 32/39/35 31/36/35 37/46/35 38/42/35
f 5/48/36 35/38/36 41/47/36
f 38/42/37 37/46/37 43/49/37 44/50/37
f 5/51/38 41/47/38 47/52/38
f 39/43/39 38/42/39 44/50/39 45/53/39
f 40/44/40 39/43/40 45/53/40 46/54/40
f 37/46/41 80/45/41 81/55/41 43/49/41
f 41/47/42 40/44/42 46/54/42 47/52/42
f 46/54/43 45/53/43 51/56/43 52/57/43
f 43/49/44 81/55/44 82/58/44 49/59/44
f 47/52/45 46/54/45 52/57/45 53/60/45
f 44/50/46 43/49/46 49/59/46 50/61/46
f 5/62/47 47/52/47 53/60/47
f 45/53/48 44/50/48 50/61/48 51/56/48
f 51/56/49 50/61/49 56/63/49 57/64/49
f 52/57/50 51/56/50 57/64/50 58/65/50
f 49/59/51 82/58/51 83/66/51 55/67/51
f 53/60/52 52/57/52 58/65/52 59/68/52
f 50/61/53 49/59/53 55/67/53 56/63/53
f 5/69/54 53/60/54 59/68/54
f 59/70/55 58/71/55 64/72/55 65/73/55
f 56/74/56 55/75/56 61/76/56 62/77/56
f 5/78/57 59/70/57 65/73/57
f 57/79/58 56/74/58 62/77/58 63/80/58
f 58/71/59 57/79/59 63/80/59 64/72/59
f 55/75/60 83/81/60 84/82/60 61/76/60
f 64/72/61 63/80/61 69/83/61 70/84/61
f 61/76/62 84/82/62 85/85/62 67/86/62
f 65/73/63 64/72/63 70/84/63 71/87/63
f 62/77/64 61/76/64 67/86/64 68/88/64
f 5/89/65 65/73/65 71/87/65
f 63/80/66 62/77/66 68/88/66 69/83/66
f 48/90/67 42/91/67 93/92/67 94/93/67
f 5/94/68 71/87/68 73/11/68
f 69/83/69 68/88/69 72/2/69 3/1/69
f 70/84/70 69/83/70 3/1/70 4/5/70
f 67/86/71 85/85/71 75/8/71 2/7/71
f 71/87/72 70/84/72 4/5/72 73/11/72
f 68/88/73 67/86/73 2/7/73 72/2/73
f 1/95/74 6/96/74 74/9/74 75/8/74
f 6/96/75 12/97/75 76/14/75 74/9/75
f 12/97/76 18/98/76 77/23/76 76/14/76
f 18/98/77 24/99/77 78/34/77 77/23/77
f 24/99/78 30/100/78 79/35/78 78/34/78
f 30/100/79 36/101/80 80/45/80 79/35/79
f 36/101/80 42/102/81 81/55/81 80/45/80
f 42/102/81 48/103/82 82/58/82 81/55/81
f 48/103/82 54/104/83 83/66/83 82/58/82
f 54/104/83 60/105/84 84/82/84 83/66/83
f 60/105/84 66/106/85 85/85/85 84/82/84
f 66/106/85 1/95/86 75/8/86 85/85/85
f 30/107/87 24/108/87 90/109/87 91/110/87
f 1/111/88 66/112/88 97/113/88 87/114/88
f 12/115/89 6/116/89 86/117/89 88/118/89
f 54/119/90 48/90/90 94/93/90 95/120/90
f 36/121/91 30/107/91 91/110/91 92/122/91
f 18/123/92 12/115/92 88/118/92 89/124/92
f 60/125/93 54/119/93 95/120/93 96/126/93
f 42/91/94 36/121/94 92/122/94 93/92/94
f 24/108/95 18/123/95 89/124/95 90/109/95
f 66/112/96 60/125/96 96/126/96 97/113/96
f 6/116/97 1/111/97 87/114/97 86/117/97
f 98/81/98 99/127/98 101/128/98 100/82/98
f 100/82/99 101/128/99 103/129/99 102/85/99
f 102/85/100 103/129/100 105/130/100 104/8/100
f 104/8/101 105/130/101 107/131/101 106/9/101
f 106/9/102 107/131/102 109/132/102 108/14/102
f 108/14/103 109/132/103 111/133/103 110/23/103
f 110/23/104 111/133/104 113/134/104 112/34/104
f 112/34/105 113/134/105 115/135/105 114/136/105
f 114/136/106 115/135/106 117/137/106 116/45/106
f 116/45/107 117/137/107 119/138/107 118/55/107
f 101/139/108 99/140/108 121/141/108 119/142/108 117/143/108 115/144/108 113/145/108 111/146/108 109/147/108 107/148/108 105/149/108 103/150/108
f 118/55/109 119/138/109 121/151/109 120/58/109
f 120/58/110 121/151/110 99/152/110 98/66/110
f 98/153/111 100/154/111 102/155/111 104/156/111 106/157/111 108/158/111 110/159/111 112/160/111 114/161/111 116/162/111 118/163/111 120/164/111
f 137/165/112 133/166/112 125/167/112 128/168/112
f 130/169/113 135/170/113 129/171/113 124/172/113
f 135/170/114 137/165/114 128/168/114 129/171/114
f 126/173/115 127/174/115 136/175/115 134/176/115
f 134/176/116 136/175/116 137/165/116 135/170/116
f 122/177/117 126/173/117 134/176/117 131/178/117
f 131/178/118 134/176/118 135/170/118 130/169/118
f 127/174/119 123/179/119 132/180/119 136/175/119
f 136/175/120 132/180/120 133/166/120 137/165/120
f 93/181/121 92/182/121 127/174/121 126/173/121
f 92/182/122 91/183/122 123/179/122 127/174/122
f 91/183/123 90/184/123 132/180/123 123/179/123
f 90/184/124 89/185/124 133/166/124 132/180/124
f 89/185/125 88/186/126 125/167/127 133/166/125
f 88/186/126 86/187/128 128/168/128 125/167/127
f 86/187/129 87/188/129 129/171/129 128/168/129
f 87/188/130 97/189/130 124/172/130 129/171/130
f 97/189/131 96/190/131 130/169/131 124/172/131
f 96/190/132 95/191/132 131/178/132 130/169/132
f 95/191/133 94/192/133 122/177/133 131/178/133
f 94/192/134 93/181/134 126/173/134 122/177/134
