# Blender 5.1.0
# www.blender.org
mtllib model.mtl
o Nightstand
v -0.250000 0.200000 0.200000
v -0.250000 0.550000 0.200000
v -0.250000 0.200000 -0.200000
v -0.250000 0.550000 -0.200000
v 0.250000 0.200000 0.200000
v 0.250000 0.550000 0.200000
v 0.250000 0.200000 -0.200000
v 0.250000 0.550000 -0.200000
v 0.207458 0.000000 0.192210
v 0.169958 0.200000 0.169710
v 0.207458 0.000000 0.157210
v 0.169958 0.200000 0.119710
v 0.242458 0.000000 0.192210
v 0.219958 0.200000 0.169710
v 0.242458 0.000000 0.157210
v 0.219958 0.200000 0.119710
v -0.207458 0.000000 0.192210
v -0.169958 0.200000 0.169710
v -0.207458 0.000000 0.157210
v -0.169958 0.200000 0.119710
v -0.242458 0.000000 0.192210
v -0.219958 0.200000 0.169710
v -0.242458 0.000000 0.157210
v -0.219958 0.200000 0.119710
v 0.207458 0.000000 -0.192210
v 0.169958 0.200000 -0.169710
v 0.207458 0.000000 -0.157210
v 0.169958 0.200000 -0.119710
v 0.242458 0.000000 -0.192210
v 0.219958 0.200000 -0.169710
v 0.242458 0.000000 -0.157210
v 0.219958 0.200000 -0.119710
v -0.207458 0.000000 -0.192210
v -0.169958 0.200000 -0.169710
v -0.207458 0.000000 -0.157210
v -0.169958 0.200000 -0.119710
v -0.242458 0.000000 -0.192210
v -0.219958 0.200000 -0.169710
v -0.242458 0.000000 -0.157210
v -0.219958 0.200000 -0.119710
vn -1.0000 -0.0000 -0.0000
vn -0.0000 -0.0000 -1.0000
vn 1.0000 -0.0000 -0.0000
vn -0.0000 -0.0000 1.0000
vn -0.0000 -1.0000 -0.0000
vn -0.0000 1.0000 -0.0000
vn -0.9829 -0.1843 -0.0000
vn -0.0000 -0.1843 -0.9829
vn 0.9937 0.1118 -0.0000
vn -0.0000 0.1118 0.9937
vn 0.9829 -0.1843 -0.0000
vn -0.9937 0.1118 -0.0000
vn -0.0000 -0.1843 0.9829
vn -0.0000 0.1118 -0.9937
vt 0.958185 0.115804
vt 0.626232 0.115804
vt 0.626232 0.495179
vt 0.958185 0.495179
vt 0.943614 0.072794
vt 0.633069 0.072794
vt 0.633069 0.516429
vt 0.943614 0.516429
vt 0.953802 0.472241
vt 0.623233 0.472241
vt 0.623233 0.094448
vt 0.953802 0.094448
vt 0.549580 0.496611
vt 0.549580 0.871137
vt 0.014542 0.871137
vt 0.014542 0.496611
vt 0.023976 0.443124
vt 0.543448 0.443124
vt 0.543448 0.027547
vt 0.023976 0.027547
vt 0.545484 0.439301
vt 0.033221 0.439301
vt 0.033221 0.029490
vt 0.545484 0.029490
vt 0.603515 0.598742
vt 0.634295 0.872340
vt 0.702694 0.872340
vt 0.651395 0.598742
s 0
usemtl Nightstand
f 1/1/1 2/2/1 4/3/1 3/4/1
f 3/5/2 4/6/2 8/7/2 7/8/2
f 7/9/3 8/10/3 6/11/3 5/12/3
f 5/13/4 6/14/4 2/15/4 1/16/4
f 3/17/5 7/18/5 5/19/5 1/20/5
f 8/21/6 4/22/6 2/23/6 6/24/6
f 9/25/7 10/26/7 12/27/7 11/28/7
f 11/28/8 12/27/8 16/26/8 15/25/8
f 15/28/9 16/27/9 14/26/9 13/25/9
f 13/25/10 14/26/10 10/27/10 9/28/10
f 11/28/5 15/25/5 13/25/5 9/28/5
f 17/25/11 19/28/11 20/27/11 18/26/11
f 19/28/8 23/25/8 24/26/8 20/27/8
f 23/28/12 21/25/12 22/26/12 24/27/12
f 21/25/10 17/28/10 18/27/10 22/26/10
f 19/28/5 17/28/5 21/25/5 23/25/5
f 25/25/7 27/28/7 28/27/7 26/26/7
f 27/28/13 31/25/13 32/26/13 28/27/13
f 31/28/9 29/25/9 30/26/9 32/27/9
f 29/25/14 25/28/14 26/27/14 30/26/14
f 27/28/5 25/28/5 29/25/5 31/25/5
f 33/25/11 34/26/11 36/27/11 35/28/11
f 35/28/13 36/27/13 40/26/13 39/25/13
f 39/28/12 40/27/12 38/26/12 37/25/12
f 37/25/14 38/26/14 34/27/14 33/28/14
f 35/28/5 39/25/5 37/25/5 33/28/5
o Cube
v -0.056007 0.436113 0.213574
v -0.056007 0.454984 0.213574
v 0.071495 0.436113 0.213574
v 0.071495 0.454984 0.213574
v 0.054615 0.436113 0.213574
v -0.039126 0.436113 0.213574
v -0.039126 0.454984 0.213574
v 0.054615 0.454984 0.213574
v -0.039126 0.436113 0.227558
v 0.054615 0.436113 0.227558
v 0.054615 0.454984 0.227558
v -0.039126 0.454984 0.227558
v -0.056007 0.454984 0.198918
v -0.056007 0.436113 0.198918
v -0.039126 0.436113 0.198918
v 0.054615 0.454984 0.198918
v 0.071495 0.454984 0.198918
v 0.071495 0.436113 0.198918
v 0.054615 0.436113 0.198918
v -0.039126 0.454984 0.198918
v -0.046385 0.436113 0.227558
v -0.056007 0.436113 0.217936
v -0.056007 0.454984 0.217936
v -0.046385 0.454984 0.227558
v 0.071495 0.436113 0.217936
v 0.061873 0.436113 0.227558
v 0.061873 0.454984 0.227558
v 0.071495 0.454984 0.217936
vn -0.0000 1.0000 -0.0000
vn -0.0000 -1.0000 -0.0000
vn -0.0000 -0.0000 1.0000
vn -1.0000 -0.0000 -0.0000
vn -0.0000 -0.0000 -1.0000
vn 1.0000 -0.0000 -0.0000
vn -0.7071 -0.0000 0.7071
vn 0.7071 -0.0000 0.7071
vt 0.958002 0.630099
vt 0.958002 0.602887
vt 0.934376 0.602887
vt 0.934376 0.630099
vt 0.958002 0.781209
vt 0.980544 0.781209
vt 0.980544 0.630099
vt 0.903248 0.636445
vt 0.930265 0.636445
vt 0.930265 0.770654
vt 0.903248 0.770654
vt 0.857952 0.744396
vt 0.882100 0.744396
vt 0.882100 0.763151
vt 0.857952 0.763151
vt 0.857952 0.624440
vt 0.882100 0.624440
vt 0.882100 0.784752
vt 0.857952 0.784752
vt 0.857952 0.584084
vt 0.882100 0.584084
vt 0.882100 0.605686
vt 0.857952 0.605686
vt 0.958002 0.808421
vt 0.934376 0.781209
vt 0.934376 0.808421
vt 0.903248 0.806773
vt 0.930265 0.806773
vt 0.930265 0.827757
vt 0.903248 0.827757
vt 0.930265 0.600326
vt 0.903248 0.600326
vt 0.903248 0.579342
vt 0.930265 0.579342
vt 0.903248 0.781046
vt 0.930265 0.781046
vt 0.930265 0.800528
vt 0.903248 0.800528
vt 0.930265 0.626053
vt 0.903248 0.626053
vt 0.903248 0.606571
vt 0.930265 0.606571
vt 0.980544 0.792910
vt 0.965034 0.808421
vt 0.965034 0.602887
vt 0.980544 0.618398
s 0
usemtl Nightstand
f 48/29/15 44/30/15 57/31/15 56/32/15
f 48/29/15 47/33/15 52/34/15 51/35/15
f 46/33/16 45/29/16 50/35/16 49/34/16
f 50/36/17 51/37/17 52/38/17 49/39/17
f 45/40/18 48/41/18 56/42/18 59/43/18
f 46/44/19 47/45/19 48/41/19 45/40/19
f 59/43/19 56/42/19 57/46/19 58/47/19
f 54/48/19 53/49/19 60/50/19 55/51/19
f 42/52/15 47/33/15 60/53/15 53/54/15
f 41/55/18 42/56/18 53/57/18 54/58/18
f 43/30/16 45/29/16 59/32/16 58/31/16
f 44/59/20 43/60/20 58/61/20 57/62/20
f 47/45/20 46/44/20 55/51/20 60/50/20
f 46/33/16 41/52/16 54/54/16 55/53/16
f 61/63/21 64/64/21 63/65/21 62/66/21
f 67/67/22 66/68/22 65/69/22 68/70/22
f 41/52/16 46/33/16 49/34/16 61/71/16 62/72/16
f 62/66/18 63/65/18 42/56/18 41/55/18
f 49/39/17 52/38/17 64/64/17 61/63/17
f 47/33/15 42/52/15 63/72/15 64/71/15 52/34/15
f 45/29/16 43/30/16 65/73/16 66/74/16 50/35/16
f 43/60/20 44/59/20 68/70/20 65/69/20
f 66/68/17 67/67/17 51/37/17 50/36/17
f 44/30/15 48/29/15 51/35/15 67/74/15 68/73/15
o Cube.001
v -0.056007 0.291142 0.213574
v -0.056007 0.310012 0.213574
v 0.071495 0.291142 0.213574
v 0.071495 0.310012 0.213574
v 0.054615 0.291142 0.213574
v -0.039126 0.291142 0.213574
v -0.039126 0.310012 0.213574
v 0.054615 0.310012 0.213574
v -0.039126 0.291142 0.227558
v 0.054615 0.291142 0.227558
v 0.054615 0.310012 0.227558
v -0.039126 0.310012 0.227558
v -0.056007 0.310012 0.198918
v -0.056007 0.291142 0.198918
v -0.039126 0.291142 0.198918
v 0.054615 0.310012 0.198918
v 0.071495 0.310012 0.198918
v 0.071495 0.291142 0.198918
v 0.054615 0.291142 0.198918
v -0.039126 0.310012 0.198918
v -0.046385 0.291142 0.227558
v -0.056007 0.291142 0.217936
v -0.056007 0.310012 0.217936
v -0.046385 0.310012 0.227558
v 0.071495 0.291142 0.217936
v 0.061873 0.291142 0.227558
v 0.061873 0.310012 0.227558
v 0.071495 0.310012 0.217936
vn -0.0000 1.0000 -0.0000
vn -0.0000 -1.0000 -0.0000
vn -0.0000 -0.0000 1.0000
vn -1.0000 -0.0000 -0.0000
vn -0.0000 -0.0000 -1.0000
vn 1.0000 -0.0000 -0.0000
vn -0.7071 -0.0000 0.7071
vn 0.7071 -0.0000 0.7071
vt 0.958002 0.630099
vt 0.958002 0.602887
vt 0.934376 0.602887
vt 0.934376 0.630099
vt 0.958002 0.781209
vt 0.980544 0.781209
vt 0.980544 0.630099
vt 0.903248 0.636445
vt 0.930265 0.636445
vt 0.930265 0.770654
vt 0.903248 0.770654
vt 0.857952 0.744396
vt 0.882100 0.744396
vt 0.882100 0.763151
vt 0.857952 0.763151
vt 0.857952 0.624440
vt 0.882100 0.624440
vt 0.882100 0.784752
vt 0.857952 0.784752
vt 0.857952 0.584084
vt 0.882100 0.584084
vt 0.882100 0.605686
vt 0.857952 0.605686
vt 0.958002 0.808421
vt 0.934376 0.781209
vt 0.934376 0.808421
vt 0.903248 0.806773
vt 0.930265 0.806773
vt 0.930265 0.827757
vt 0.903248 0.827757
vt 0.930265 0.600326
vt 0.903248 0.600326
vt 0.903248 0.579342
vt 0.930265 0.579342
vt 0.903248 0.781046
vt 0.930265 0.781046
vt 0.930265 0.800528
vt 0.903248 0.800528
vt 0.930265 0.626053
vt 0.903248 0.626053
vt 0.903248 0.606571
vt 0.930265 0.606571
vt 0.980544 0.792910
vt 0.965034 0.808421
vt 0.965034 0.602887
vt 0.980544 0.618398
s 0
usemtl Nightstand
f 76/75/23 72/76/23 85/77/23 84/78/23
f 76/75/23 75/79/23 80/80/23 79/81/23
f 74/79/24 73/75/24 78/81/24 77/80/24
f 78/82/25 79/83/25 80/84/25 77/85/25
f 73/86/26 76/87/26 84/88/26 87/89/26
f 74/90/27 75/91/27 76/87/27 73/86/27
f 87/89/27 84/88/27 85/92/27 86/93/27
f 82/94/27 81/95/27 88/96/27 83/97/27
f 70/98/23 75/79/23 88/99/23 81/100/23
f 69/101/26 70/102/26 81/103/26 82/104/26
f 71/76/24 73/75/24 87/78/24 86/77/24
f 72/105/28 71/106/28 86/107/28 85/108/28
f 75/91/28 74/90/28 83/97/28 88/96/28
f 74/79/24 69/98/24 82/100/24 83/99/24
f 89/109/29 92/110/29 91/111/29 90/112/29
f 95/113/30 94/114/30 93/115/30 96/116/30
f 69/98/24 74/79/24 77/80/24 89/117/24 90/118/24
f 90/112/26 91/111/26 70/102/26 69/101/26
f 77/85/25 80/84/25 92/110/25 89/109/25
f 75/79/23 70/98/23 91/118/23 92/117/23 80/80/23
f 73/75/24 71/76/24 93/119/24 94/120/24 78/81/24
f 71/106/28 72/105/28 96/116/28 93/115/28
f 94/114/25 95/113/25 79/83/25 78/82/25
f 72/76/23 76/75/23 79/81/23 95/120/23 96/119/23
