# Blender 5.1.0
# www.blender.org
o Cylinder.010
v -0.129803 -0.123492 -0.428352
v -0.423555 -0.117134 -0.165053
v 0.094190 0.039343 -0.156889
v -0.202386 0.021330 0.065779
v -0.224805 -0.130382 -0.423093
v -0.308741 -0.138309 -0.357725
v -0.380690 -0.138045 -0.280464
v -0.115069 0.058616 0.057765
v -0.022924 0.069561 0.005533
v 0.055574 0.063383 -0.068703
v 0.074933 -0.011454 -0.266570
v 0.049891 -0.064581 -0.357888
v -0.025136 -0.106954 -0.425535
v -0.400817 -0.091251 -0.081357
v -0.372067 -0.052560 0.018900
v -0.308125 -0.017383 0.067509
v -0.171442 -0.024821 -0.390555
v -0.107522 0.025019 -0.314860
v -0.048487 0.088231 -0.245097
v -0.272779 0.008123 -0.328977
v -0.226226 0.078156 -0.255205
v -0.123161 0.094524 -0.150424
v -0.363912 0.000130 -0.236321
v -0.312631 0.045160 -0.155212
v -0.245104 0.089870 -0.081060
v -0.137828 -0.108132 -0.384224
v -0.347365 -0.084604 -0.202008
v -0.002852 0.014877 -0.210264
v -0.216956 0.012974 -0.045306
v -0.046909 -0.016928 -0.250932
v -0.081581 -0.042901 -0.287816
v -0.113288 -0.069342 -0.325310
v -0.319510 -0.058790 -0.165555
v -0.296666 -0.033645 -0.113230
v -0.255561 -0.007298 -0.065759
v -0.198494 -0.102145 -0.338277
v -0.246009 -0.093969 -0.296736
v -0.304509 -0.084918 -0.242923
v -0.167053 0.013364 -0.087513
v -0.116282 0.012365 -0.129300
v -0.065146 0.010864 -0.170960
v -0.268797 -0.054693 -0.207316
v -0.218787 -0.058825 -0.248074
v -0.165260 -0.064748 -0.287875
v -0.242924 -0.031858 -0.163733
v -0.187101 -0.034927 -0.207983
v -0.124788 -0.039191 -0.250952
v -0.205032 -0.008055 -0.120104
v -0.149655 -0.010180 -0.164775
v -0.093225 -0.013952 -0.208802
v -0.130115 -0.120844 -0.425907
v -0.420940 -0.114781 -0.165672
v 0.090847 0.039545 -0.157443
v -0.202529 0.022048 0.062448
v -0.223996 -0.128080 -0.420495
v -0.307220 -0.135557 -0.355903
v -0.378632 -0.135209 -0.279445
v -0.116100 0.058364 0.054539
v -0.024985 0.069117 0.002865
v 0.052775 0.063065 -0.070602
v 0.071759 -0.010358 -0.265855
v 0.047128 -0.063234 -0.356314
v -0.027074 -0.105208 -0.423213
v -0.398568 -0.089083 -0.083033
v -0.369883 -0.051150 0.016618
v -0.307083 -0.016521 0.064369
v -0.171103 -0.027266 -0.387955
v -0.107894 0.021826 -0.312999
v -0.049135 0.084691 -0.243928
v -0.271322 0.005557 -0.326907
v -0.225533 0.074593 -0.254117
v -0.123117 0.090678 -0.150253
v -0.361413 -0.002202 -0.235295
v -0.310772 0.041938 -0.155165
v -0.244083 0.086242 -0.081565
v -0.138325 -0.104602 -0.385490
v -0.348782 -0.081274 -0.202955
v -0.003185 0.018472 -0.211437
v -0.217934 0.016632 -0.045723
v -0.047434 -0.013431 -0.252254
v -0.082106 -0.039405 -0.289142
v -0.113868 -0.065882 -0.326684
v -0.320806 -0.055339 -0.166322
v -0.297921 -0.030136 -0.113851
v -0.256651 -0.003694 -0.066254
v -0.199208 -0.098640 -0.339490
v -0.246889 -0.090538 -0.298004
v -0.305624 -0.081559 -0.244153
v -0.167822 0.017019 -0.088260
v -0.116948 0.016001 -0.130198
v -0.065802 0.014482 -0.171923
v -0.269689 -0.051203 -0.208441
v -0.219531 -0.055356 -0.249347
v -0.165985 -0.061294 -0.289190
v -0.243716 -0.028269 -0.164676
v -0.187747 -0.031355 -0.209078
v -0.125475 -0.035656 -0.252112
v -0.205816 -0.004459 -0.121035
v -0.150355 -0.006609 -0.165836
v -0.093990 -0.010424 -0.209928
vn -0.3017 0.8273 0.4739
vn 0.3717 0.9241 -0.0891
vn 0.1452 0.9877 0.0588
vn 0.0242 0.9853 0.1690
vn -0.6957 0.2965 -0.6543
vn -0.5017 0.8154 -0.2889
vn -0.2489 0.9642 -0.0918
vn -0.4917 0.3664 -0.7899
vn -0.0284 0.7899 -0.6125
vn -0.0299 0.9197 -0.3916
vn -0.0512 0.3383 -0.9396
vn 0.2259 0.7049 -0.6724
vn 0.3112 0.6859 -0.6578
vn -0.8125 0.5755 0.0929
vn -0.6474 0.7302 0.2182
vn 0.2864 -0.9095 0.3014
vn 0.3531 -0.8635 0.3601
vn 0.3108 -0.9038 0.2943
vn 0.2777 -0.9228 0.2671
vn 0.2557 -0.8950 0.3656
vn 0.2060 -0.9079 0.3651
vn 0.2175 -0.9201 0.3257
vn 0.2317 -0.8885 0.3961
vn 0.1997 -0.8989 0.3901
vn 0.2227 -0.9083 0.3541
vn 0.2582 -0.8513 0.4568
vn 0.2558 -0.8477 0.4647
vn 0.2851 -0.8487 0.4454
vn 0.2875 -0.8825 0.3723
vn 0.2499 -0.8953 0.3688
vn 0.2441 -0.9110 0.3326
vn 0.2475 -0.9192 0.3064
vn 0.3287 -0.8609 0.3883
vn 0.4560 -0.8137 0.3605
vn 0.4829 -0.8597 0.1666
vn 0.5171 -0.8377 0.1756
vn 0.4271 -0.8977 0.1079
vn 0.3721 -0.9268 0.0513
vn 0.3032 -0.9455 0.1190
vn 0.2191 -0.9475 0.2328
vn 0.1853 -0.9449 0.2699
vn 0.1468 -0.9528 0.2659
vn 0.0400 -0.8828 0.4681
vn 0.1085 -0.8678 0.4849
vn 0.1171 -0.8813 0.4579
vn 0.1694 -0.8833 0.4370
vn 0.1058 -0.9465 0.3050
vn -0.8668 0.4916 0.0835
vn -0.8983 0.2289 -0.3751
vn 0.5198 0.7367 -0.4325
vn 0.3036 -0.8346 -0.4596
vn -0.3580 -0.9289 0.0946
vn -0.1330 -0.9899 -0.0495
vn -0.0174 -0.9877 -0.1553
vn 0.6927 -0.3082 0.6520
vn 0.5011 -0.8161 0.2880
vn 0.2481 -0.9644 0.0918
vn 0.4867 -0.3789 0.7871
vn 0.0266 -0.7902 0.6122
vn 0.0300 -0.9195 0.3918
vn 0.0541 -0.3548 0.9334
vn -0.2143 -0.7143 0.6662
vn -0.2966 -0.6926 0.6575
vn 0.8048 -0.5872 -0.0870
vn 0.6433 -0.7370 -0.2071
vn -0.2866 0.9096 -0.3009
vn -0.3533 0.8636 -0.3598
vn -0.3111 0.9037 -0.2941
vn -0.2781 0.9227 -0.2669
vn -0.2555 0.8949 -0.3658
vn -0.2060 0.9079 -0.3651
vn -0.2175 0.9201 -0.3257
vn -0.2316 0.8885 -0.3962
vn -0.1997 0.8988 -0.3902
vn -0.2227 0.9083 -0.3542
vn -0.2582 0.8512 -0.4570
vn -0.2558 0.8477 -0.4647
vn -0.2852 0.8487 -0.4454
vn -0.2870 0.8826 -0.3723
vn -0.2499 0.8953 -0.3687
vn -0.2440 0.9110 -0.3324
vn -0.2607 0.9083 -0.3271
vn -0.3443 0.8473 -0.4045
vn -0.4816 0.7937 -0.3717
vn -0.5051 0.8491 -0.1544
vn -0.5352 0.8289 -0.1626
vn -0.4408 0.8930 -0.0909
vn -0.3771 0.9258 -0.0266
vn -0.2923 0.9512 -0.0991
vn -0.2089 0.9534 -0.2177
vn -0.1735 0.9508 -0.2567
vn -0.1301 0.9590 -0.2519
vn -0.0090 0.8784 -0.4778
vn -0.0885 0.8648 -0.4943
vn -0.1012 0.8760 -0.4715
vn -0.1512 0.8750 -0.4599
vn -0.1191 0.9345 -0.3353
vn 0.8610 -0.5027 -0.0768
vn 0.8948 -0.2406 0.3760
vn -0.5075 -0.7453 0.4324
vt 0.726661 0.720901
vt 0.958009 0.668853
vt 0.847198 0.826007
vt 0.700033 0.932777
vt 0.287073 0.720855
vt 0.318299 0.929810
vt 0.170545 0.833355
vt 0.506845 0.720914
vt 0.507019 0.980355
vt 0.507026 0.019645
vt 0.688201 0.071934
vt 0.726710 0.281204
vt 0.506850 0.281290
vt 0.726705 0.501022
vt 0.506905 0.501008
vt 0.320447 0.067137
vt 0.287014 0.281333
vt 0.287096 0.501007
vt 0.191046 0.184018
vt 0.068351 0.328989
vt 0.035962 0.489972
vt 0.049770 0.664150
vt 0.963408 0.312033
vt 0.964038 0.506943
vt 0.630465 0.623060
vt 0.630465 0.746358
vt 0.753763 0.746358
vt 0.753763 0.623060
vt 0.630465 0.253169
vt 0.630465 0.376466
vt 0.753763 0.376466
vt 0.753763 0.253169
vt 0.630465 0.499763
vt 0.753763 0.499763
vt 0.260573 0.499763
vt 0.260573 0.623060
vt 0.383871 0.623060
vt 0.383871 0.499763
vt 0.507168 0.623060
vt 0.507168 0.499763
vt 0.260573 0.376466
vt 0.383871 0.376466
vt 0.507168 0.376466
vt 0.260573 0.253169
vt 0.383871 0.253169
vt 0.507168 0.253169
vt 0.260573 0.746358
vt 0.383871 0.746358
vt 0.507168 0.746358
vt 0.823002 0.184022
s 0
g off
f 25/1/1 16/2/1 4/3/1 8/4/1
f 19/5/2 10/6/2 3/7/2
f 19/5/3 22/8/3 9/9/3 10/6/3
f 22/8/4 25/1/4 8/4/4 9/9/4
f 6/10/5 7/11/5 23/12/5 20/13/5
f 20/13/6 23/12/6 24/14/6 21/15/6
f 21/15/7 24/14/7 25/1/7 22/8/7
f 5/16/8 6/10/8 20/13/8 17/17/8
f 17/17/9 20/13/9 21/15/9 18/18/9
f 18/18/10 21/15/10 22/8/10 19/5/10
f 1/19/11 5/16/11 17/17/11 13/20/11
f 13/20/12 17/17/12 18/18/12 12/21/12
f 12/21/13 18/18/13 19/5/13 11/22/13
f 23/12/14 14/23/14 15/24/14 24/14/14
f 24/14/15 15/24/15 16/2/15 25/1/15
f 48/25/16 39/26/16 29/27/16 35/28/16
f 38/29/17 42/30/17 33/31/17 27/32/17
f 42/30/18 45/33/18 34/34/18 33/31/18
f 45/33/19 48/25/19 35/28/19 34/34/19
f 31/35/20 30/36/20 50/37/20 47/38/20
f 47/38/21 50/37/21 49/39/21 46/40/21
f 46/40/22 49/39/22 48/25/22 45/33/22
f 32/41/23 31/35/23 47/38/23 44/42/23
f 44/42/24 47/38/24 46/40/24 43/43/24
f 43/43/25 46/40/25 45/33/25 42/30/25
f 26/44/26 32/41/26 44/42/26 36/45/26
f 36/45/27 44/42/27 43/43/27 37/46/27
f 37/46/28 43/43/28 42/30/28 38/29/28
f 30/36/29 28/47/29 41/48/29 50/37/29
f 50/37/30 41/48/30 40/49/30 49/39/30
f 49/39/31 40/49/31 39/26/31 48/25/31
f 5/16/32 36/45/32 37/46/32 6/10/32
f 6/10/33 37/46/33 38/29/33 7/11/33
f 7/11/34 38/29/34 27/32/34 2/50/34
f 2/50/35 27/32/35 33/31/35 14/23/35
f 14/23/36 33/31/36 34/34/36 15/24/36
f 15/24/37 34/34/37 35/28/37 16/2/37
f 16/2/38 35/28/38 29/27/38 4/3/38
f 4/3/39 29/27/39 39/26/39 8/4/39
f 8/4/40 39/26/40 40/49/40 9/9/40
f 9/9/41 40/49/41 41/48/41 10/6/41
f 10/6/42 41/48/42 28/47/42 3/7/42
f 3/7/43 28/47/43 30/36/43 11/22/43
f 11/22/44 30/36/44 31/35/44 12/21/44
f 12/21/45 31/35/45 32/41/45 13/20/45
f 13/20/46 32/41/46 26/44/46 1/19/46
f 1/19/47 26/44/47 36/45/47 5/16/47
f 2/50/48 14/23/48 23/12/48
f 7/11/49 2/50/49 23/12/49
f 11/22/50 19/5/50 3/7/50
f 75/1/51 58/4/51 54/3/51 66/2/51
f 69/5/52 53/7/52 60/6/52
f 69/5/53 60/6/53 59/9/53 72/8/53
f 72/8/54 59/9/54 58/4/54 75/1/54
f 56/10/55 70/13/55 73/12/55 57/11/55
f 70/13/56 71/15/56 74/14/56 73/12/56
f 71/15/57 72/8/57 75/1/57 74/14/57
f 55/16/58 67/17/58 70/13/58 56/10/58
f 67/17/59 68/18/59 71/15/59 70/13/59
f 68/18/60 69/5/60 72/8/60 71/15/60
f 51/19/61 63/20/61 67/17/61 55/16/61
f 63/20/62 62/21/62 68/18/62 67/17/62
f 62/21/63 61/22/63 69/5/63 68/18/63
f 73/12/64 74/14/64 65/24/64 64/23/64
f 74/14/65 75/1/65 66/2/65 65/24/65
f 98/25/66 85/28/66 79/27/66 89/26/66
f 88/29/67 77/32/67 83/31/67 92/30/67
f 92/30/68 83/31/68 84/34/68 95/33/68
f 95/33/69 84/34/69 85/28/69 98/25/69
f 81/35/70 97/38/70 100/37/70 80/36/70
f 97/38/71 96/40/71 99/39/71 100/37/71
f 96/40/72 95/33/72 98/25/72 99/39/72
f 82/41/73 94/42/73 97/38/73 81/35/73
f 94/42/74 93/43/74 96/40/74 97/38/74
f 93/43/75 92/30/75 95/33/75 96/40/75
f 76/44/76 86/45/76 94/42/76 82/41/76
f 86/45/77 87/46/77 93/43/77 94/42/77
f 87/46/78 88/29/78 92/30/78 93/43/78
f 80/36/79 100/37/79 91/48/79 78/47/79
f 100/37/80 99/39/80 90/49/80 91/48/80
f 99/39/81 98/25/81 89/26/81 90/49/81
f 55/16/82 56/10/82 87/46/82 86/45/82
f 56/10/83 57/11/83 88/29/83 87/46/83
f 57/11/84 52/50/84 77/32/84 88/29/84
f 52/50/85 64/23/85 83/31/85 77/32/85
f 64/23/86 65/24/86 84/34/86 83/31/86
f 65/24/87 66/2/87 85/28/87 84/34/87
f 66/2/88 54/3/88 79/27/88 85/28/88
f 54/3/89 58/4/89 89/26/89 79/27/89
f 58/4/90 59/9/90 90/49/90 89/26/90
f 59/9/91 60/6/91 91/48/91 90/49/91
f 60/6/92 53/7/92 78/47/92 91/48/92
f 53/7/93 61/22/93 80/36/93 78/47/93
f 61/22/94 62/21/94 81/35/94 80/36/94
f 62/21/95 63/20/95 82/41/95 81/35/95
f 63/20/96 51/19/96 76/44/96 82/41/96
f 51/19/97 55/16/97 86/45/97 76/44/97
f 52/50/98 73/12/98 64/23/98
f 57/11/99 73/12/99 52/50/99
f 61/22/100 53/7/100 69/5/100
o Cylinder.009
v 0.458661 0.011462 0.545825
v -0.231545 0.106408 0.008711
v 0.492377 0.000109 0.502438
v -0.149258 0.118887 -0.220731
v 0.431358 -0.029430 0.555429
v -0.480150 -0.024971 -0.038362
v 0.441492 -0.031322 0.573344
v -0.506617 -0.125752 -0.169710
v 0.470190 -0.036828 0.521859
v -0.308528 -0.166938 -0.366336
v 0.545870 -0.023166 0.520052
v -0.035801 -0.125727 -0.514646
v 0.529390 -0.014125 0.528405
v 0.030704 -0.036983 -0.405026
v 0.492021 0.012830 0.527459
v -0.048323 0.132735 -0.273038
v 0.022235 0.071598 0.146922
v 0.113100 0.038664 0.070406
v -0.095629 -0.026138 0.246976
v -0.066749 -0.083905 0.219556
v 0.144304 -0.099325 0.169090
v 0.265646 -0.082642 -0.024113
v 0.228923 -0.022462 -0.075209
v 0.203921 0.077839 -0.005819
v 0.442332 0.008490 0.553470
v -0.339955 0.110081 -0.098622
v -0.015481 0.032807 0.188831
v 0.459921 0.008522 0.544030
v -0.229472 0.109040 0.007352
v 0.495057 0.000751 0.500434
v -0.148944 0.115317 -0.221965
v 0.433154 -0.029668 0.552557
v -0.478207 -0.024016 -0.041014
v 0.441976 -0.027745 0.572181
v -0.505982 -0.122157 -0.170750
v 0.469942 -0.032999 0.521581
v -0.308669 -0.163100 -0.366583
v 0.542875 -0.022240 0.521425
v -0.036984 -0.122157 -0.514174
v 0.526792 -0.016088 0.529736
v 0.027928 -0.037955 -0.403272
v 0.490397 0.009519 0.528068
v -0.049761 0.129346 -0.272305
v 0.024617 0.071330 0.144515
v 0.115477 0.038254 0.068010
v -0.093752 -0.026653 0.244184
v -0.065829 -0.080631 0.218022
v 0.144111 -0.095492 0.168811
v 0.263025 -0.080631 -0.022886
v 0.226263 -0.024016 -0.073608
v 0.202441 0.074441 -0.005216
v 0.442852 0.004842 0.552514
v -0.339379 0.106574 -0.099901
v -0.014942 0.029233 0.187686
vn -0.1859 -0.9818 -0.0396
vn -0.3634 0.7501 0.5526
vn -0.4750 -0.6263 0.6182
vn -0.0417 -0.9867 0.1570
vn 0.1453 -0.9894 -0.0001
vn 0.8525 0.0345 -0.5216
vn 0.6601 0.5957 -0.4577
vn 0.0693 0.9888 0.1323
vn 0.0439 0.9941 0.0994
vn 0.7472 0.5593 -0.3590
vn 0.8229 0.3622 -0.4377
vn 0.1704 -0.9852 0.0188
vn -0.0118 -0.9846 0.1743
vn -0.4716 -0.4310 0.7693
vn -0.3787 0.7184 0.5836
vn -0.2333 -0.9657 0.1143
vn 0.0445 0.9985 0.0320
vn 0.0884 0.9802 0.1771
vn 0.1968 0.9801 0.0244
vn 0.3575 -0.7563 -0.5480
vn 0.4730 0.6308 -0.6151
vn 0.0412 0.9868 -0.1563
vn -0.1422 0.9898 -0.0009
vn -0.8521 -0.0522 0.5208
vn -0.6603 -0.5955 0.4576
vn -0.0828 -0.9890 -0.1229
vn -0.0548 -0.9941 -0.0936
vn -0.7487 -0.5568 0.3597
vn -0.8121 -0.3910 0.4333
vn -0.1581 0.9871 -0.0263
vn 0.0106 0.9848 -0.1732
vn 0.4721 0.4299 -0.7696
vn 0.3739 -0.7266 -0.5764
vn 0.2204 0.9704 -0.0988
vn -0.0231 -0.9983 -0.0532
vn -0.0810 -0.9804 -0.1795
vn -0.7391 -0.4712 -0.4814
vn 0.5642 0.7922 0.2326
vn 0.7126 0.0711 0.6980
vn -0.6457 0.3815 -0.6615
vn -0.5849 0.7556 0.2947
vn -0.9033 0.4104 -0.1250
vn 0.8754 0.0653 0.4790
vn -0.7102 -0.0740 -0.7001
vn 0.0450 -0.1948 0.9798
vn -0.4701 -0.0572 -0.8808
vn 0.4408 -0.0389 0.8968
vn 0.1202 0.7451 -0.6560
vn 0.1386 0.2423 0.9602
vn -0.6661 0.2410 -0.7059
vn 0.4704 -0.1909 0.8616
vn -0.8084 -0.2302 -0.5417
vn 0.7401 -0.1934 0.6441
vn -0.5331 0.2229 -0.8162
vt 0.727341 0.308774
vt 0.727341 0.988886
vt 0.638279 0.988886
vt 0.638279 0.308774
vt 0.580741 0.305170
vt 0.585031 0.970495
vt 0.549217 0.988886
vt 0.549217 0.308774
vt 0.460156 0.988886
vt 0.460156 0.308774
vt 0.371094 0.988886
vt 0.371094 0.308774
vt 0.310156 0.984658
vt 0.310156 0.304546
vt 0.253905 0.986450
vt 0.253905 0.306338
vt 0.136720 0.990678
vt 0.136720 0.310566
vt 0.014846 0.988886
vt 0.014846 0.308774
vt 0.103908 -0.002211
vt 0.014846 -0.002211
vt 0.192970 -0.002211
vt 0.282032 -0.002211
vt 0.371094 -0.002211
vt 0.460156 -0.002211
vt 0.549217 -0.002211
vt 0.562144 -0.005820
vt 0.727341 -0.002211
vt 0.638279 -0.002211
s 0
g off
f 117/51/101 102/52/101 104/53/101 118/54/101
f 127/55/102 126/56/102 106/57/102 119/58/102
f 119/58/103 106/57/103 108/59/103 120/60/103
f 120/60/104 108/59/104 110/61/104 121/62/104
f 121/62/105 110/61/105 112/63/105 122/64/105
f 122/64/106 112/63/106 114/65/106 123/66/106
f 123/66/107 114/65/107 116/67/107 124/68/107
f 124/68/108 116/67/108 102/69/108 117/70/108
f 115/71/109 124/68/109 117/70/109 101/72/109
f 113/73/110 123/66/110 124/68/110 115/71/110
f 111/74/111 122/64/111 123/66/111 113/73/111
f 109/75/112 121/62/112 122/64/112 111/74/112
f 107/76/113 120/60/113 121/62/113 109/75/113
f 105/77/114 119/58/114 120/60/114 107/76/114
f 125/78/115 127/55/115 119/58/115 105/77/115
f 101/79/116 117/51/116 118/54/116 103/80/116
f 103/80/117 118/54/117 127/55/117 125/78/117
f 118/54/118 104/53/118 126/56/118 127/55/118
f 144/51/119 145/54/119 131/53/119 129/52/119
f 154/55/120 146/58/120 133/57/120 153/56/120
f 146/58/121 147/60/121 135/59/121 133/57/121
f 147/60/122 148/62/122 137/61/122 135/59/122
f 148/62/123 149/64/123 139/63/123 137/61/123
f 149/64/124 150/66/124 141/65/124 139/63/124
f 150/66/125 151/68/125 143/67/125 141/65/125
f 151/68/126 144/70/126 129/69/126 143/67/126
f 142/71/127 128/72/127 144/70/127 151/68/127
f 140/73/128 142/71/128 151/68/128 150/66/128
f 138/74/129 140/73/129 150/66/129 149/64/129
f 136/75/130 138/74/130 149/64/130 148/62/130
f 134/76/131 136/75/131 148/62/131 147/60/131
f 132/77/132 134/76/132 147/60/132 146/58/132
f 152/78/133 132/77/133 146/58/133 154/55/133
f 128/79/134 130/80/134 145/54/134 144/51/134
f 130/80/135 152/78/135 154/55/135 145/54/135
f 145/54/136 154/55/136 153/56/136 131/53/136
f 101/79/137 103/80/137 130/80/137 128/79/137
f 104/53/138 102/52/138 129/52/138 131/53/138
f 103/80/139 125/78/139 152/78/139 130/80/139
f 106/57/140 126/56/140 153/56/140 133/57/140
f 105/77/141 107/76/141 134/76/141 132/77/141
f 108/59/142 106/57/142 133/57/142 135/59/142
f 107/76/143 109/75/143 136/75/143 134/76/143
f 110/61/144 108/59/144 135/59/144 137/61/144
f 109/75/145 111/74/145 138/74/145 136/75/145
f 112/63/146 110/61/146 137/61/146 139/63/146
f 111/74/147 113/73/147 140/73/147 138/74/147
f 114/65/148 112/63/148 139/63/148 141/65/148
f 113/73/149 115/71/149 142/71/149 140/73/149
f 116/67/150 114/65/150 141/65/150 143/67/150
f 115/71/151 101/72/151 128/72/151 142/71/151
f 102/69/152 116/67/152 143/67/152 129/69/152
f 125/78/153 105/77/153 132/77/153 152/78/153
f 126/56/154 104/53/154 131/53/154 153/56/154
