# Blender 5.1.0
# www.blender.org
o Cube.008
v 0.198199 -0.459692 -0.105144
v 0.105454 0.517609 -0.055944
v 0.198199 -0.459692 0.105144
v 0.105454 0.517609 0.055944
v -0.198200 -0.458936 -0.105144
v -0.105456 0.517609 -0.055944
v -0.198200 -0.458936 0.105144
v -0.105456 0.517609 0.055944
v 0.269511 0.149456 -0.142974
v 0.269511 0.149456 0.142974
v -0.269510 0.149456 0.142974
v -0.269510 0.149456 -0.142974
v 0.248017 -0.267664 0.103903
v -0.251796 -0.269176 0.103903
v -0.251796 -0.269176 -0.103903
v 0.248017 -0.267664 -0.103903
v 0.269909 -0.332150 0.120730
v -0.269909 -0.332906 0.120730
v -0.269909 -0.332906 -0.120730
v 0.269909 -0.332150 -0.120730
v 0.251007 0.238118 -0.133159
v 0.251007 0.238118 0.133159
v -0.253275 0.239629 0.133159
v -0.253275 0.239629 -0.133159
v 0.146790 0.344436 -0.061430
v 0.146790 0.344436 0.061430
v -0.159640 0.342924 0.061430
v -0.159640 0.342924 -0.061430
v 0.248358 -0.411193 0.120124
v -0.255917 -0.410437 0.120124
v -0.255917 -0.410437 -0.120124
v 0.248358 -0.411193 -0.120124
v 0.227870 -0.188989 -0.105245
v 0.227870 -0.188989 0.105245
v -0.238452 -0.196548 0.105245
v -0.238452 -0.196548 -0.105245
v 0.271160 0.193787 0.143849
v -0.271159 0.193787 0.143849
v -0.271159 0.193787 -0.143849
v 0.271160 0.193787 -0.143849
v 0.261052 0.080702 -0.112610
v 0.261052 0.080702 0.112610
v -0.263201 0.079166 0.112610
v -0.263201 0.079166 -0.112610
v 0.119549 0.519878 -0.063421
v 0.119549 0.519878 0.063421
v -0.119551 0.519878 0.063421
v -0.119551 0.519878 -0.063421
v 0.119549 0.619092 -0.063421
v 0.119549 0.619092 0.063421
v -0.119551 0.619092 0.063421
v -0.119551 0.619092 -0.063421
vn 0.9727 0.2322 -0.0000
vn -0.0001 0.0315 0.9995
vn -0.9551 0.2963 -0.0000
vn -0.0001 0.0315 -0.9995
vn -0.0019 -1.0000 -0.0000
vn -0.0000 -0.9569 -0.2904
vn 0.0006 -0.4003 -0.9164
vn -0.9960 -0.0894 -0.0000
vn 0.0006 -0.4003 0.9164
vn 0.9925 -0.1221 -0.0000
vn 0.9469 0.3215 -0.0000
vn -0.0006 0.2539 0.9672
vn -0.9619 0.2734 -0.0000
vn -0.0006 0.2539 -0.9672
vn -0.0000 -0.0077 -1.0000
vn -0.9841 -0.1776 -0.0000
vn -0.0000 -0.0077 1.0000
vn 0.9648 -0.2631 -0.0000
vn 0.0003 0.2307 -0.9730
vn -0.9316 0.3635 -0.0000
vn 0.0003 0.2307 0.9730
vn 0.9103 0.4138 -0.0000
vn -0.0000 0.5648 -0.8252
vn -0.7409 0.6716 -0.0000
vn -0.0000 0.5648 0.8252
vn 0.7141 0.7000 -0.0000
vn 0.6951 -0.7189 -0.0000
vn -0.0005 -0.2951 0.9555
vn -0.6433 -0.7656 -0.0000
vn -0.0005 -0.2951 -0.9555
vn 0.9687 0.2481 -0.0000
vn 0.0002 -0.0177 0.9998
vn -0.9835 0.1807 -0.0000
vn 0.0002 -0.0177 -0.9998
vn 0.9993 -0.0372 -0.0000
vn -0.0000 -0.0197 0.9998
vn -0.9993 -0.0372 -0.0000
vn -0.0000 -0.0197 -0.9998
vn 0.0002 -0.0270 0.9996
vn 0.0002 -0.0270 -0.9996
vn -1.0000 -0.0000 -0.0000
vn -0.0000 -0.9569 0.2904
vn -0.1589 -0.9873 -0.0000
vn 0.1589 -0.9873 -0.0000
vn -0.0000 1.0000 -0.0000
vn 1.0000 -0.0000 -0.0000
vn -0.0000 -0.0000 -1.0000
vn -0.0000 -0.0000 1.0000
vt 0.219503 0.667843
vt 0.186195 0.672659
vt 0.189073 0.700604
vt 0.222663 0.698529
vt 0.165783 0.749210
vt 0.191406 0.886719
vt 0.382812 0.882812
vt 0.408436 0.749210
vt 0.222955 0.698499
vt 0.219795 0.667813
vt 0.680290 0.748167
vt 0.936897 0.748167
vt 0.936897 0.572146
vt 0.680290 0.572146
vt 0.515908 0.535152
vt 0.523438 0.601562
vt 0.046875 0.597656
vt 0.053809 0.533024
vt 0.275802 0.711703
vt 0.262423 0.715015
vt 0.255066 0.643598
vt 0.268840 0.644114
vt 0.053809 0.533024
vt 0.268543 0.644144
vt 0.275505 0.711733
vt 0.348662 0.639571
vt 0.336640 0.645057
vt 0.341986 0.696958
vt 0.354874 0.699877
vt 0.042969 0.132812
vt 0.072558 0.204570
vt 0.491172 0.203770
vt 0.523438 0.128906
vt 0.355020 0.699862
vt 0.342278 0.696928
vt 0.336932 0.645027
vt 0.348808 0.639556
vt 0.491172 0.203770
vt 0.072558 0.204570
vt 0.500000 0.070312
vt 0.070312 0.070312
vt 0.369980 0.698169
vt 0.363799 0.638165
vt 0.363945 0.638150
vt 0.370126 0.698153
vt 0.519531 0.640625
vt 0.477800 0.675781
vt 0.092513 0.675781
vt 0.050781 0.636719
vt 0.255355 0.716827
vt 0.246630 0.715147
vt 0.237901 0.647844
vt 0.246481 0.644261
vt 0.238193 0.647814
vt 0.246909 0.715118
vt 0.373699 0.640926
vt 0.379109 0.693447
vt 0.113281 0.035156
vt 0.457031 0.035156
vt 0.378963 0.693462
vt 0.373553 0.640941
vt 0.321409 0.646287
vt 0.326824 0.698858
vt 0.081006 0.279502
vt 0.486373 0.274653
vt 0.328284 0.698708
vt 0.322869 0.646137
vt 0.486372 0.274653
vt 0.757372 0.508358
vt 0.639674 0.508358
vt 0.639674 0.579555
vt 0.757372 0.579555
vt 0.876860 0.706983
vt 0.740328 0.706983
vt 0.740328 0.613329
vt 0.876860 0.613329
vt 0.200679 0.906353
vt 0.369633 0.906353
vt 0.369633 0.976460
vt 0.200679 0.976460
s 0
f 25/1/1 2/2/1 4/3/1 26/4/1
f 26/5/2 4/6/2 8/7/2 27/8/2
f 27/9/3 8/3/3 6/2/3 28/10/3
f 28/8/4 6/7/4 2/6/4 25/5/4
f 3/11/5 7/12/5 5/13/5 1/14/5
f 2/6/6 6/7/6 48/7/6 45/6/6
f 44/15/7 12/16/7 9/17/7 41/18/7
f 43/19/8 11/20/8 12/21/8 44/22/8
f 42/23/9 10/17/9 11/16/9 43/15/9
f 41/24/10 9/21/10 10/20/10 42/25/10
f 20/26/11 16/27/11 13/28/11 17/29/11
f 17/30/12 13/31/12 14/32/12 18/33/12
f 18/34/13 14/35/13 15/36/13 19/37/13
f 19/33/14 15/38/14 16/39/14 20/30/14
f 31/40/15 19/33/15 20/30/15 32/41/15
f 30/42/16 18/34/16 19/37/16 31/43/16
f 29/41/17 17/30/17 18/33/17 30/40/17
f 32/44/18 20/26/18 17/29/18 29/45/18
f 39/46/19 24/47/19 21/48/19 40/49/19
f 38/50/20 23/51/20 24/52/20 39/53/20
f 37/49/21 22/48/21 23/47/21 38/46/21
f 40/53/22 21/54/22 22/55/22 37/50/22
f 24/47/23 28/8/23 25/5/23 21/48/23
f 23/51/24 27/9/24 28/10/24 24/52/24
f 22/48/25 26/5/25 27/8/25 23/47/25
f 21/54/26 25/1/26 26/4/26 22/55/26
f 1/56/27 32/44/27 29/45/27 3/57/27
f 3/58/28 29/41/28 30/40/28 7/59/28
f 7/60/29 30/42/29 31/43/29 5/61/29
f 5/59/30 31/40/30 32/41/30 1/58/30
f 16/27/31 33/62/31 34/63/31 13/28/31
f 13/31/32 34/64/32 35/65/32 14/32/32
f 14/35/33 35/66/33 36/67/33 15/36/33
f 15/38/34 36/68/34 33/64/34 16/39/34
f 9/21/35 40/53/35 37/50/35 10/20/35
f 10/17/36 37/49/36 38/46/36 11/16/36
f 11/20/37 38/50/37 39/53/37 12/21/37
f 12/16/38 39/46/38 40/49/38 9/17/38
f 33/62/10 41/24/10 42/25/10 34/63/10
f 34/64/39 42/23/39 43/15/39 35/65/39
f 35/66/8 43/19/8 44/22/8 36/67/8
f 36/68/40 44/15/40 41/18/40 33/64/40
f 48/69/41 47/70/41 51/71/41 52/72/41
f 8/7/42 4/6/42 46/6/42 47/7/42
f 6/2/43 8/3/43 47/3/43 48/2/43
f 4/3/44 2/2/44 45/2/44 46/3/44
f 51/73/45 50/74/45 49/75/45 52/76/45
f 46/70/46 45/69/46 49/72/46 50/71/46
f 45/77/47 48/78/47 52/79/47 49/80/47
f 47/78/48 46/77/48 50/80/48 51/79/48
