# Blender 5.1.0
# www.blender.org
o Finger
v 0.203461 -0.102139 -0.074772
v 0.236953 0.081294 -0.083016
v 0.203461 -0.102139 0.074772
v 0.236953 0.081294 0.073024
v -0.258180 -0.102139 -0.102139
v -0.262098 0.102139 -0.102139
v -0.256166 -0.102139 0.102139
v -0.260428 0.102139 0.102139
v 0.293155 0.035141 -0.098413
v 0.289902 0.035141 0.097762
v -0.256604 0.035141 0.127488
v -0.259446 0.035141 -0.127488
v 0.064911 -0.102139 0.082600
v 0.098319 0.102139 0.099893
v 0.064911 -0.102139 -0.082600
v 0.098319 0.102139 -0.099893
v 0.122719 0.035141 -0.124684
v 0.122719 0.035141 0.124684
v 0.283477 -0.033499 0.092576
v -0.261452 -0.033499 0.114814
v -0.262882 -0.033499 -0.114814
v 0.286731 -0.033499 -0.093227
v 0.110519 -0.033499 0.125212
v 0.110519 -0.033499 -0.125212
v 0.203461 -0.102139 0.024924
v 0.203461 -0.102139 -0.024924
v 0.236953 0.081294 -0.027672
v 0.236953 0.081294 0.027672
v -0.251954 -0.102139 -0.034046
v -0.248951 -0.102139 0.034046
v -0.266220 0.102139 0.034046
v -0.274400 0.102139 -0.034046
v -0.249225 0.046614 0.045804
v -0.252964 0.046638 -0.045790
v 0.329671 0.035141 -0.034540
v 0.329671 0.035141 0.034540
v 0.098319 0.102139 0.033298
v 0.098319 0.102139 -0.033298
v 0.064911 -0.102139 0.027533
v 0.064911 -0.102139 -0.027533
v 0.323246 -0.033499 -0.032811
v 0.323246 -0.033499 0.032811
v -0.252650 -0.044996 0.045790
v -0.254781 -0.044972 -0.045804
v -0.081055 0.102139 0.101016
v -0.096635 -0.102139 -0.092370
v -0.066943 0.035141 0.126086
v -0.095628 -0.102139 0.092370
v -0.081889 0.102139 -0.101016
v -0.068363 0.035141 -0.126086
v -0.076185 -0.033499 -0.120013
v -0.075469 -0.033499 0.120013
v -0.084030 0.102139 0.033672
v -0.088138 0.102139 -0.033672
v -0.092413 -0.102139 0.030790
v -0.093861 -0.102139 -0.030790
v 0.159959 -0.102139 0.077230
v 0.193425 0.087839 -0.088315
v 0.239642 0.035141 -0.106661
v 0.193425 0.087839 0.081460
v 0.159959 -0.102139 -0.077230
v 0.237410 0.035141 0.106215
v 0.229171 -0.033499 0.102823
v 0.231404 -0.033499 -0.103269
v 0.159959 -0.102139 0.025743
v 0.159959 -0.102139 -0.025743
v 0.193425 0.087839 0.029438
v 0.193425 0.087839 -0.029438
v 0.203461 -0.102139 0.000000
v 0.236953 0.081294 0.000000
v -0.250273 -0.102139 0.000000
v -0.269911 0.102139 0.000000
v -0.252516 0.065599 0.000010
v 0.329671 0.035141 0.000000
v 0.098319 0.102139 -0.000000
v 0.064911 -0.102139 0.000000
v 0.323246 -0.033499 0.000000
v -0.251548 -0.063957 -0.000010
v -0.093137 -0.102139 0.000000
v -0.086084 0.102139 -0.000000
v 0.193425 0.087839 0.000000
v 0.159959 -0.102139 0.000000
v 0.289943 0.000821 -0.095820
v 0.286689 0.000821 0.095169
v -0.258864 0.000821 0.121151
v -0.260959 0.000821 -0.121151
v 0.116619 0.000821 0.124948
v 0.116619 0.000821 -0.124948
v 0.326459 0.000821 -0.033675
v 0.326459 0.000821 0.033675
v -0.251061 0.000804 0.064766
v -0.254887 0.000838 -0.064766
v -0.072274 0.000821 -0.123049
v -0.071206 0.000821 0.123049
v 0.233291 0.000821 0.104519
v 0.235523 0.000821 -0.104965
v 0.326459 0.000821 0.000000
v -0.320053 0.066691 0.003402
v -0.325108 0.048283 -0.043146
v -0.318570 -0.064226 0.003382
v -0.331137 -0.046486 -0.044823
v -0.319744 0.001700 0.070118
v -0.315739 -0.046921 0.052000
v -0.329024 0.001735 -0.064683
v -0.318938 0.048128 0.049813
v -0.309527 0.001718 0.003392
vn 0.4978 0.8479 0.1823
vn 0.0064 0.3529 0.9356
vn -0.9823 -0.1859 -0.0239
vn 0.1531 0.4576 -0.8759
vn -0.0000 -1.0000 -0.0000
vn 0.1487 0.9889 -0.0000
vn 0.1586 -0.0784 -0.9842
vn -0.9957 0.0288 0.0881
vn -0.0013 -0.1352 0.9908
vn 0.8384 -0.1054 0.5347
vn 0.1656 -0.0452 0.9852
vn -0.0013 -0.0402 -0.9992
vn -0.0000 1.0000 -0.0000
vn 0.0064 0.3503 -0.9366
vn 0.1840 0.4639 0.8666
vn 0.0117 -0.4600 -0.8879
vn 0.1104 -0.5148 0.8502
vn 0.5382 -0.8199 0.1953
vn 0.0126 -0.2830 0.9590
vn -0.9941 -0.0400 0.1005
vn 0.1139 -0.4201 -0.9003
vn -0.9925 -0.0492 -0.1118
vn -0.9979 -0.0364 0.0528
vn 0.5353 -0.8258 -0.1773
vn 0.4972 -0.8676 -0.0000
vn 0.8604 -0.1056 -0.4986
vn 0.9956 -0.0932 -0.0000
vn -0.9937 0.0340 -0.1065
vn 0.0378 0.9261 0.3753
vn -0.9844 -0.1745 -0.0238
vn -0.9038 -0.4005 0.1510
vn 0.5038 0.8500 -0.1543
vn 0.4456 0.8952 -0.0000
vn 0.0117 -0.4600 0.8879
vn 0.0126 -0.2831 -0.9590
vn 0.0064 0.3528 -0.9357
vn -0.0013 -0.1352 -0.9908
vn -0.0013 -0.0402 0.9992
vn 0.0064 0.3504 0.9366
vn 0.1075 -0.5165 -0.8495
vn 0.1173 -0.4130 0.9031
vn 0.1796 0.5755 0.7978
vn 0.1653 -0.0791 0.9831
vn 0.1589 -0.0442 -0.9863
vn 0.1532 0.4138 -0.8974
vn -0.9367 -0.3501 -0.0013
vn -0.0101 0.4023 -0.9155
vn -0.9984 -0.0540 0.0156
vn 0.0843 -0.3625 0.9282
vn 0.1720 -0.0461 -0.9840
vn 0.1784 -0.0803 0.9807
vn -0.0190 -0.0375 0.9991
vn -0.0187 -0.1337 -0.9908
vn 0.0005 -0.9314 -0.3640
vn -0.9857 0.0954 -0.1393
vn 0.8542 -0.1056 -0.5090
vn -0.0189 -0.0376 -0.9991
vn 0.1788 -0.0471 0.9828
vn 0.8315 -0.1053 0.5454
vn -0.0188 -0.1334 0.9909
vn -0.9913 0.0596 0.1175
vn 0.1717 -0.0797 -0.9819
vn -0.9694 -0.1007 0.2238
vn -0.9899 -0.1040 -0.0967
vn -0.9959 0.0552 -0.0720
vn -0.9485 0.1419 0.2832
vn 0.0421 -0.9329 0.3576
vn 0.0019 0.9269 -0.3752
vn -0.0050 -0.3815 -0.9243
vn 0.0689 0.3891 0.9186
vt 0.042211 0.177835
vt 0.125762 0.179082
vt 0.125358 0.208369
vt 0.058757 0.215518
vt 0.449219 0.195312
vt 0.451327 0.158462
vt 0.682349 0.176794
vt 0.678234 0.209513
vt 0.241883 0.653184
vt 0.269196 0.750721
vt 0.143524 0.750721
vt 0.096742 0.627070
vt 0.122436 0.088537
vt 0.166029 0.109525
vt 0.126748 0.107603
vt 0.079095 0.105448
vt 0.864340 0.356282
vt 0.863813 0.040366
vt 0.924464 0.036328
vt 0.919161 0.354626
vt 0.165532 0.143456
vt 0.126255 0.143342
vt 0.926214 0.636082
vt 0.902172 0.639575
vt 0.903393 0.687846
vt 0.926167 0.686090
vt 0.245781 0.589844
vt 0.108437 0.563730
vt 0.767213 0.448227
vt 0.792987 0.444770
vt 0.794376 0.587376
vt 0.768589 0.589452
vt 0.764301 0.149225
vt 0.790083 0.146558
vt 0.790374 0.176462
vt 0.764592 0.179128
vt 0.764983 0.219278
vt 0.790758 0.215930
vt 0.791598 0.302165
vt 0.765838 0.307002
vt 0.925113 0.357630
vt 0.895148 0.361745
vt 0.899506 0.534106
vt 0.926315 0.526819
vt 0.453125 0.101562
vt 0.233448 0.127203
vt 0.233066 0.096402
vt 0.449219 0.062500
vt 0.862022 0.756733
vt 0.864868 0.672198
vt 0.913858 0.672924
vt 0.907827 0.757412
vt 0.447868 0.036111
vt 0.231534 0.094990
vt 0.215119 0.049733
vt 0.112539 0.213854
vt 0.181173 0.206876
vt 0.217008 0.176785
vt 0.204765 0.208543
vt 0.943483 0.373184
vt 0.951165 0.714062
vt 0.770413 0.755376
vt 0.742230 0.815927
vt 0.730366 0.699505
vt 0.766888 0.670747
vt 0.816373 0.794766
vt 0.798963 0.927350
vt 0.747660 0.869211
vt 0.772026 0.794109
vt 0.754796 0.353087
vt 0.730932 0.365028
vt 0.731497 0.030552
vt 0.742703 0.035427
vt 0.269196 0.373707
vt 0.249680 0.526503
vt 0.120133 0.500389
vt 0.143524 0.373707
vt 0.921997 0.825826
vt 0.908647 0.876978
vt 0.905067 0.796081
vt 0.520538 0.373707
vt 0.543930 0.500389
vt 0.390945 0.526503
vt 0.394867 0.373707
vt 0.332031 0.373707
vt 0.320313 0.526503
vt 0.857343 0.928215
vt 0.860720 0.795424
vt 0.838547 0.795095
vt 0.828153 0.927782
vt 0.815878 0.671472
vt 0.816218 0.756054
vt 0.839120 0.756394
vt 0.840373 0.671835
vt 0.219419 0.179007
vt 0.216378 0.154750
vt 0.454923 0.130601
vt 0.454024 0.116082
vt 0.225690 0.141693
vt 0.232832 0.126636
vt 0.904226 0.720784
vt 0.927000 0.719028
vt 0.921875 0.484375
vt 0.966418 0.482266
vt 0.968541 0.527094
vt 0.923944 0.528081
vt 0.555625 0.563730
vt 0.567321 0.627070
vt 0.398742 0.653184
vt 0.394844 0.589844
vt 0.320312 0.653184
vt 0.165034 0.179523
vt 0.165283 0.161490
vt 0.126009 0.161212
vt 0.803196 0.042044
vt 0.809537 0.356758
vt 0.836939 0.356520
vt 0.833505 0.041205
vt 0.520538 0.750721
vt 0.394867 0.750721
vt 0.332031 0.750721
vt 0.072088 0.098988
vt 0.045160 0.135377
vt 0.042167 0.155206
vt 0.043490 0.179014
vt 0.693522 0.117486
vt 0.698009 0.092912
vt 0.689036 0.142060
vt 0.935802 0.032306
vt 0.683646 0.025281
vt 0.686070 0.059411
vt 0.923911 0.188442
vt 0.890790 0.189383
vt 0.205965 0.209649
vt 0.223606 0.182868
vt 0.224591 0.140680
vt 0.230568 0.124548
vt 0.215854 0.175722
vt 0.215879 0.154290
vt 0.055217 0.212254
vt 0.120208 0.220925
vt 0.232834 0.126638
vt 0.231420 0.094885
vt 0.215897 0.050449
vt 0.233877 0.097150
vt 0.114987 0.081670
vt 0.215346 0.153798
vt 0.226432 0.142377
vt 0.040725 0.131289
vt 0.044129 0.157014
vt 0.919806 0.440669
vt 0.964296 0.437438
vt 0.218735 0.156923
vt 0.223905 0.140047
vt 0.875315 0.443899
vt 0.877332 0.486484
vt 0.953125 0.519531
vt 0.950255 0.632589
vt 0.738811 0.181794
vt 0.739208 0.222626
vt 0.740077 0.311840
vt 0.741439 0.451684
vt 0.957031 0.187500
vt 0.955078 0.353516
vt 0.879348 0.529069
vt 0.948941 0.684333
vt 0.949774 0.717271
vt 0.738519 0.151892
vt 0.742801 0.591528
vt 0.320312 0.589844
s 0
f 36/1/1 28/2/1 4/3/1 10/4/1
f 47/5/2 45/6/2 8/7/2 11/8/2
f 34/9/3 32/10/3 6/11/3 12/12/3
f 59/13/4 58/14/4 2/15/4 9/16/4
f 56/17/5 29/18/5 5/19/5 46/20/5
f 68/21/6 27/22/6 2/15/6 58/14/6
f 96/23/7 59/24/7 9/25/7 83/26/7
f 92/27/8 34/9/8 12/12/8 86/28/8
f 94/29/9 47/30/9 11/31/9 85/32/9
f 90/33/10 36/34/10 10/35/10 84/36/10
f 95/37/11 62/38/11 18/39/11 87/40/11
f 93/41/12 50/42/12 17/43/12 88/44/12
f 54/45/13 38/46/13 16/47/13 49/48/13
f 66/49/5 40/50/5 15/51/5 61/52/5
f 50/53/14 49/48/14 16/54/14 17/55/14
f 62/56/15 60/57/15 14/58/15 18/59/15
f 46/20/16 51/60/16 24/61/16 15/51/16
f 57/62/17 63/63/17 23/64/17 13/65/17
f 25/66/18 42/67/18 19/68/18 3/69/18
f 48/70/19 52/71/19 20/72/19 7/73/19
f 29/74/20 44/75/20 21/76/20 5/77/20
f 61/52/21 64/78/21 22/79/21 1/80/21
f 7/81/22 20/82/22 43/83/22 30/84/22
f 71/85/23 78/86/23 44/75/23 29/74/23
f 1/80/24 22/79/24 41/87/24 26/88/24
f 69/89/25 77/90/25 42/67/25 25/66/25
f 57/62/5 13/65/5 39/91/5 65/92/5
f 82/93/5 76/94/5 40/50/5 66/49/5
f 45/6/13 14/95/13 37/96/13 53/97/13
f 80/98/13 75/99/13 38/100/13 54/45/13
f 83/26/26 9/25/26 35/101/26 89/102/26
f 97/103/27 74/104/27 36/105/27 90/106/27
f 85/107/28 11/108/28 33/109/28 91/110/28
f 33/109/29 73/111/29 98/111/29 105/109/29
f 60/57/6 4/3/6 28/2/6 67/112/6
f 81/113/6 70/114/6 27/22/6 68/21/6
f 48/70/5 7/73/5 30/115/5 55/116/5
f 79/117/5 71/118/5 29/18/5 56/17/5
f 11/108/30 8/119/30 31/120/30 33/109/30
f 73/111/31 72/121/31 32/10/31 34/9/31
f 9/122/32 2/15/32 27/22/32 35/123/32
f 74/124/33 70/114/33 28/2/33 36/125/33
f 76/94/5 79/117/5 56/17/5 40/50/5
f 13/65/5 48/70/5 55/116/5 39/91/5
f 72/126/13 80/98/13 54/45/13 32/127/13
f 8/7/13 45/6/13 53/97/13 31/128/13
f 13/65/34 23/64/34 52/71/34 48/70/34
f 5/19/35 21/129/35 51/60/35 46/20/35
f 12/130/36 6/131/36 49/48/36 50/53/36
f 32/127/13 54/45/13 49/48/13 6/131/13
f 86/132/37 12/133/37 50/42/37 93/41/37
f 87/40/38 18/39/38 47/30/38 94/29/38
f 40/50/5 56/17/5 46/20/5 15/51/5
f 18/134/39 14/135/39 45/6/39 47/5/39
f 75/136/6 81/113/6 68/21/6 38/137/6
f 14/138/6 60/57/6 67/112/6 37/139/6
f 69/89/5 82/93/5 66/49/5 26/88/5
f 3/69/5 57/62/5 65/92/5 25/66/5
f 15/51/40 24/61/40 64/78/40 61/52/40
f 3/69/41 19/68/41 63/63/41 57/62/41
f 10/140/42 4/3/42 60/57/42 62/141/42
f 26/88/5 66/49/5 61/52/5 1/80/5
f 84/36/43 10/35/43 62/38/43 95/37/43
f 88/44/44 17/43/44 59/24/44 96/23/44
f 38/142/6 68/21/6 58/14/6 16/143/6
f 17/144/45 16/145/45 58/14/45 59/146/45
f 25/66/5 65/92/5 82/93/5 69/89/5
f 37/147/6 67/112/6 81/113/6 75/148/6
f 31/128/13 53/97/13 80/98/13 72/126/13
f 39/91/5 55/116/5 79/117/5 76/94/5
f 35/149/33 27/22/33 70/114/33 74/150/33
f 33/109/46 31/120/46 72/121/46 73/111/46
f 55/116/5 30/115/5 71/118/5 79/117/5
f 67/112/6 28/2/6 70/114/6 81/113/6
f 34/9/47 92/27/47 104/27/47 99/9/47
f 89/151/27 35/152/27 74/104/27 97/103/27
f 53/97/13 37/153/13 75/154/13 80/98/13
f 65/92/5 39/91/5 76/94/5 82/93/5
f 26/88/25 41/87/25 77/90/25 69/89/25
f 30/84/48 43/83/48 78/86/48 71/85/48
f 41/155/27 89/151/27 97/103/27 77/156/27
f 43/83/49 91/110/49 102/110/49 103/83/49
f 24/157/50 88/44/50 96/23/50 64/158/50
f 19/159/51 84/36/51 95/37/51 63/160/51
f 23/161/52 87/40/52 94/29/52 52/162/52
f 21/163/53 86/132/53 93/41/53 51/164/53
f 44/75/54 78/86/54 100/86/54 101/75/54
f 20/82/55 85/107/55 91/110/55 43/83/55
f 77/156/27 97/103/27 90/106/27 42/165/27
f 22/166/56 83/26/56 89/102/56 41/167/56
f 51/164/57 93/41/57 88/44/57 24/157/57
f 63/160/58 95/37/58 87/40/58 23/161/58
f 42/168/59 90/33/59 84/36/59 19/159/59
f 52/162/60 94/29/60 85/32/60 20/169/60
f 44/75/61 92/27/61 86/28/61 21/76/61
f 64/158/62 96/23/62 83/26/62 22/166/62
f 106/170/63 98/111/63 99/9/63 104/27/63
f 102/110/64 105/109/64 98/111/64 106/170/64
f 103/83/65 102/110/65 106/170/65 100/86/65
f 100/86/66 106/170/66 104/27/66 101/75/66
f 78/86/67 43/83/67 103/83/67 100/86/67
f 73/111/68 34/9/68 99/9/68 98/111/68
f 92/27/69 44/75/69 101/75/69 104/27/69
f 91/110/70 33/109/70 105/109/70 102/110/70
