# Blender 5.1.0
# www.blender.org
o Cube.003
v 0.631180 -0.154457 -0.143826
v 0.631621 -0.146179 -0.150546
v 0.638273 -0.146030 -0.140370
v 0.590710 0.146179 -0.094130
v 0.587952 0.154457 -0.084215
v 0.597403 0.146030 -0.084012
v 0.529282 -0.154457 0.372739
v 0.537156 -0.146030 0.372236
v 0.527139 -0.146179 0.379123
v 0.511929 0.154457 0.301178
v 0.510715 0.146179 0.311398
v 0.520750 0.146030 0.304579
v -0.529282 -0.154457 -0.372739
v -0.537156 -0.146030 -0.372236
v -0.527139 -0.146179 -0.379123
v -0.511930 0.154457 -0.301179
v -0.510717 0.146179 -0.311398
v -0.520751 0.146030 -0.304579
v -0.631180 -0.154457 0.143826
v -0.631621 -0.146179 0.150546
v -0.638273 -0.146030 0.140370
v -0.587953 0.154457 0.084215
v -0.597404 0.146030 0.084011
v -0.590711 0.146179 0.094129
vn 0.7561 -0.4363 -0.4878
vn 0.6155 0.6807 -0.3971
vn 0.5142 -0.4363 0.7384
vn 0.4186 0.6807 0.6011
vn -0.5142 -0.4363 -0.7384
vn -0.4186 0.6807 -0.6011
vn -0.7561 -0.4363 0.4878
vn -0.6155 0.6807 0.3971
vn 0.7274 -0.6710 0.1435
vn 0.8155 0.2176 -0.5363
vn 0.6583 0.7414 0.1299
vn 0.5508 0.2176 0.8058
vn -0.1506 -0.6279 0.7636
vn -0.1215 0.7783 0.6160
vn -0.8155 0.2176 0.5363
vn -0.7274 -0.6710 -0.1435
vn -0.6583 0.7414 -0.1299
vn -0.5508 0.2176 -0.8058
vn 0.1506 -0.6279 -0.7636
vn 0.1215 0.7783 -0.6160
vn -0.0000 -1.0000 -0.0000
vn 0.9762 0.0994 0.1926
vn 0.1892 0.2115 -0.9589
vn -0.0000 1.0000 -0.0000
vn -0.1892 0.2115 0.9589
vn -0.9762 0.0994 -0.1926
vt 0.126765 0.746104
vt 0.126946 0.749588
vt 0.125088 0.745176
vt 0.873312 0.750000
vt 0.873139 0.744833
vt 0.875000 0.745827
vt 0.126765 0.503896
vt 0.125088 0.504824
vt 0.126946 0.500412
vt 0.873139 0.505167
vt 0.873312 0.500000
vt 0.875000 0.504173
vt 0.373235 0.746104
vt 0.380071 0.745661
vt 0.377377 0.750692
vt 0.626861 0.744833
vt 0.622494 0.750920
vt 0.619885 0.745279
vt 0.373235 0.503896
vt 0.377377 0.499308
vt 0.380071 0.504339
vt 0.626861 0.505167
vt 0.619885 0.504721
vt 0.622494 0.499080
vt 0.382351 0.000000
vt 0.618952 0.000000
vt 0.618180 0.004904
vt 0.381820 0.004178
vt 0.618301 0.251841
vt 0.381699 0.251795
vt 0.381820 0.245822
vt 0.618180 0.245096
vt 0.618301 0.998159
vt 0.381699 0.998205
s 0
f 1/1/1 2/2/1 3/3/1
f 4/4/2 5/5/2 6/6/2
f 7/7/3 8/8/3 9/9/3
f 10/10/4 11/11/4 12/12/4
f 13/13/5 14/14/5 15/15/5
f 16/16/6 17/17/6 18/18/6
f 19/19/7 20/20/7 21/21/7
f 22/22/8 23/23/8 24/24/8
f 7/7/9 1/1/9 3/3/9 8/8/9
f 2/25/10 4/26/10 6/27/10 3/28/10
f 5/5/11 10/10/11 12/12/11 6/6/11
f 11/29/12 9/30/12 8/31/12 12/32/12
f 19/19/13 7/7/13 9/9/13 20/20/13
f 10/10/14 22/22/14 24/24/14 11/11/14
f 23/23/15 21/21/15 20/20/15 24/24/15
f 13/13/16 19/19/16 21/21/16 14/14/16
f 22/22/17 16/16/17 18/18/17 23/23/17
f 17/17/18 15/15/18 14/14/18 18/18/18
f 1/1/19 13/13/19 15/15/19 2/2/19
f 16/16/20 5/5/20 4/4/20 17/17/20
f 7/7/21 19/19/21 13/13/21 1/1/21
f 3/28/22 6/27/22 12/32/22 8/31/22
f 15/15/23 17/17/23 4/33/23 2/34/23
f 22/22/24 10/10/24 5/5/24 16/16/24
f 9/30/25 11/29/25 24/24/25 20/20/25
f 21/21/26 23/23/26 18/18/26 14/14/26
