# Blender 5.1.0
# www.blender.org
o Gold_Ball
v -0.131741 0.163532 -0.239794
v 0.214423 0.202461 -0.120962
v -0.094921 -0.202461 -0.227154
v 0.251243 -0.163532 -0.108322
v -0.251243 0.163532 0.108322
v 0.094921 0.202461 0.227154
v -0.214423 -0.202461 0.120962
v 0.131741 -0.163531 0.239794
v -0.118939 -0.130876 -0.263781
v -0.138166 -0.023730 -0.284637
v -0.140785 0.086268 -0.271280
v -0.055318 0.198141 -0.241941
v 0.050400 0.223097 -0.219905
v 0.150061 0.221238 -0.171438
v 0.255873 0.130876 -0.135114
v 0.283855 0.023730 -0.139764
v 0.277718 -0.086268 -0.127615
v 0.192252 -0.198141 -0.156954
v 0.095289 -0.223097 -0.204496
v -0.013127 -0.221238 -0.227457
v -0.212683 -0.231993 0.042428
v -0.188566 -0.246827 -0.064731
v -0.141783 -0.231993 -0.164110
v 0.254875 -0.187385 -0.027944
v 0.233455 -0.199367 0.080141
v 0.183974 -0.187385 0.178593
v 0.055318 -0.198141 0.241941
v -0.050400 -0.223097 0.219905
v -0.150061 -0.221238 0.171438
v -0.277718 0.086268 0.127615
v -0.283855 -0.023730 0.139764
v -0.255873 -0.130876 0.135114
v 0.140785 -0.086268 0.271280
v 0.138166 0.023730 0.284637
v 0.118939 0.130876 0.263781
v 0.013127 0.221238 0.227457
v -0.095289 0.223097 0.204496
v -0.192252 0.198141 0.156954
v -0.183974 0.187385 -0.178593
v -0.233455 0.199367 -0.080141
v -0.254875 0.187385 0.027944
v 0.141783 0.231993 0.164110
v 0.188566 0.246827 0.064731
v 0.212683 0.231993 -0.042428
v -0.033967 0.103403 -0.295339
v 0.081164 0.121927 -0.276378
v 0.184917 0.128019 -0.220200
v -0.021891 -0.012969 -0.311755
v 0.100323 0.000000 -0.292246
v 0.208752 0.012969 -0.232580
v -0.010685 -0.128019 -0.287347
v 0.105697 -0.121927 -0.267957
v 0.208199 -0.103403 -0.212208
v -0.044819 -0.279113 -0.138415
v 0.068598 -0.286143 -0.106090
v 0.174065 -0.254497 -0.063276
v -0.086534 -0.299112 -0.029706
v 0.030911 -0.307253 0.010611
v 0.144108 -0.273174 0.049470
v -0.120382 -0.279113 0.081704
v -0.011024 -0.286143 0.125854
v 0.098502 -0.254497 0.156843
v -0.184917 -0.128019 0.220200
v -0.081164 -0.121927 0.276378
v 0.033967 -0.103403 0.295339
v -0.208752 -0.012969 0.232580
v -0.100323 0.000000 0.292246
v 0.021891 0.012969 0.311755
v -0.208199 0.103403 0.212208
v -0.105697 0.121927 0.267957
v 0.010685 0.128019 0.287347
v -0.174065 0.254497 0.063276
v -0.068598 0.286143 0.106090
v 0.044819 0.279113 0.138415
v -0.144108 0.273174 -0.049470
v -0.030911 0.307253 -0.010611
v 0.086534 0.299112 0.029706
v -0.098502 0.254497 -0.156843
v 0.011024 0.286143 -0.125854
v 0.120382 0.279113 -0.081704
v -0.202927 -0.144090 -0.192691
v -0.258375 -0.152363 -0.088696
v -0.278490 -0.144090 0.027428
v -0.230830 -0.030436 -0.208878
v -0.290607 -0.032682 -0.099760
v -0.310452 -0.030436 0.023065
v -0.226209 0.087332 -0.200683
v -0.282907 0.091491 -0.097117
v -0.301773 0.087332 0.019436
v 0.226209 -0.087332 0.200683
v 0.282907 -0.091491 0.097117
v 0.301773 -0.087332 -0.019436
v 0.230830 0.030436 0.208878
v 0.290607 0.032682 0.099760
v 0.310452 0.030436 -0.023065
v 0.202927 0.144090 0.192691
v 0.258375 0.152363 0.088696
v 0.278490 0.144090 -0.027428
vn -0.4133 0.5130 -0.7523
vn 0.6727 0.6352 -0.3795
vn -0.2978 -0.6352 -0.7126
vn 0.7882 -0.5130 -0.3398
vn -0.7882 0.5130 0.3398
vn 0.2978 0.6352 0.7126
vn -0.6727 -0.6352 0.3795
vn 0.4133 -0.5130 0.7523
vn -0.3816 -0.3849 -0.8404
vn -0.4355 -0.0748 -0.8971
vn -0.4448 0.2429 -0.8621
vn -0.1462 0.6338 -0.7596
vn 0.1588 0.7031 -0.6931
vn 0.4476 0.7006 -0.5557
vn 0.8173 0.3849 -0.4288
vn 0.8946 0.0748 -0.4405
vn 0.8805 -0.2429 -0.4071
vn 0.5819 -0.6338 -0.5096
vn 0.3003 -0.7031 -0.6445
vn -0.0119 -0.7006 -0.7135
vn -0.6664 -0.7382 0.1050
vn -0.5943 -0.7779 -0.2040
vn -0.4614 -0.7382 -0.4922
vn 0.8007 -0.5962 -0.0589
vn 0.7358 -0.6283 0.2526
vn 0.5957 -0.5962 0.5382
vn 0.1462 -0.6338 0.7596
vn -0.1588 -0.7031 0.6931
vn -0.4476 -0.7006 0.5557
vn -0.8805 0.2429 0.4071
vn -0.8946 -0.0748 0.4405
vn -0.8173 -0.3849 0.4288
vn 0.4448 -0.2429 0.8621
vn 0.4355 0.0748 0.8971
vn 0.3816 0.3849 0.8404
vn 0.0119 0.7006 0.7135
vn -0.3003 0.7031 0.6445
vn -0.5819 0.6338 0.5096
vn -0.5957 0.5962 -0.5382
vn -0.7358 0.6283 -0.2526
vn -0.8007 0.5962 0.0589
vn 0.4614 0.7382 0.4922
vn 0.5943 0.7779 0.2040
vn 0.6664 0.7382 -0.1050
vn -0.0642 0.2988 -0.9522
vn 0.2678 0.3540 -0.8961
vn 0.5682 0.3699 -0.7351
vn -0.0314 -0.0377 -0.9988
vn 0.3247 -0.0000 -0.9458
vn 0.6383 0.0377 -0.7689
vn 0.0031 -0.3699 -0.9291
vn 0.3390 -0.3540 -0.8716
vn 0.6355 -0.2988 -0.7120
vn -0.1190 -0.9104 -0.3963
vn 0.2091 -0.9292 -0.3046
vn 0.5134 -0.8392 -0.1792
vn -0.2414 -0.9669 -0.0829
vn 0.1000 -0.9944 0.0343
vn 0.4283 -0.8916 0.1470
vn -0.3373 -0.9104 0.2396
vn -0.0221 -0.9292 0.3688
vn 0.2950 -0.8392 0.4567
vn -0.5682 -0.3699 0.7351
vn -0.2678 -0.3540 0.8961
vn 0.0642 -0.2987 0.9522
vn -0.6383 -0.0377 0.7689
vn -0.3247 -0.0000 0.9458
vn 0.0314 0.0377 0.9988
vn -0.6355 0.2988 0.7120
vn -0.3390 0.3540 0.8716
vn -0.0031 0.3699 0.9291
vn -0.5134 0.8392 0.1792
vn -0.2091 0.9292 0.3046
vn 0.1190 0.9104 0.3963
vn -0.4283 0.8916 -0.1470
vn -0.1000 0.9944 -0.0343
vn 0.2414 0.9669 0.0829
vn -0.2950 0.8392 -0.4567
vn 0.0221 0.9292 -0.3688
vn 0.3373 0.9104 -0.2396
vn -0.6846 -0.4274 -0.5905
vn -0.8433 -0.4529 -0.2895
vn -0.9029 -0.4274 0.0455
vn -0.7633 -0.0988 -0.6384
vn -0.9405 -0.1058 -0.3229
vn -0.9945 -0.0988 0.0350
vn -0.7519 0.2413 -0.6136
vn -0.9145 0.2552 -0.3139
vn -0.9702 0.2413 0.0224
vn 0.7519 -0.2413 0.6136
vn 0.9145 -0.2552 0.3139
vn 0.9702 -0.2413 -0.0224
vn 0.7633 0.0988 0.6384
vn 0.9405 0.1058 0.3229
vn 0.9945 0.0988 -0.0350
vn 0.6846 0.4274 0.5905
vn 0.8433 0.4529 0.2895
vn 0.9029 0.4274 -0.0455
vt 0.243336 0.280345
vt 0.257177 0.362839
vt 0.214718 0.409404
vt 0.168721 0.354648
vt 0.266302 0.417786
vt 0.243884 0.446553
vt 0.187147 0.473263
vt 0.123267 0.455260
vt 0.228616 0.484653
vt 0.341959 0.117806
vt 0.310919 0.257420
vt 0.200835 0.171323
vt 0.297637 0.348521
vt 0.293043 0.405874
vt 0.293100 0.435849
vt 0.279797 0.450458
vt 0.265334 0.473572
vt 0.253850 0.500970
vt 0.247546 0.525856
vt 0.226097 0.529453
vt 0.184220 0.536474
vt 0.118017 0.547574
vt 0.028987 0.412404
vt 0.024425 0.563266
vt 0.090934 0.274772
vt 0.153089 0.633127
vt 0.207603 0.595274
vt 0.254495 0.646647
vt 0.228872 0.713411
vt 0.243090 0.570981
vt 0.269949 0.602017
vt 0.309820 0.676818
vt 0.323642 0.759315
vt 0.300524 0.621900
vt 0.077942 0.704389
vt 0.261623 0.547325
vt 0.281414 0.569480
vt 0.302625 0.586613
vt 0.319966 0.596084
vt 0.329688 0.624438
vt 0.352737 0.677157
vt 0.395006 0.758943
vt 0.319024 0.876237
vt 0.469885 0.880800
vt 0.181392 0.814290
vt 0.416263 0.697424
vt 0.374865 0.646055
vt 0.381889 0.596666
vt 0.415232 0.615426
vt 0.347514 0.603952
vt 0.356038 0.573980
vt 0.380469 0.547404
vt 0.405744 0.548838
vt 0.359332 0.541625
vt 0.468401 0.722809
vt 0.328497 0.578349
vt 0.336138 0.554675
vt 0.341524 0.530040
vt 0.344533 0.509595
vt 0.357020 0.507502
vt 0.375208 0.504452
vt 0.396888 0.500817
vt 0.434600 0.536857
vt 0.417702 0.497327
vt 0.453648 0.610935
vt 0.389598 0.452534
vt 0.366172 0.462134
vt 0.351447 0.415102
vt 0.376848 0.386493
vt 0.348076 0.474490
vt 0.334409 0.444979
vt 0.328699 0.370705
vt 0.351079 0.308643
vt 0.316575 0.419427
vt 0.420783 0.454449
vt 0.335021 0.491250
vt 0.321894 0.469718
vt 0.306950 0.449832
vt 0.392086 0.267641
vt 0.414628 0.378208
vt 0.677641 0.453745
vt 0.618765 0.585320
vt 0.539743 0.476866
vt 0.579071 0.348568
vt 0.540178 0.678633
vt 0.496710 0.565566
vt 0.470133 0.407051
vt 0.474347 0.285990
vt 0.459031 0.490398
vt 0.787419 0.435339
vt 0.782857 0.586201
vt 0.733901 0.294216
vt 0.720910 0.723833
vt 0.611009 0.827282
vt 0.492820 0.122368
vt 0.630452 0.184315
vt 0.310474 0.560657
vt 0.291344 0.542374
vt 0.301235 0.516855
vt 0.318677 0.536411
vt 0.272555 0.521663
vt 0.283562 0.495957
vt 0.311345 0.492679
vt 0.326244 0.512662
vt 0.295683 0.472435
s 1
f 45/1/45 46/2/46 49/3/49 48/4/48
f 46/2/46 47/5/47 50/6/50 49/3/49
f 48/4/48 49/3/49 52/7/52 51/8/51
f 49/3/49 50/6/50 53/9/53 52/7/52
f 1/10/1 12/11/12 45/1/45 11/12/11
f 12/11/12 13/13/13 46/2/46 45/1/45
f 13/13/13 14/14/14 47/5/47 46/2/46
f 14/14/14 2/15/2 15/16/15 47/5/47
f 47/5/47 15/16/15 16/17/16 50/6/50
f 50/6/50 16/17/16 17/18/17 53/9/53
f 53/9/53 17/18/17 4/19/4 18/20/18
f 52/7/52 53/9/53 18/20/18 19/21/19
f 51/8/51 52/7/52 19/21/19 20/22/20
f 9/23/9 51/8/51 20/22/20 3/24/3
f 10/25/10 48/4/48 51/8/51 9/23/9
f 11/12/11 45/1/45 48/4/48 10/25/10
f 54/26/54 55/27/55 58/28/58 57/29/57
f 55/27/55 56/30/56 59/31/59 58/28/58
f 57/29/57 58/28/58 61/32/61 60/33/60
f 58/28/58 59/31/59 62/34/62 61/32/61
f 3/24/3 20/22/20 54/26/54 23/35/23
f 20/22/20 19/21/19 55/27/55 54/26/54
f 19/21/19 18/20/18 56/30/56 55/27/55
f 18/20/18 4/19/4 24/36/24 56/30/56
f 56/30/56 24/36/24 25/37/25 59/31/59
f 59/31/59 25/37/25 26/38/26 62/34/62
f 62/34/62 26/38/26 8/39/8 27/40/27
f 61/32/61 62/34/62 27/40/27 28/41/28
f 60/33/60 61/32/61 28/41/28 29/42/29
f 21/43/21 60/33/60 29/42/29 7/44/7
f 22/45/22 57/29/57 60/33/60 21/43/21
f 23/35/23 54/26/54 57/29/57 22/45/22
f 63/46/63 64/47/64 67/48/67 66/49/66
f 64/47/64 65/50/65 68/51/68 67/48/67
f 66/49/66 67/48/67 70/52/70 69/53/69
f 67/48/67 68/51/68 71/54/71 70/52/70
f 7/44/7 29/42/29 63/46/63 32/55/32
f 29/42/29 28/41/28 64/47/64 63/46/63
f 28/41/28 27/40/27 65/50/65 64/47/64
f 27/40/27 8/39/8 33/56/33 65/50/65
f 65/50/65 33/56/33 34/57/34 68/51/68
f 68/51/68 34/57/34 35/58/35 71/54/71
f 71/54/71 35/58/35 6/59/6 36/60/36
f 70/52/70 71/54/71 36/60/36 37/61/37
f 69/53/69 70/52/70 37/61/37 38/62/38
f 30/63/30 69/53/69 38/62/38 5/64/5
f 31/65/31 66/49/66 69/53/69 30/63/30
f 32/55/32 63/46/63 66/49/66 31/65/31
f 72/66/72 73/67/73 76/68/76 75/69/75
f 73/67/73 74/70/74 77/71/77 76/68/76
f 75/69/75 76/68/76 79/72/79 78/73/78
f 76/68/76 77/71/77 80/74/80 79/72/79
f 5/64/5 38/62/38 72/66/72 41/75/41
f 38/62/38 37/61/37 73/67/73 72/66/72
f 37/61/37 36/60/36 74/70/74 73/67/73
f 36/60/36 6/59/6 42/76/42 74/70/74
f 74/70/74 42/76/42 43/77/43 77/71/77
f 77/71/77 43/77/43 44/78/44 80/74/80
f 80/74/80 44/78/44 2/15/2 14/14/14
f 79/72/79 80/74/80 14/14/14 13/13/13
f 78/73/78 79/72/79 13/13/13 12/11/12
f 39/79/39 78/73/78 12/11/12 1/10/1
f 40/80/40 75/69/75 78/73/78 39/79/39
f 41/75/41 72/66/72 75/69/75 40/80/40
f 81/81/81 82/82/82 85/83/85 84/84/84
f 82/82/82 83/85/83 86/86/86 85/83/85
f 84/84/84 85/83/85 88/87/88 87/88/87
f 85/83/85 86/86/86 89/89/89 88/87/88
f 3/90/3 23/91/23 81/81/81 9/92/9
f 23/91/23 22/93/22 82/82/82 81/81/81
f 22/93/22 21/94/21 83/85/83 82/82/82
f 21/94/21 7/44/7 32/55/32 83/85/83
f 83/85/83 32/55/32 31/65/31 86/86/86
f 86/86/86 31/65/31 30/63/30 89/89/89
f 89/89/89 30/63/30 5/64/5 41/75/41
f 88/87/88 89/89/89 41/75/41 40/80/40
f 87/88/87 88/87/88 40/80/40 39/79/39
f 11/95/11 87/88/87 39/79/39 1/10/1
f 10/96/10 84/84/84 87/88/87 11/95/11
f 9/92/9 81/81/81 84/84/84 10/96/10
f 90/97/90 91/98/91 94/99/94 93/100/93
f 91/98/91 92/101/92 95/102/95 94/99/94
f 93/100/93 94/99/94 97/103/97 96/104/96
f 94/99/94 95/102/95 98/105/98 97/103/97
f 8/39/8 26/38/26 90/97/90 33/56/33
f 26/38/26 25/37/25 91/98/91 90/97/90
f 25/37/25 24/36/24 92/101/92 91/98/91
f 24/36/24 4/19/4 17/18/17 92/101/92
f 92/101/92 17/18/17 16/17/16 95/102/95
f 95/102/95 16/17/16 15/16/15 98/105/98
f 98/105/98 15/16/15 2/15/2 44/78/44
f 97/103/97 98/105/98 44/78/44 43/77/43
f 96/104/96 97/103/97 43/77/43 42/76/42
f 35/58/35 96/104/96 42/76/42 6/59/6
f 34/57/34 93/100/93 96/104/96 35/58/35
f 33/56/33 90/97/90 93/100/93 34/57/34
