# Blender 5.1.0
# www.blender.org
o Worm_Can
v 0.000000 0.000000 0.257959
v 0.000000 0.515918 0.257959
v -0.182405 0.000000 0.182405
v -0.182405 0.515918 0.182405
v -0.257959 0.000000 0.000000
v -0.257959 0.515918 0.000000
v -0.182405 0.000000 -0.182405
v -0.182405 0.515918 -0.182405
v 0.000000 0.000000 -0.257959
v 0.000000 0.515918 -0.257959
v 0.182405 0.000000 -0.182405
v 0.182405 0.515918 -0.182405
v 0.257959 0.000000 0.000000
v 0.257959 0.515918 0.000000
v 0.182405 0.000000 0.182405
v 0.182405 0.515918 0.182405
v 0.110365 0.000000 -0.110365
v -0.110365 0.000000 -0.110365
v 0.110365 0.000000 0.110365
v -0.110365 0.000000 0.110365
v 0.000000 0.000000 -0.110365
v 0.000000 0.000000 0.110365
v 0.110365 0.000000 0.000000
v -0.110365 0.000000 0.000000
v 0.000000 0.000000 0.000000
v 0.000000 0.515918 0.239198
v -0.169138 0.515918 0.169138
v -0.239198 0.515918 0.000000
v -0.169138 0.515918 -0.169138
v 0.000000 0.515918 -0.239198
v 0.169138 0.515918 -0.169138
v 0.239198 0.515918 0.000000
v 0.169138 0.515918 0.169138
v 0.000014 0.465856 0.239181
v -0.169124 0.465856 0.169122
v -0.239184 0.465856 -0.000017
v -0.169124 0.465856 -0.169155
v 0.000014 0.465856 -0.239215
v 0.169153 0.465856 -0.169155
v 0.239212 0.465856 -0.000017
v 0.169153 0.465856 0.169122
v 0.115214 0.474118 -0.115411
v -0.114884 0.485281 -0.115705
v 0.114981 0.465856 0.114950
v -0.113947 0.450037 0.114471
v 0.000194 0.455102 -0.114245
v -0.000147 0.480300 0.115777
v 0.115454 0.476090 -0.000017
v -0.115330 0.472798 0.000048
v 0.000014 0.487191 -0.000017
v 0.269335 0.660300 0.262207
v 0.345480 0.631861 0.208756
v 0.385903 0.790253 0.319470
v 0.284596 0.899682 0.448861
v 0.100903 0.896045 0.521135
v -0.057572 0.781472 0.493953
v -0.097995 0.623079 0.383239
v 0.053987 0.587439 0.288501
v 0.231942 0.826118 0.415443
v 0.016594 0.753256 0.441737
v 0.161661 0.623870 0.275354
v 0.124268 0.789687 0.428590
v 0.250639 0.743209 0.338825
v 0.035291 0.670348 0.365119
v 0.142965 0.706778 0.351972
vn -0.3827 -0.0000 0.9239
vn -0.9239 -0.0000 0.3827
vn -0.9239 -0.0000 -0.3827
vn -0.3827 -0.0000 -0.9239
vn 0.3827 -0.0000 -0.9239
vn 0.9239 -0.0000 -0.3827
vn 0.9239 -0.0000 0.3827
vn 0.3827 -0.0000 0.9239
vn -0.0000 1.0000 -0.0000
vn -0.0000 -1.0000 -0.0000
vn -0.3827 -0.0004 0.9239
vn 0.9239 0.0001 0.3827
vn 0.3827 0.0004 -0.9239
vn -0.3827 0.0002 -0.9239
vn -0.9239 -0.0004 0.3827
vn 0.3827 -0.0002 0.9239
vn 0.9239 0.0004 -0.3827
vn -0.9239 -0.0001 -0.3827
vn -0.1904 0.9735 0.1264
vn 0.1101 0.9912 0.0739
vn -0.0347 0.9886 -0.1466
vn 0.0686 0.9941 -0.0846
vn 0.0874 0.9934 -0.0749
vn -0.1484 0.9889 0.0066
vn 0.0685 0.9957 0.0627
vn -0.0969 0.9946 -0.0376
vn 0.0658 0.9960 0.0609
vn 0.0432 0.9980 0.0467
vn 0.0944 0.9951 -0.0302
vn -0.0654 0.9978 -0.0058
vn -0.2964 0.6113 -0.7338
vn -0.3056 0.6009 -0.7386
vn -0.2962 0.5918 -0.7497
vn -0.3017 0.5793 -0.7573
vn -0.3235 0.5903 -0.7395
vn -0.3071 0.6007 -0.7381
vn -0.2970 0.5926 -0.7487
vn -0.3042 0.5776 -0.7575
vn -0.3240 0.5882 -0.7410
vt 0.308594 0.050563
vt 0.308594 0.676000
vt 0.126755 0.676000
vt 0.126755 0.050563
vt 0.051435 0.676000
vt 0.051435 0.050563
vt 0.002936 0.059508
vt 0.002936 0.698304
vt 0.095282 0.698304
vt 0.095282 0.059508
vt 0.276424 0.698304
vt 0.276424 0.059508
vt 0.471380 0.698304
vt 0.471380 0.059508
vt 0.551752 0.698304
vt 0.551752 0.059508
vt 0.565753 0.050563
vt 0.565753 0.676000
vt 0.490432 0.676000
vt 0.490432 0.050563
vt 0.730469 0.517715
vt 0.844932 0.565127
vt 0.892344 0.450664
vt 0.777881 0.403252
vt 0.616006 0.470303
vt 0.663418 0.355840
vt 0.568594 0.584765
vt 0.683057 0.632177
vt 0.797520 0.679590
vt 0.619651 0.785252
vt 0.841286 0.785252
vt 0.998006 0.628532
vt 0.998006 0.406897
vt 0.841286 0.250177
vt 0.619651 0.250177
vt 0.462931 0.406897
vt 0.462931 0.628532
vt 0.612152 0.276215
vt 0.507812 0.319433
vt 0.507812 0.308702
vt 0.604563 0.268626
vt 0.507812 0.024317
vt 0.612152 0.067536
vt 0.604563 0.075124
vt 0.507812 0.035049
vt 0.403473 0.276215
vt 0.360254 0.171875
vt 0.370986 0.171875
vt 0.411061 0.268626
vt 0.655371 0.171875
vt 0.644639 0.171875
vt 0.403473 0.067536
vt 0.411061 0.075124
vt 0.086269 0.749985
vt 0.086270 0.874978
vt 0.000030 0.874978
vt 0.000030 0.749985
vt 0.086269 0.000029
vt 0.086269 0.125022
vt 0.000029 0.125022
vt 0.000029 0.000029
vt 0.086269 0.250015
vt 0.086269 0.375007
vt 0.000029 0.375007
vt 0.000029 0.250015
vt 0.086269 0.500000
vt 0.000029 0.500000
vt 0.086269 0.624993
vt 0.000030 0.624993
vt 0.086270 0.999970
vt 0.000030 0.999971
vt 0.812500 0.820312
vt 0.898869 0.819268
vt 0.899913 0.905637
vt 0.813544 0.906681
vt 0.726131 0.821357
vt 0.727175 0.907726
vt 0.725087 0.734988
vt 0.811456 0.733944
vt 0.897825 0.732899
vt 0.810327 0.640615
vt 0.938029 0.691711
vt 0.992197 0.818140
vt 0.941102 0.945841
vt 0.814673 1.000010
vt 0.686971 0.948914
vt 0.632803 0.822485
vt 0.683898 0.694784
vt 0.777344 0.226562
vt 0.856385 0.258425
vt 0.824426 0.337443
vt 0.745384 0.305580
vt 0.698302 0.194700
vt 0.666343 0.273717
vt 0.730262 0.115682
vt 0.809303 0.147545
vt 0.888344 0.179408
vt 0.954990 0.297972
vt 0.851697 0.402643
vt 0.704564 0.403745
vt 0.599781 0.300630
vt 0.598727 0.153703
vt 0.702020 0.049031
vt 0.852423 0.049504
vt 0.954548 0.155273
s 0
f 1/1/1 2/2/1 4/3/1 3/4/1
f 3/4/2 4/3/2 6/5/2 5/6/2
f 5/7/3 6/8/3 8/9/3 7/10/3
f 7/10/4 8/9/4 10/11/4 9/12/4
f 9/12/5 10/11/5 12/13/5 11/14/5
f 11/14/6 12/13/6 14/15/6 13/16/6
f 13/17/7 14/18/7 16/19/7 15/20/7
f 15/20/8 16/19/8 2/2/8 1/1/8
f 25/21/9 24/22/9 20/23/9 22/24/9
f 23/25/9 25/21/9 22/24/9 19/26/9
f 17/27/9 21/28/9 25/21/9 23/25/9
f 21/28/9 18/29/9 24/22/9 25/21/9
f 9/30/10 21/28/10 18/29/10 7/31/10
f 7/31/10 18/29/10 24/22/10 5/32/10
f 5/32/10 24/22/10 20/23/10 3/33/10
f 3/33/10 20/23/10 22/24/10 1/34/10
f 1/34/10 22/24/10 19/26/10 15/35/10
f 15/35/10 19/26/10 23/25/10 13/36/10
f 13/36/10 23/25/10 17/27/10 11/37/10
f 11/37/10 17/27/10 21/28/10 9/30/10
f 4/38/9 2/39/9 26/40/9 27/41/9
f 10/42/9 8/43/9 29/44/9 30/45/9
f 16/46/9 14/47/9 32/48/9 33/49/9
f 6/50/9 4/38/9 27/41/9 28/51/9
f 12/52/9 10/42/9 30/45/9 31/53/9
f 2/39/9 16/46/9 33/49/9 26/40/9
f 8/43/9 6/50/9 28/51/9 29/44/9
f 14/47/9 12/52/9 31/53/9 32/48/9
f 31/54/11 30/55/11 38/56/11 39/57/11
f 29/58/12 28/59/12 36/60/12 37/61/12
f 27/62/13 26/63/13 34/64/13 35/65/13
f 26/63/14 33/66/14 41/67/14 34/64/14
f 32/68/15 31/54/15 39/57/15 40/69/15
f 30/55/16 29/70/16 37/71/16 38/56/16
f 28/59/17 27/62/17 35/65/17 36/60/17
f 33/66/18 32/68/18 40/69/18 41/67/18
f 50/72/19 49/73/19 45/74/19 47/75/19
f 48/76/20 50/72/20 47/75/20 44/77/20
f 42/78/21 46/79/21 50/72/21 48/76/21
f 46/79/22 43/80/22 49/73/22 50/72/22
f 38/81/23 37/82/23 43/80/23 46/79/23
f 37/82/24 36/83/24 49/73/24 43/80/24
f 36/83/25 35/84/25 45/74/25 49/73/25
f 35/84/26 34/85/26 47/75/26 45/74/26
f 34/85/27 41/86/27 44/77/27 47/75/27
f 41/86/28 40/87/28 48/76/28 44/77/28
f 40/87/29 39/88/29 42/78/29 48/76/29
f 39/88/30 38/81/30 46/79/30 42/78/30
f 65/89/31 64/90/31 60/91/31 62/92/31
f 63/93/31 65/89/31 62/92/31 59/94/31
f 51/95/31 61/96/31 65/89/31 63/93/31
f 61/96/31 58/97/31 64/90/31 65/89/31
f 57/98/32 56/99/32 60/91/32 64/90/32
f 56/99/33 55/100/33 62/92/33 60/91/33
f 55/100/34 54/101/34 59/94/34 62/92/34
f 54/101/35 53/102/35 63/93/35 59/94/35
f 53/102/36 52/103/36 51/95/36 63/93/36
f 52/103/37 16/104/37 61/96/37 51/95/37
f 16/104/38 2/105/38 58/97/38 61/96/38
f 2/105/39 57/98/39 64/90/39 58/97/39
