# Blender 5.1.0
# www.blender.org
o Cube.011
v -0.475197 -0.009578 -0.353631
v -0.443006 -0.009578 -0.408395
v -0.443006 0.009578 -0.408395
v -0.149818 0.009578 0.088414
v -0.149818 -0.009578 0.088414
v -0.197664 -0.009578 0.116650
v -0.149818 0.009578 0.088414
v -0.443006 0.009578 -0.408395
v -0.452013 0.000720 -0.373107
v -0.383080 0.009578 -0.306850
v -0.383080 0.009578 -0.306850
v -0.398833 0.009578 -0.384289
v -0.436126 0.008904 -0.392889
v -0.434183 0.006983 -0.378639
v -0.437473 0.004110 -0.367815
v -0.452013 -0.009578 -0.373107
v -0.443006 -0.009578 -0.408395
v -0.398833 -0.009578 -0.384289
v -0.383080 -0.009578 -0.306850
v -0.437473 -0.009578 -0.367815
v -0.434183 -0.009578 -0.378639
v -0.436126 -0.009578 -0.392889
v -0.456480 -0.009578 -0.431226
v -0.458909 -0.009578 -0.443765
v -0.459725 -0.009578 -0.439191
v -0.458909 0.009578 -0.443765
v -0.456480 0.009578 -0.431226
v -0.459725 0.009578 -0.439191
v -0.079870 -0.009578 -0.586931
v -0.143371 -0.009578 -0.585223
v -0.143371 0.009578 -0.585223
v -0.312778 -0.009578 -0.530003
v -0.293189 0.009578 -0.496809
v -0.277533 -0.009578 -0.470281
v -0.293189 -0.009578 -0.496809
v -0.277533 0.009578 -0.470281
v 0.149818 0.009578 -0.088414
v 0.149818 -0.009578 -0.088414
v 0.197664 -0.009578 -0.116650
v 0.149818 0.009578 -0.088414
v -0.000000 -0.009578 -0.000000
v 0.000000 0.009578 0.000000
v -0.312778 0.009578 -0.530003
v -0.143371 0.009578 -0.585223
v -0.108126 0.000720 -0.576049
v -0.083445 0.009578 -0.483678
v -0.083445 0.009578 -0.483678
v -0.143621 0.009578 -0.534900
v -0.133123 0.008904 -0.571705
v -0.121587 0.006983 -0.563116
v -0.110522 0.004110 -0.560764
v -0.108126 -0.009578 -0.576049
v -0.143371 -0.009578 -0.585223
v -0.143621 -0.009578 -0.534900
v -0.083445 -0.009578 -0.483678
v -0.110522 -0.009578 -0.560764
v -0.121587 -0.009578 -0.563116
v -0.133123 -0.009578 -0.571705
v -0.156845 -0.009578 -0.608054
v -0.166647 -0.009578 -0.616242
v -0.162249 -0.009578 -0.614745
v -0.166647 0.009578 -0.616242
v -0.156845 0.009578 -0.608054
v -0.162249 0.009578 -0.614745
v 0.079870 -0.009578 0.586931
v 0.143371 -0.009578 0.585223
v 0.143371 0.009578 0.585223
v 0.143371 0.009578 0.585223
v 0.108126 0.000720 0.576049
v 0.083445 0.009578 0.483678
v 0.083445 0.009578 0.483678
v 0.143621 0.009578 0.534900
v 0.133123 0.008904 0.571705
v 0.121587 0.006983 0.563116
v 0.110522 0.004110 0.560764
v 0.108126 -0.009578 0.576049
v 0.143371 -0.009578 0.585223
v 0.143621 -0.009578 0.534900
v 0.083445 -0.009578 0.483678
v 0.110522 -0.009578 0.560764
v 0.121587 -0.009578 0.563116
v 0.133123 -0.009578 0.571705
v 0.156845 -0.009578 0.608054
v 0.166647 -0.009578 0.616242
v 0.162249 -0.009578 0.614745
v 0.166647 0.009578 0.616242
v 0.156845 0.009578 0.608054
v 0.162249 0.009578 0.614745
v 0.475197 -0.009578 0.353631
v 0.443006 -0.009578 0.408395
v 0.443006 0.009578 0.408395
v 0.312778 -0.009578 0.530003
v 0.293189 0.009578 0.496809
v 0.277533 -0.009578 0.470281
v 0.293189 -0.009578 0.496809
v 0.277533 0.009578 0.470281
v 0.312778 0.009578 0.530003
v 0.443006 0.009578 0.408395
v 0.452013 0.000720 0.373107
v 0.383080 0.009578 0.306850
v 0.383080 0.009578 0.306850
v 0.398833 0.009578 0.384289
v 0.436126 0.008904 0.392889
v 0.434183 0.006983 0.378639
v 0.437473 0.004110 0.367815
v 0.452013 -0.009578 0.373107
v 0.443006 -0.009578 0.408395
v 0.398833 -0.009578 0.384289
v 0.383080 -0.009578 0.306850
v 0.437473 -0.009578 0.367815
v 0.434183 -0.009578 0.378639
v 0.436126 -0.009578 0.392889
v 0.456480 -0.009578 0.431226
v 0.458909 -0.009578 0.443765
v 0.459725 -0.009578 0.439191
v 0.458909 0.009578 0.443765
v 0.456480 0.009578 0.431226
v 0.459725 0.009578 0.439191
vn -0.1236 0.9896 0.0729
vn -0.0000 -1.0000 -0.0000
vn -0.9141 -0.0000 0.4056
vn -0.9908 -0.0000 0.1351
vn -0.9568 -0.0000 -0.2908
vn 0.3420 -0.0000 -0.9397
vn -0.6432 -0.0000 -0.7657
vn -0.0000 1.0000 -0.0000
vn -0.5082 -0.0000 -0.8612
vn -0.0000 -0.0000 -0.0000
vn -0.2807 0.9454 0.1657
vn -0.9845 -0.0000 -0.1755
vn -0.9261 -0.0000 0.3773
vn -0.8612 -0.0000 0.5082
vn 0.1236 0.9896 -0.0729
vn 0.7969 -0.0000 -0.6041
vn 0.5972 -0.0000 -0.8021
vn 0.2079 -0.0000 -0.9781
vn -0.9879 -0.0000 -0.1548
vn -0.3594 -0.0000 -0.9332
vn 0.2807 0.9454 -0.1657
vn 0.3222 -0.0000 -0.9467
vn 0.7779 -0.0000 -0.6284
vn 0.8612 -0.0000 -0.5082
vn -0.7969 -0.0000 0.6041
vn -0.5972 -0.0000 0.8021
vn -0.2079 -0.0000 0.9781
vn 0.9879 -0.0000 0.1548
vn 0.3594 -0.0000 0.9332
vn -0.3222 -0.0000 0.9467
vn -0.7779 -0.0000 0.6284
vn 0.5082 -0.0000 0.8612
vn 0.9141 -0.0000 -0.4056
vn 0.9908 -0.0000 -0.1351
vn 0.9568 -0.0000 0.2908
vn -0.3420 -0.0000 0.9397
vn 0.6432 -0.0000 0.7657
vn 0.9845 -0.0000 0.1755
vn 0.9261 -0.0000 -0.3773
vt 0.820541 0.382542
vt 0.811651 0.379537
vt 0.804656 0.370981
vt 0.800620 0.358177
vt 0.806923 0.343072
vt 0.758336 0.382542
vt 0.797744 0.422165
vt 0.804290 0.297189
vt 0.804290 0.649575
vt 0.820541 0.649575
vt 0.516174 0.382542
vt 0.516174 0.649575
vt 0.516174 0.297189
vt 0.840875 0.389118
vt 0.839016 0.384468
vt 0.834527 0.382542
vt 0.840875 0.649575
s 1
f 8/1/1 13/2/1 14/3/1 15/4/1 9/5/1 10/6/1 11/6/1 12/7/1
f 16/5/2 20/4/2 21/3/2 22/2/2 17/1/2 18/7/2 19/6/2
f 8/1/3 17/1/3 22/2/3 13/2/3
f 13/2/4 22/2/4 21/3/4 14/3/4
f 14/3/5 21/3/5 20/4/5 15/4/5
f 15/4/6 20/4/6 16/5/6 9/5/6
f 16/5/7 1/8/7 9/5/7
f 8/1/8 12/7/8 36/9/8 33/10/8 3/1/8
s 0
f 17/1/8 8/1/9 3/1/8 2/1/9
s 1
f 4/11/8 42/12/8 36/9/8 12/7/8 11/6/8
s 0
f 4/11/10 11/6/10 10/6/10 7/11/10
s 1
f 1/8/11 6/13/11 7/11/11 10/6/11 9/5/11
f 5/11/2 6/13/2 1/8/2 16/5/2 19/6/2
f 34/9/2 18/7/2 17/1/2 2/1/2 35/10/2
f 41/12/2 5/11/2 19/6/2 18/7/2 34/9/2
f 26/14/12 24/14/12 25/15/12 28/15/12
f 28/15/13 25/15/13 23/16/13 27/16/13
f 24/14/9 26/14/9 43/17/9 32/17/9
f 35/10/2 2/1/2 23/16/2 25/15/2 24/14/2 32/17/2
f 2/1/14 3/1/14 27/16/14 23/16/14
f 3/1/8 33/10/8 43/17/8 26/14/8 28/15/8 27/16/8
f 44/1/15 48/7/15 47/6/15 46/6/15 45/5/15 51/4/15 50/3/15 49/2/15
f 52/5/2 55/6/2 54/7/2 53/1/2 58/2/2 57/3/2 56/4/2
f 44/1/16 49/2/16 58/2/16 53/1/16
f 49/2/17 50/3/17 57/3/17 58/2/17
f 50/3/18 51/4/18 56/4/18 57/3/18
f 51/4/19 45/5/19 52/5/19 56/4/19
f 52/5/20 45/5/20 29/8/20
f 44/1/8 31/1/8 33/10/8 36/9/8 48/7/8
s 0
f 53/1/9 30/1/8 31/1/9 44/1/8
s 1
f 37/11/8 47/6/8 48/7/8 36/9/8 42/12/8
s 0
f 37/11/10 40/11/10 46/6/10 47/6/10
s 1
f 29/8/21 45/5/21 46/6/21 40/11/21 39/13/21
f 38/11/2 55/6/2 52/5/2 29/8/2 39/13/2
f 34/9/2 35/10/2 30/1/2 53/1/2 54/7/2
f 41/12/2 34/9/2 54/7/2 55/6/2 38/11/2
f 62/14/22 64/15/22 61/15/22 60/14/22
f 64/15/23 63/16/23 59/16/23 61/15/23
f 60/14/9 32/17/9 43/17/9 62/14/9
f 35/10/2 32/17/2 60/14/2 61/15/2 59/16/2 30/1/2
f 30/1/24 59/16/24 63/16/24 31/1/24
f 31/1/8 63/16/8 64/15/8 62/14/8 43/17/8 33/10/8
f 68/1/1 72/7/1 71/6/1 70/6/1 69/5/1 75/4/1 74/3/1 73/2/1
f 76/5/2 79/6/2 78/7/2 77/1/2 82/2/2 81/3/2 80/4/2
f 68/1/25 73/2/25 82/2/25 77/1/25
f 73/2/26 74/3/26 81/3/26 82/2/26
f 74/3/27 75/4/27 80/4/27 81/3/27
f 75/4/28 69/5/28 76/5/28 80/4/28
f 76/5/29 69/5/29 65/8/29
f 68/1/8 67/1/8 93/10/8 96/9/8 72/7/8
s 0
f 77/1/9 66/1/8 67/1/9 68/1/8
s 1
f 4/11/8 71/6/8 72/7/8 96/9/8 42/12/8
s 0
f 4/11/10 7/11/10 70/6/10 71/6/10
s 1
f 65/8/11 69/5/11 70/6/11 7/11/11 6/13/11
f 5/11/2 79/6/2 76/5/2 65/8/2 6/13/2
f 94/9/2 95/10/2 66/1/2 77/1/2 78/7/2
f 41/12/2 94/9/2 78/7/2 79/6/2 5/11/2
f 86/14/30 88/15/30 85/15/30 84/14/30
f 88/15/31 87/16/31 83/16/31 85/15/31
f 84/14/32 92/17/32 97/17/32 86/14/32
f 95/10/2 92/17/2 84/14/2 85/15/2 83/16/2 66/1/2
f 66/1/14 83/16/14 87/16/14 67/1/14
f 67/1/8 87/16/8 88/15/8 86/14/8 97/17/8 93/10/8
f 98/1/15 103/2/15 104/3/15 105/4/15 99/5/15 100/6/15 101/6/15 102/7/15
f 106/5/2 110/4/2 111/3/2 112/2/2 107/1/2 108/7/2 109/6/2
f 98/1/33 107/1/33 112/2/33 103/2/33
f 103/2/34 112/2/34 111/3/34 104/3/34
f 104/3/35 111/3/35 110/4/35 105/4/35
f 105/4/36 110/4/36 106/5/36 99/5/36
f 106/5/37 89/8/37 99/5/37
f 98/1/8 102/7/8 96/9/8 93/10/8 91/1/8
s 0
f 107/1/8 98/1/9 91/1/8 90/1/9
s 1
f 37/11/8 42/12/8 96/9/8 102/7/8 101/6/8
s 0
f 37/11/10 101/6/10 100/6/10 40/11/10
s 1
f 89/8/21 39/13/21 40/11/21 100/6/21 99/5/21
f 38/11/2 39/13/2 89/8/2 106/5/2 109/6/2
f 94/9/2 108/7/2 107/1/2 90/1/2 95/10/2
f 41/12/2 38/11/2 109/6/2 108/7/2 94/9/2
f 116/14/38 114/14/38 115/15/38 118/15/38
f 118/15/39 115/15/39 113/16/39 117/16/39
f 114/14/32 116/14/32 97/17/32 92/17/32
f 95/10/2 90/1/2 113/16/2 115/15/2 114/14/2 92/17/2
f 90/1/24 91/1/24 117/16/24 113/16/24
f 91/1/8 93/10/8 97/17/8 116/14/8 118/15/8 117/16/8
