# Blender 5.1.0
# www.blender.org
mtllib door.mtl
o Cube.005
v 1.855083 0.001280 -0.508737
v 1.855083 2.176780 -0.508737
v -1.001179 0.001280 -0.508737
v -1.001179 2.176780 -0.508737
v 1.450513 0.445651 -1.018443
v 1.450513 1.771702 -1.018443
v -0.563616 1.771702 -1.018687
v -0.563616 0.445651 -1.018687
v 1.855083 2.176780 -1.018410
v -1.001179 2.176780 -1.018719
v 1.450467 1.771702 -0.510478
v 1.450467 0.445651 -0.510478
v -0.563663 1.771702 -0.510722
v -0.563663 0.445651 -0.510722
v 1.855083 2.176780 -0.947897
v 1.855083 0.001280 -0.947897
v -1.001179 0.001280 -0.948156
v -1.001179 2.176780 -0.948156
v -1.001179 2.132506 -1.018719
v -1.001179 2.132506 -0.508737
v -0.563616 1.733913 -1.018687
v -0.563663 1.733913 -0.510722
v -1.001179 2.132506 -0.932064
v -0.563616 0.477304 -1.018687
v -0.563663 0.477304 -0.510722
v -1.001179 0.038140 -0.508737
v -1.001179 0.038140 -0.932064
v -1.060832 0.001280 -0.948156
v -1.060832 0.001280 -0.508737
v -1.060832 2.176780 -0.948156
v -1.060832 2.176780 -1.018719
v -1.060832 2.132507 -0.508737
v -1.060832 2.176780 -0.508737
v -1.060832 2.132507 -0.932064
v -1.060832 2.132507 -1.018719
v -1.060832 0.038140 -0.932064
v -1.060832 0.038140 -0.508737
v -1.122612 2.132507 -1.018719
v -1.122612 2.132507 -0.948156
v -1.122612 2.176780 -1.018719
v -1.122612 2.176780 -0.948156
v -1.122612 0.164769 -1.018719
v -1.001179 0.164769 -1.018719
v 1.855083 0.164769 -1.018410
v -0.840195 0.164769 -1.018707
v 1.706238 0.164769 -1.018422
v -0.875011 0.164769 -1.018710
v -1.060832 0.164769 -1.018719
v 1.855083 0.164769 -0.947897
v -1.060832 0.164769 -0.932064
v -1.122612 0.164769 -0.948156
v -1.001179 0.164769 -0.932064
v -1.060832 0.164769 -0.948150
vn -0.0000 1.0000 -0.0000
vn -0.0000 -1.0000 -0.0000
vn 1.0000 -0.0000 0.0001
vn 1.0000 -0.0000 -0.0000
vn -0.0000 -0.0000 1.0000
vn -0.0001 -0.0046 1.0000
vn 0.0001 -0.0000 -1.0000
vn -1.0000 -0.0000 -0.0001
vn -0.0043 -0.0000 1.0000
vn -0.0001 0.0042 1.0000
vn 0.0045 -0.0000 1.0000
vn -1.0000 -0.0000 -0.0000
vn -0.0000 -0.0000 -1.0000
vn -0.1271 0.1773 0.9759
vn -0.2521 -0.0000 0.9677
vt 0.634400 0.557953
vt 0.634400 0.797826
vt 0.625000 0.807227
vt 0.625000 0.558052
vt 0.365634 0.557987
vt 0.375000 0.807227
vt 0.375000 0.807227
vt 0.318211 0.557887
vt 0.598809 0.584220
vt 0.604782 0.584221
vt 0.598809 0.584220
vt 0.625000 0.807227
vt 0.393788 0.807227
vt 0.393788 0.807227
vt 0.671853 0.557462
vt 0.682227 0.557449
vt 0.682227 0.557449
vt 0.671853 0.557462
vt 0.682227 0.750000
vt 0.604784 0.781054
vt 0.395211 0.781051
vt 0.604784 0.781054
vt 0.382436 0.797597
vt 0.395178 0.584187
vt 0.382396 0.567639
vt 0.400181 0.584187
vt 0.386477 0.565557
vt 0.395211 0.781051
vt 0.326900 0.557877
vt 0.626741 0.557954
vt 0.617874 0.558051
vt 0.372050 0.557987
vt 0.387449 0.557985
vt 0.634400 0.557953
vt 0.395250 0.558011
vt 0.318211 0.557887
vt 0.395250 0.558011
vt 0.387449 0.557985
vt 0.387580 0.563156
s 0
usemtl Microwave
f 18/1/1 15/2/1 9/3/1 10/4/1
f 17/5/2 16/6/2 1/7/2 3/8/2
f 21/9/3 7/10/3 13/10/3 22/11/3
f 15/12/4 49/13/4 44/14/4 9/3/4
f 20/15/5 4/16/5 33/17/5 32/18/5
f 2/19/6 4/16/6 13/10/6 11/20/6
f 5/21/7 6/22/7 9/3/7 44/14/7 46/23/7
f 6/22/7 7/10/7 10/4/7 9/3/7
f 8/24/7 5/21/7 46/23/7 45/25/7
f 24/26/7 8/24/7 45/25/7 47/27/7
f 7/10/2 6/22/2 11/20/2 13/10/2
f 5/21/1 8/24/1 14/24/1 12/28/1
f 6/22/8 5/21/8 12/28/8 11/20/8
f 1/7/9 2/3/9 11/20/9 12/28/9
f 3/8/10 1/7/10 12/28/10 14/24/10
f 26/29/11 3/8/11 14/24/11 25/26/11
f 23/30/2 20/15/2 32/18/2 34/30/2
f 2/3/4 1/7/4 16/6/4 49/13/4 15/12/4
f 4/16/1 2/19/1 15/2/1 18/1/1
f 4/16/11 20/15/11 22/11/11 13/10/11
f 7/10/7 21/9/7 19/31/7 10/4/7
f 27/32/5 52/33/5 50/33/5 36/32/5
f 24/26/3 21/9/3 22/11/3 25/26/3
f 8/24/3 24/26/3 25/26/3 14/24/3
f 18/1/1 10/4/1 31/4/1 30/34/1
f 20/15/11 26/29/11 25/26/11 22/11/11
f 21/9/7 24/26/7 47/27/7 43/35/7 19/31/7
f 23/30/12 52/33/12 27/32/12 26/29/12 20/15/12
f 36/32/12 28/5/12 29/36/12 37/29/12
f 38/31/12 42/37/12 51/38/12 39/30/12
f 30/34/12 34/30/12 32/18/12 33/17/12
f 4/16/1 18/1/1 30/34/1 33/17/1
f 26/29/1 27/32/1 36/32/1 37/29/1
f 3/8/5 26/29/5 37/29/5 29/36/5
f 17/5/2 3/8/2 29/36/2 28/5/2
f 19/31/13 43/35/13 48/37/13 35/31/13
f 10/4/13 19/31/13 35/31/13 31/4/13
f 31/4/13 35/31/13 38/31/13 40/4/13
f 35/31/13 48/37/13 42/37/13 38/31/13
f 34/30/14 30/34/14 41/34/14 39/30/14
f 30/34/1 31/4/1 40/4/1 41/34/1
f 28/5/12 36/32/12 50/33/12 53/39/12
f 38/31/12 39/30/12 41/34/12 40/4/12
f 50/33/5 52/33/5 23/30/5 34/30/5
f 51/38/15 50/33/15 34/30/15 39/30/15
f 16/6/7 17/5/7 28/5/7 53/39/7 49/13/7
f 51/38/2 42/37/2 48/37/2 53/39/2
f 53/39/2 48/37/2 43/35/2 47/27/2 45/25/2 46/23/2 44/14/2 49/13/2
f 53/39/2 50/33/2 51/38/2
