# Blender 5.1.0
# www.blender.org
o Open_Button
v -1.673331 0.529295 -0.287909
v -1.216990 0.529295 -0.287909
v -1.216990 0.305776 -0.287909
v -1.673331 0.305776 -0.287909
v -1.673331 0.529295 -0.956417
v -1.216990 0.529295 -0.956417
v -1.216990 0.305776 -0.956417
v -1.673331 0.305776 -0.956417
vn -0.0000 -0.0000 1.0000
vn -0.0000 -0.0000 -1.0000
vn -0.0000 -1.0000 -0.0000
vn 1.0000 -0.0000 -0.0000
vn -1.0000 -0.0000 -0.0000
vn -0.0000 1.0000 -0.0000
vt 0.409650 0.513181
vt 0.409650 0.543680
vt 0.436019 0.543680
vt 0.436019 0.513181
s 0
f 4/1/1 3/2/1 2/3/1 1/4/1
f 8/1/2 5/4/2 6/3/2 7/2/2
f 3/2/3 4/1/3 8/1/3 7/2/3
f 2/3/4 3/2/4 7/2/4 6/3/4
f 4/1/5 1/4/5 5/4/5 8/1/5
f 1/4/6 2/3/6 6/3/6 5/4/6
