# Blender 5.1.0
# www.blender.org
mtllib thingamagic.mtl
o Cylinder
v -0.198620 -0.014196 0.140954
v -0.198620 -0.014196 -0.053978
v -0.140445 -0.154641 0.140954
v -0.140445 -0.154641 -0.053978
v 0.000000 -0.212815 0.140954
v 0.000000 -0.212815 -0.053978
v 0.000000 0.184424 0.140954
v 0.000000 0.184424 -0.053978
v -0.140445 0.126250 0.140954
v -0.140445 0.126250 -0.053978
v -0.075246 -0.013298 -0.053978
v 0.000000 -0.014195 -0.053978
v 0.000000 -0.089441 -0.053978
v 0.000000 0.061050 -0.053978
v -0.076143 -0.088544 -0.053978
v -0.074348 0.061948 -0.053978
v 0.198620 -0.014196 0.140954
v 0.198620 -0.014196 -0.053978
v 0.140445 -0.154641 0.140954
v 0.140445 -0.154641 -0.053978
v 0.140445 0.126250 0.140954
v 0.140445 0.126250 -0.053978
v 0.075246 -0.013298 -0.053978
v 0.076143 -0.088544 -0.053978
v 0.074348 0.061948 -0.053978
v 0.043761 -0.153912 0.054538
v 0.028772 0.211517 0.054538
v -0.043761 -0.153912 0.054538
v -0.028772 0.211517 0.054538
v 0.043761 -0.153912 -0.089540
v 0.028772 0.211517 -0.089540
v -0.043761 -0.153912 -0.089540
v -0.028772 0.211517 -0.089540
v 0.043761 0.029771 0.054538
v -0.043761 0.029771 0.054538
v -0.043761 0.029771 -0.089540
v 0.043761 0.029771 -0.089540
vn -0.9239 -0.3827 -0.0000
vn -0.0000 -0.0000 -1.0000
vn -0.9239 0.3827 -0.0000
vn -0.3827 -0.9239 -0.0000
vn -0.3827 0.9239 -0.0000
vn 0.9239 -0.3827 -0.0000
vn 0.9239 0.3827 -0.0000
vn 0.3827 -0.9239 -0.0000
vn 0.3827 0.9239 -0.0000
vn -0.0000 -0.0000 1.0000
vn -0.9966 0.0822 -0.0000
vn 0.9966 0.0822 -0.0000
vn -0.0000 -1.0000 -0.0000
vn -0.0000 1.0000 -0.0000
vn 1.0000 -0.0000 -0.0000
vn -1.0000 -0.0000 -0.0000
vt 0.210126 0.499984
vt 0.007726 0.499984
vt 0.007726 0.196739
vt 0.210126 0.196739
vt 0.958507 0.479789
vt 0.734362 0.481420
vt 0.735992 0.344714
vt 0.852816 0.224629
vt 0.597656 0.840641
vt 0.597656 0.616495
vt 0.732731 0.618126
vt 0.852816 0.734949
vt 0.210126 0.803230
vt 0.007726 0.803230
vt 0.597656 0.479789
vt 0.597656 0.343084
vt 0.597656 0.118938
vt 0.007726 0.005907
vt 0.210126 0.005907
vt 0.210126 0.994061
vt 0.007726 0.994061
vt 0.211024 0.500016
vt 0.211024 0.803261
vt 0.008624 0.803261
vt 0.008624 0.500016
vt 0.236805 0.479789
vt 0.342496 0.224629
vt 0.459320 0.344714
vt 0.460950 0.481420
vt 0.342496 0.734949
vt 0.462581 0.618126
vt 0.211024 0.196770
vt 0.008624 0.196770
vt 0.211024 0.994093
vt 0.008624 0.994093
vt 0.211024 0.005939
vt 0.008624 0.005939
vt 0.500662 0.000000
vt 0.625000 0.000000
vt 0.625000 0.250000
vt 0.500662 0.250000
vt 0.625000 0.500000
vt 0.500662 0.500000
vt 0.625000 0.750000
vt 0.500662 0.750000
vt 0.625000 1.000000
vt 0.500662 1.000000
vt 0.125000 0.500000
vt 0.375000 0.500000
vt 0.375000 0.750000
vt 0.125000 0.750000
vt 0.875000 0.500000
vt 0.875000 0.750000
vt 0.375000 1.000000
vt 0.375000 0.250000
vt 0.375000 0.000000
s 0
usemtl curtilka
f 1/1/1 2/2/1 4/3/1 3/4/1
f 2/5/2 11/6/2 15/7/2 4/8/2
f 8/9/2 14/10/2 16/11/2 10/12/2
f 9/13/3 10/14/3 2/2/3 1/1/3
f 14/10/2 12/15/2 11/6/2 16/11/2
f 12/15/2 13/16/2 15/7/2 11/6/2
f 4/8/2 15/7/2 13/16/2 6/17/2
f 3/4/4 4/3/4 6/18/4 5/19/4
f 10/12/2 16/11/2 11/6/2 2/5/2
f 7/20/5 8/21/5 10/14/5 9/13/5
f 17/22/6 19/23/6 20/24/6 18/25/6
f 18/26/2 20/27/2 24/28/2 23/29/2
f 8/9/2 22/30/2 25/31/2 14/10/2
f 21/32/7 17/22/7 18/25/7 22/33/7
f 14/10/2 25/31/2 23/29/2 12/15/2
f 12/15/2 23/29/2 24/28/2 13/16/2
f 20/27/2 6/17/2 13/16/2 24/28/2
f 19/23/8 5/34/8 6/35/8 20/24/8
f 22/30/2 18/26/2 23/29/2 25/31/2
f 7/36/9 21/32/9 22/33/9 8/37/9
usemtl 
f 34/38/10 27/39/10 29/40/10 35/41/10
f 35/41/11 29/40/11 33/42/11 36/43/11
f 36/43/2 33/42/2 31/44/2 37/45/2
f 37/45/12 31/44/12 27/46/12 34/47/12
f 28/48/13 32/49/13 30/50/13 26/51/13
f 33/42/14 29/52/14 27/53/14 31/44/14
f 30/50/15 37/45/15 34/47/15 26/54/15
f 32/49/2 36/43/2 37/45/2 30/50/2
f 28/55/16 35/41/16 36/43/16 32/49/16
f 26/56/10 34/38/10 35/41/10 28/55/10
