# Blender 5.1.0
# www.blender.org
o Bird_Skull
v 0.250964 -0.259940 -0.455295
v 0.051904 -0.023297 -0.094163
v -0.322615 -0.109813 0.138546
v -0.337804 0.013682 0.203841
v -0.126306 0.177270 0.229142
v -0.198303 -0.121375 -0.022740
v -0.037217 0.142458 0.067518
v 0.013383 -0.145633 -0.223653
v -0.238198 0.004408 0.432133
v -0.243083 -0.115144 0.440997
v -0.309152 0.030339 0.157022
v -0.231071 0.041717 0.134138
v -0.169719 0.155086 0.307901
v -0.339918 -0.119461 0.192585
v -0.162556 -0.087733 0.017927
v 0.148522 -0.216466 -0.269446
v -0.252559 -0.196316 0.108359
v -0.151871 -0.179531 0.010368
v -0.012770 -0.188785 -0.139194
v -0.186320 -0.252496 0.338018
v -0.248145 -0.209584 0.159406
v -0.104206 -0.248340 0.189048
v -0.038362 -0.220908 0.069596
v -0.124462 -0.265935 0.225796
v 0.056635 -0.211191 -0.102746
v 0.094050 -0.177455 -0.296107
v 0.082958 -0.206570 -0.258129
v -0.218463 -0.094778 -0.014356
v -0.275506 0.052979 0.126161
v -0.122095 0.120049 0.030622
v -0.068138 0.010061 -0.061024
v -0.101204 0.082094 0.036866
v -0.054283 0.010456 -0.041470
v -0.216393 0.166666 0.193830
v -0.246188 0.147165 0.272894
v 0.041705 -0.153192 -0.255250
v 0.115240 -0.081559 -0.209066
v 0.007507 -0.189244 -0.158963
v 0.085974 -0.213715 -0.155972
v -0.063407 0.024711 -0.027869
v 0.028575 0.042766 -0.051839
v -0.219670 -0.097903 0.070435
v -0.266958 -0.104594 0.045806
v -0.069655 0.025989 -0.043266
v -0.004321 0.092612 0.007839
v -0.261885 -0.044628 0.113942
v -0.292410 -0.042342 0.106093
v -0.070710 0.048114 0.007134
v -0.073516 0.067257 0.000655
v -0.219265 0.082229 0.397787
v -0.152831 0.091116 0.088243
v -0.093662 -0.027376 -0.020211
v -0.090691 -0.054106 -0.066154
v -0.189431 0.115251 0.077370
v -0.272078 0.113687 0.168459
v -0.295494 0.116723 0.239368
v -0.105418 -0.010355 0.046312
v -0.111888 0.024807 0.075998
v -0.171032 0.172406 0.209294
v -0.303901 -0.120023 0.353903
v -0.207954 0.151126 0.290398
v -0.306580 0.006325 0.351694
v -0.217233 -0.231040 0.248712
v -0.008117 -0.006618 -0.077594
v -0.076230 0.130883 0.050929
v -0.020540 0.034377 -0.047553
v -0.038919 0.079935 0.004247
v -0.275959 0.096756 0.352284
v -0.172038 -0.057977 0.075191
v -0.200541 -0.014110 0.107640
v -0.026566 -0.065355 -0.113034
v 0.055112 -0.109813 0.346753
v 0.008013 0.013682 0.394459
v 0.125108 -0.121375 0.155528
v 0.181959 -0.145633 -0.130732
v 0.032301 0.030339 0.345236
v 0.009960 0.041717 0.266997
v 0.018659 -0.119461 0.390237
v 0.071637 -0.087733 0.147018
v 0.043230 -0.196316 0.271402
v 0.072323 -0.179531 0.133946
v 0.124511 -0.188785 -0.063524
v -0.002288 -0.209584 0.294925
v 0.200150 -0.177455 -0.237624
v 0.173960 -0.206570 -0.207967
v 0.128784 -0.094778 0.177051
v 0.040430 0.052979 0.300309
v 0.039299 0.120049 0.119585
v 0.087979 0.010061 0.025029
v 0.022866 0.082094 0.105255
v 0.064047 0.010456 0.023755
v -0.048348 0.166666 0.286458
v -0.099291 0.147165 0.353866
v 0.193552 -0.153192 -0.171550
v 0.130399 -0.189244 -0.091223
v 0.057419 0.024711 0.038732
v 0.057735 -0.097903 0.223345
v 0.103809 -0.104594 0.250177
v 0.073774 0.025989 0.035794
v 0.043489 -0.044628 0.282269
v 0.066424 -0.042342 0.303887
v 0.031722 0.048114 0.063596
v 0.038699 0.067257 0.062509
v 0.006990 0.091116 0.176338
v 0.067099 -0.027376 0.068402
v 0.104358 -0.054106 0.041360
v 0.035725 0.115251 0.201479
v 0.002835 0.113687 0.319995
v -0.044617 0.116723 0.377655
v 0.017128 -0.010355 0.113861
v -0.004518 0.024807 0.135182
v -0.085644 0.172406 0.256362
v -0.136971 -0.120023 0.445918
v -0.134505 0.151126 0.330884
v -0.133672 0.006325 0.447003
v -0.094304 -0.231040 0.316472
v 0.069941 -0.006618 -0.034567
v -0.002360 0.130883 0.091647
v 0.051174 0.034377 -0.008023
v 0.017189 0.079935 0.035174
v -0.150521 0.096756 0.421428
v 0.028281 -0.057977 0.185609
v 0.016064 -0.014110 0.227035
v 0.109757 -0.065355 -0.037891
vn 0.4634 -0.2801 -0.8407
vn 0.2964 0.7893 -0.5377
vn -0.8692 -0.2303 -0.4375
vn -0.9747 0.2018 -0.0961
vn -0.0029 1.0000 0.0053
vn -0.6785 -0.2351 -0.6959
vn 0.2066 0.9038 -0.3748
vn -0.6615 0.0466 -0.7485
vn -0.4746 0.1833 0.8609
vn -0.4563 -0.3267 0.8277
vn -0.8416 0.2912 -0.4549
vn -0.1224 -0.1395 -0.9826
vn -0.1908 0.9186 0.3461
vn -0.9366 -0.3444 -0.0643
vn -0.5011 0.8435 -0.1934
vn -0.0355 -0.9973 0.0644
vn -0.5218 -0.7469 -0.4122
vn -0.4171 -0.8099 -0.4125
vn -0.4244 -0.8402 -0.3377
vn -0.2437 -0.8632 0.4421
vn -0.5230 -0.8352 -0.1703
vn 0.1080 -0.9747 -0.1959
vn 0.0602 -0.9922 -0.1092
vn 0.0313 -0.9979 -0.0569
vn 0.0085 -0.9998 -0.0153
vn -0.6720 -0.0666 -0.7375
vn -0.5039 -0.8198 -0.2719
vn -0.7056 0.5065 -0.4955
vn -0.4896 0.2065 -0.8471
vn -0.4429 0.3636 -0.8196
vn -0.6489 0.4855 -0.5859
vn -0.7300 -0.4112 -0.5460
vn -0.9984 0.0556 0.0084
vn -0.3314 0.9279 -0.1709
vn -0.4459 0.8779 0.1747
vn -0.6660 0.1390 -0.7329
vn 0.2201 0.8900 -0.3994
vn -0.4627 -0.8296 -0.3126
vn -0.0201 -0.9991 0.0365
vn -0.9945 -0.0585 -0.0872
vn 0.3443 0.7009 -0.6246
vn -0.1811 0.8425 -0.5074
vn -0.6544 0.1891 -0.7321
vn -0.8967 0.1282 -0.4236
vn 0.2967 0.7888 -0.5383
vn 0.0520 0.4571 -0.8879
vn -0.4714 0.3558 -0.8070
vn -0.9405 -0.1304 -0.3138
vn -0.6350 0.2420 -0.7337
vn -0.3950 0.5748 0.7166
vn -0.4630 -0.4140 -0.7837
vn -0.7442 0.6294 -0.2238
vn -0.5738 0.6038 -0.5533
vn -0.5294 0.1850 -0.8279
vn -0.6773 0.6255 -0.3874
vn -0.7846 0.6199 0.0097
vn -0.7408 0.4399 -0.5077
vn -0.6791 0.0846 -0.7291
vn -0.1239 0.9902 -0.0638
vn -0.8673 -0.3474 0.3565
vn -0.2660 0.9125 0.3107
vn -0.8837 0.1677 0.4370
vn -0.5525 -0.8318 0.0540
vn -0.1998 0.5537 -0.8084
vn -0.0305 0.8443 -0.5350
vn -0.1471 0.6466 -0.7485
vn -0.0923 0.6921 -0.7158
vn -0.6520 0.5854 0.4819
vn -0.5200 0.5478 -0.6554
vn -0.3753 0.2861 -0.8817
vn -0.3634 0.5582 -0.7459
vn 0.8340 -0.2303 0.5014
vn 0.6017 0.2018 0.7728
vn 0.9507 -0.2351 0.2021
vn 0.9861 0.0466 0.1597
vn 0.8340 0.2912 0.4687
vn 0.8962 -0.1395 -0.4212
vn 0.5545 -0.3444 0.7576
vn 0.4311 0.8435 0.3205
vn 0.6271 -0.7469 0.2211
vn 0.5715 -0.8099 0.1324
vn 0.5121 -0.8402 0.1785
vn 0.4232 -0.8352 0.3513
vn 0.9824 -0.0666 0.1744
vn 0.4990 -0.8198 0.2809
vn 0.7957 0.5065 0.3321
vn 0.9777 0.2065 -0.0383
vn 0.9294 0.3636 -0.0631
vn 0.8418 0.4855 0.2358
vn 0.8514 -0.4112 0.3257
vn 0.5260 0.0556 0.8487
vn 0.3214 0.9279 0.1890
vn 0.0904 0.8779 0.4703
vn 0.9753 0.1390 0.1718
vn 0.5113 -0.8296 0.2243
vn 0.6047 -0.0585 0.7943
vn 0.5257 0.8425 -0.1178
vn 0.9684 0.1891 0.1624
vn 0.8370 0.1282 0.5320
vn 0.7230 0.4571 -0.5180
vn 0.9340 0.3558 -0.0323
vn 0.7675 -0.1304 0.6277
vn 0.9594 0.2420 0.1451
vn 0.9099 -0.4140 -0.0270
vn 0.5865 0.6294 0.5097
vn 0.7742 0.6038 0.1898
vn 0.9827 0.1850 0.0056
vn 0.6892 0.6255 0.3658
vn 0.4107 0.6199 0.6686
vn 0.8248 0.4399 0.3553
vn 0.9791 0.0846 0.1849
vn 0.1201 0.9902 0.0707
vn 0.1617 -0.3474 0.9237
vn -0.1207 0.9125 0.3908
vn 0.1024 0.1677 0.9805
vn 0.2494 -0.8318 0.4960
vn 0.7902 0.5537 -0.2626
vn 0.4686 0.8443 -0.2599
vn 0.7114 0.6466 -0.2753
vn 0.6545 0.6921 -0.3042
vn -0.0593 0.5854 0.8086
vn 0.8318 0.5478 0.0897
vn 0.9458 0.2861 -0.1534
vn 0.8247 0.5582 -0.0910
vt 0.082884 0.916678
vt 0.108418 0.960160
vt 0.057359 0.949680
vt 0.030040 0.923964
vt 0.009917 0.838851
vt 0.104271 0.801423
vt 0.087406 0.827866
vt 0.032754 0.866627
vt 0.228217 0.363272
vt 0.337187 0.319845
vt 0.353245 0.362626
vt 0.244553 0.516926
vt 0.633135 0.910743
vt 0.711256 0.852909
vt 0.790328 0.919077
vt 0.671698 0.984565
vt 0.820629 0.872817
vt 0.907472 0.982382
vt 0.864333 1.021141
vt 0.759786 0.804306
vt 0.004984 0.899533
vt -0.003948 0.885151
vt 0.000656 0.891633
vt 0.010598 0.902614
vt 0.199858 0.854978
vt 0.201044 0.928477
vt 0.172998 0.926257
vt 0.181998 0.860894
vt 0.717771 1.097389
vt 0.870990 0.872250
vt 0.754930 0.792000
vt 0.804212 0.727905
vt 0.885998 0.772460
vt 0.745062 0.226963
vt 0.757661 -0.010159
vt 0.800719 0.197226
vt 0.763500 0.247642
vt 0.733713 0.746929
vt 0.767742 0.694985
vt 0.718245 0.576566
vt 0.734566 0.328290
vt 0.771915 0.386897
vt 0.771688 0.568434
vt 0.571501 0.218197
vt 0.471311 0.269215
vt 1.000000 0.269215
vt 1.000000 0.243706
vt 0.889796 0.535757
vt 0.928955 0.659508
vt 0.842751 0.363842
vt 0.944232 0.700146
vt 0.971586 0.819087
vt 0.734334 0.290510
vt 0.773085 0.361934
vt 0.125645 0.975085
vt 0.063260 0.975907
vt 0.273604 0.697284
vt 0.313513 0.698765
vt 0.337986 0.785153
vt 0.281481 0.786819
vt 0.624764 0.786199
vt 0.555736 0.696415
vt 0.503768 0.628522
vt 0.518857 0.591989
vt 0.389287 0.840910
vt 0.505305 0.894053
vt 0.552205 0.927271
vt 0.455179 0.959821
vt 0.338221 0.508420
vt 0.293288 0.564014
vt 0.648759 0.735045
vt 0.691994 0.757028
vt 0.656546 0.831499
vt 0.619022 0.818929
vt 0.368906 0.944463
vt 0.320475 0.937831
vt 0.829451 0.310330
vt 0.214578 -0.007428
vt 0.304582 0.251316
vt 0.342678 0.611735
vt 0.334470 0.636176
vt 0.284055 0.619432
vt 0.158744 0.803470
vt 0.139516 0.825176
vt 0.026549 0.935714
vt 0.068306 0.889993
vt 0.143363 0.887870
vt 0.115153 0.858185
vt 0.339874 0.784236
vt 0.393408 0.841754
vt 0.463638 0.955644
vt 0.381205 0.980866
vt 0.579747 0.806944
vt 0.565754 0.930580
vt 0.232367 0.602267
vt 0.232825 0.695769
vt 0.233288 0.790178
vt 0.272854 0.932176
vt 0.602982 0.717722
vt 0.957933 0.890036
vt 0.576830 1.018650
vt 0.616938 1.132082
vt 0.381587 0.572989
vt 0.472031 0.596874
vt 0.483386 0.625319
vt 0.601304 0.838228
vt 0.634252 0.740596
vt 0.683840 0.852279
s 1
f 58/1/58 51/2/51 32/3/32 48/4/48
f 53/5/53 28/6/28 15/7/15 52/8/52
f 37/9/37 36/10/36 8/11/8 2/12/2
f 68/13/68 56/14/56 4/15/4 62/16/62
f 11/17/11 3/18/3 14/19/14 4/15/4
f 55/20/55 11/17/11 4/15/4 56/14/56
f 44/21/44 31/22/31 33/23/33 40/24/40
f 47/25/47 29/26/29 12/27/12 46/28/46
f 62/16/62 4/15/4 14/19/14 60/29/60
f 60/30/60 14/31/14 21/32/21 63/33/63
f 26/34/26 1/35/1 16/36/16 27/37/27
f 14/31/14 3/38/3 17/39/17 21/32/21
f 6/40/6 8/41/8 19/42/19 18/43/18
f 3/38/3 6/40/6 18/43/18 17/39/17
f 39/44/39 25/45/25 19/46/19 38/47/38
f 18/43/18 23/48/23 22/49/22 17/39/17
f 19/42/19 25/50/25 23/48/23 18/43/18
f 24/51/24 20/52/20 63/33/63 21/32/21
f 22/49/22 24/51/24 21/32/21 17/39/17
f 36/53/36 26/34/26 27/37/27 38/54/38
f 54/55/54 30/56/30 32/3/32 51/2/51
f 67/57/67 49/58/49 30/59/30 65/60/65
f 3/61/3 43/62/43 28/63/28 6/64/6
f 54/65/54 29/66/29 11/67/11 55/68/55
f 2/12/2 8/11/8 71/69/71 64/70/64
f 59/71/59 34/72/34 35/73/35 61/74/61
f 65/60/65 30/59/30 34/75/34 59/76/59
f 8/41/8 36/53/36 38/54/38 19/42/19
f 16/36/16 39/77/39 38/54/38 27/37/27
f 1/78/1 26/79/26 36/10/36 37/9/37
f 64/70/64 31/80/31 44/81/44 66/82/66
f 28/6/28 43/83/43 42/84/42 15/7/15
f 49/85/49 44/21/44 40/24/40 48/4/48
f 52/8/52 57/86/57 40/24/40 33/23/33
f 30/56/30 49/85/49 48/4/48 32/3/32
f 66/82/66 44/81/44 49/58/49 67/57/67
f 43/83/43 47/25/47 46/28/46 42/84/42
f 57/86/57 58/1/58 48/4/48 40/24/40
f 42/84/42 46/28/46 70/87/70 69/88/69
f 15/7/15 42/84/42 69/88/69
f 30/89/30 54/90/54 55/91/55 34/92/34
f 29/26/29 54/55/54 51/2/51 12/27/12
f 34/72/34 55/20/55 56/14/56 35/73/35
f 61/74/61 35/73/35 56/14/56 68/13/68
f 31/22/31 53/5/53 52/8/52 33/23/33
f 46/28/46 12/27/12 70/87/70
f 13/93/13 61/74/61 68/13/68 50/94/50
f 41/95/41 66/82/66 67/57/67 45/96/45
f 2/12/2 64/70/64 66/82/66 41/95/41
f 7/97/7 65/60/65 59/76/59 5/98/5
f 5/99/5 59/71/59 61/74/61 13/93/13
f 45/96/45 67/57/67 65/60/65 7/97/7
f 10/100/10 60/30/60 63/33/63 20/52/20
f 9/101/9 62/16/62 60/29/60 10/102/10
f 50/94/50 68/13/68 62/16/62 9/101/9
f 69/88/69 57/86/57 52/8/52 15/7/15
f 69/88/69 70/87/70 58/1/58 57/86/57
f 70/87/70 12/27/12 51/2/51 58/1/58
f 64/70/64 71/69/71 53/103/53 31/80/31
f 71/69/71 8/11/8 6/104/6 28/105/28 53/103/53
f 47/106/47 43/107/43 3/108/3
f 29/66/29 47/106/47 3/108/3 11/67/11
f 111/1/111 102/4/102 90/3/90 104/2/104
f 106/5/106 105/8/105 79/7/79 86/6/86
f 37/9/37 2/12/2 75/11/75 94/10/94
f 121/13/121 115/16/115 73/15/73 109/14/109
f 76/17/76 73/15/73 78/19/78 72/18/72
f 108/20/108 109/14/109 73/15/73 76/17/76
f 99/21/99 96/24/96 91/23/91 89/22/89
f 101/25/101 100/28/100 77/27/77 87/26/87
f 115/16/115 113/29/113 78/19/78 73/15/73
f 113/30/113 116/33/116 83/32/83 78/31/78
f 84/34/84 85/37/85 16/36/16 1/35/1
f 78/31/78 83/32/83 80/39/80 72/38/72
f 74/40/74 81/43/81 82/42/82 75/41/75
f 72/38/72 80/39/80 81/43/81 74/40/74
f 39/44/39 95/47/95 82/46/82 25/45/25
f 81/43/81 80/39/80 22/49/22 23/48/23
f 82/42/82 81/43/81 23/48/23 25/50/25
f 24/51/24 83/32/83 116/33/116 20/52/20
f 22/49/22 80/39/80 83/32/83 24/51/24
f 94/53/94 95/54/95 85/37/85 84/34/84
f 107/55/107 104/2/104 90/3/90 88/56/88
f 120/57/120 118/60/118 88/59/88 103/58/103
f 72/61/72 74/64/74 86/63/86 98/62/98
f 107/65/107 108/68/108 76/67/76 87/66/87
f 2/12/2 117/70/117 124/69/124 75/11/75
f 112/71/112 114/74/114 93/73/93 92/72/92
f 118/60/118 112/76/112 92/75/92 88/59/88
f 75/41/75 82/42/82 95/54/95 94/53/94
f 16/36/16 85/37/85 95/54/95 39/77/39
f 1/78/1 37/9/37 94/10/94 84/79/84
f 117/70/117 119/82/119 99/81/99 89/80/89
f 86/6/86 79/7/79 97/84/97 98/83/98
f 103/85/103 102/4/102 96/24/96 99/21/99
f 105/8/105 91/23/91 96/24/96 110/86/110
f 88/56/88 90/3/90 102/4/102 103/85/103
f 119/82/119 120/57/120 103/58/103 99/81/99
f 98/83/98 97/84/97 100/28/100 101/25/101
f 110/86/110 96/24/96 102/4/102 111/1/111
f 97/84/97 122/88/122 123/87/123 100/28/100
f 79/7/79 122/88/122 97/84/97
f 88/89/88 92/92/92 108/91/108 107/90/107
f 87/26/87 77/27/77 104/2/104 107/55/107
f 92/72/92 93/73/93 109/14/109 108/20/108
f 114/74/114 121/13/121 109/14/109 93/73/93
f 89/22/89 91/23/91 105/8/105 106/5/106
f 100/28/100 123/87/123 77/27/77
f 13/93/13 50/94/50 121/13/121 114/74/114
f 41/95/41 45/96/45 120/57/120 119/82/119
f 2/12/2 41/95/41 119/82/119 117/70/117
f 7/97/7 5/98/5 112/76/112 118/60/118
f 5/99/5 13/93/13 114/74/114 112/71/112
f 45/96/45 7/97/7 118/60/118 120/57/120
f 10/100/10 20/52/20 116/33/116 113/30/113
f 9/101/9 10/102/10 113/29/113 115/16/115
f 50/94/50 9/101/9 115/16/115 121/13/121
f 122/88/122 79/7/79 105/8/105 110/86/110
f 122/88/122 110/86/110 111/1/111 123/87/123
f 123/87/123 111/1/111 104/2/104 77/27/77
f 117/70/117 89/80/89 106/103/106 124/69/124
f 124/69/124 106/103/106 86/105/86 74/104/74 75/11/75
f 101/106/101 72/108/72 98/107/98
f 87/66/87 76/67/76 72/108/72 101/106/101
