# Blender 5.0.1
# www.blender.org
mtllib EWG-XC213.mtl
o EWG-XC213
v 0.107813 -0.435893 0.763270
v 0.108506 0.258110 0.493144
v 0.107773 -0.215848 1.157873
v 0.107823 0.478490 0.887758
v -0.107823 0.478490 0.887758
v -0.107773 -0.215848 1.157873
v -0.108506 0.258110 0.493144
v -0.107813 -0.435893 0.763270
v 0.151593 0.698267 -0.852423
v 0.173502 0.589470 -0.852386
v 0.173071 0.590783 -0.315846
v 0.215076 0.654241 -0.852424
v 0.214453 0.655968 -0.315871
v 0.152318 0.699413 -0.315889
v -0.173071 0.590783 -0.315846
v -0.152318 0.699413 -0.315889
v -0.151593 0.698267 -0.852423
v -0.214453 0.655968 -0.315871
v -0.215076 0.654241 -0.852424
v -0.173502 0.589470 -0.852386
v 0.185318 0.569213 -0.005746
v -0.185318 0.569213 -0.005746
v 0.129829 0.799265 0.066783
v -0.129829 0.799265 0.066783
v -0.129826 0.799602 0.280919
v -0.184667 0.569135 0.353509
v 0.129826 0.799602 0.280919
v 0.184667 0.569135 0.353509
v 0.126819 0.568700 0.511873
v -0.126819 0.568700 0.511873
v 0.126745 0.812989 0.511916
v -0.126745 0.812989 0.511916
v 0.126839 0.813313 0.599003
v -0.126839 0.813313 0.599003
v -0.126114 0.567325 0.598911
v 0.126114 0.567325 0.598911
v 0.184285 0.567008 -0.755653
v -0.184285 0.567008 -0.755653
v 0.128831 0.799255 -0.683061
v -0.128831 0.799255 -0.683061
v -0.129004 0.800110 -0.347966
v -0.184820 0.566534 -0.275468
v 0.129004 0.800110 -0.347966
v 0.184820 0.566534 -0.275468
v -0.063869 0.190936 0.139316
v -0.063438 -0.329797 0.042553
v 0.063869 0.190936 0.139316
v 0.063438 -0.329797 0.042553
v 0.063598 0.192051 -0.054160
v 0.063283 -0.273443 -0.126811
v -0.063598 0.192051 -0.054160
v -0.063283 -0.273443 -0.126811
v -0.052024 0.671567 1.241411
v 0.000000 0.625372 1.241439
v 0.000000 0.627116 2.571858
v 0.052024 0.671567 1.241411
v 0.051756 0.671201 2.571768
v 0.000000 0.717750 1.241384
v 0.000000 0.718652 2.571778
v -0.051756 0.671201 2.571768
v -0.104236 0.670546 0.284485
v 0.000000 0.576291 0.284505
v 0.000000 0.575602 1.034330
v 0.104236 0.670546 0.284485
v 0.104057 0.672592 1.034388
v 0.000000 0.764758 0.284462
v 0.000000 0.766525 1.034358
v -0.104057 0.672592 1.034388
v 0.000000 0.672989 1.459149
v -0.123135 -0.196378 1.192911
v -0.122525 -0.254108 1.215516
v -0.122913 -0.454436 0.731639
v -0.122339 -0.511063 0.754279
v 0.122913 -0.454436 0.731639
v 0.122339 -0.511063 0.754279
v 0.122525 -0.254108 1.215516
v 0.123135 -0.196378 1.192911
v 0.190311 0.532389 2.219564
v 0.000000 0.773839 2.219662
v 0.000000 0.771369 2.147023
v -0.190311 0.532389 2.219564
v -0.190229 0.534426 2.147060
v -0.190418 0.267486 2.219566
v -0.190336 0.267595 2.147006
v 0.000000 0.194573 2.219633
v 0.000000 0.191775 2.146983
v 0.190336 0.267595 2.147006
v 0.190418 0.267486 2.219566
v 0.190229 0.534426 2.147060
v 0.189582 0.533395 1.469752
v 0.000000 0.771472 1.469749
v 0.000000 0.773412 1.397241
v -0.189582 0.533395 1.469752
v -0.190250 0.533518 1.397189
v -0.190549 0.266834 1.469704
v -0.190364 0.268390 1.397186
v 0.000000 0.191512 1.469699
v 0.000000 0.193472 1.397191
v 0.190364 0.268390 1.397186
v 0.190549 0.266834 1.469704
v 0.190250 0.533518 1.397189
v 0.253834 0.741869 0.042607
v -0.253834 0.741869 0.042607
v 0.253237 0.481492 0.042604
v -0.253237 0.481492 0.042604
v 0.253665 0.480288 -0.320261
v 0.253495 0.740926 -0.320249
v -0.253495 0.740926 -0.320249
v -0.253665 0.480288 -0.320261
v -0.348811 0.537508 -0.973851
v -0.349168 0.537650 -0.852421
v 0.348811 0.537508 -0.973851
v 0.349168 0.537650 -0.852421
v 0.301158 0.798777 -0.973821
v 0.300989 0.799221 -0.852382
v -0.301158 0.798777 -0.973821
v -0.300989 0.799221 -0.852382
v -0.184637 0.190832 -0.658908
v 0.184637 0.190832 -0.658908
v 0.185196 0.193234 1.034357
v 0.184900 0.566539 -0.804046
v 0.185035 0.569531 1.034368
v -0.185035 0.569531 1.034368
v -0.185196 0.193234 1.034357
v -0.184900 0.566539 -0.804046
v 0.000000 0.541265 1.073868
v 0.144818 0.468247 2.446180
v 0.145036 0.465209 1.073876
v 0.144864 0.313498 2.446118
v 0.145087 0.313016 1.073889
v 0.000000 0.236087 2.446086
v 0.000000 0.236880 1.073896
v -0.144864 0.313498 2.446118
v -0.145087 0.313016 1.073889
v -0.144818 0.468247 2.446180
v -0.145036 0.465209 1.073876
v 0.000000 0.542239 2.446110
v 0.000000 0.392874 2.395498
v 0.000000 0.387791 1.001279
vn 0.6739 -0.2686 -0.6883
vn 0.7368 -0.2455 -0.6299
vn 0.7359 0.2450 0.6312
vn 0.6733 0.2680 0.6890
vn -0.6734 0.2680 0.6890
vn -0.7368 -0.2455 -0.6299
vn -0.7359 0.2451 0.6312
vn -0.6739 -0.2686 -0.6883
vn -0.5495 0.8355 -0.0028
vn -0.1840 -0.9829 0.0023
vn -0.1876 -0.9822 0.0056
vn 0.9809 0.1945 0.0001
vn 0.9803 0.1977 0.0002
vn -0.5425 0.8400 -0.0011
vn 0.1876 -0.9822 0.0056
vn 0.5495 0.8355 -0.0028
vn 0.5425 0.8400 -0.0011
vn -0.9803 0.1977 0.0002
vn -0.9809 0.1945 0.0001
vn 0.1840 -0.9829 0.0023
vn 0.6467 0.3668 -0.6688
vn -0.6466 0.3668 -0.6688
vn 0.5096 0.7138 -0.4805
vn -0.5096 0.7138 -0.4805
vn -0.5101 0.7139 0.4797
vn -0.6456 0.3655 0.6705
vn 0.5101 0.7139 0.4797
vn 0.6456 0.3655 0.6705
vn 0.7135 0.0003 -0.7006
vn -0.7135 0.0003 -0.7006
vn 0.5780 0.5758 -0.5783
vn -0.5780 0.5757 -0.5783
vn 0.5784 0.5776 0.5761
vn -0.5784 0.5776 0.5761
vn -0.7008 -0.0006 0.7134
vn 0.7008 -0.0006 0.7134
vn 0.6469 0.3639 -0.6701
vn -0.6469 0.3639 -0.6702
vn 0.5096 0.7126 -0.4821
vn -0.5096 0.7126 -0.4821
vn -0.5097 0.7134 0.4809
vn -0.6476 0.3628 0.6701
vn 0.5097 0.7134 0.4809
vn 0.6476 0.3628 0.6701
vn -0.6641 -0.1371 0.7350
vn -0.5705 -0.7075 0.4171
vn 0.6641 -0.1371 0.7350
vn 0.5705 -0.7075 0.4171
vn 0.7381 0.1035 -0.6667
vn 0.5861 -0.4217 -0.6919
vn -0.7381 0.1035 -0.6667
vn -0.5861 -0.4217 -0.6919
vn -1.0000 0.0001 0.0010
vn -0.0000 -1.0000 0.0013
vn -0.0000 -0.8097 0.5868
vn 1.0000 0.0001 0.0010
vn 0.8211 -0.0147 0.5706
vn -0.0000 1.0000 0.0004
vn -0.0000 0.8135 0.5816
vn -0.8211 -0.0147 0.5706
vn -1.0000 -0.0002 -0.0016
vn -0.0000 -1.0000 -0.0009
vn -0.0000 -0.9941 0.1085
vn 1.0000 -0.0002 -0.0016
vn 0.9935 0.0080 0.1138
vn -0.0000 1.0000 -0.0025
vn -0.0000 0.9948 0.1023
vn -0.9935 0.0080 0.1138
vn -0.0000 0.0032 1.0000
vn -0.5736 0.7708 0.2772
vn -0.5875 0.2685 -0.7634
vn -0.5816 -0.2764 0.7651
vn -0.5680 -0.7760 -0.2742
vn 0.5875 0.2685 -0.7634
vn 0.5680 -0.7760 -0.2742
vn 0.5816 -0.2764 0.7651
vn 0.5735 0.7708 0.2773
vn 0.7246 0.2498 0.6423
vn -0.0000 0.8161 -0.5779
vn -0.0000 0.8329 0.5535
vn -0.7246 0.2498 0.6423
vn -0.7263 0.2603 -0.6362
vn -0.6602 -0.4541 0.5982
vn -0.6604 -0.4524 -0.5994
vn -0.0000 -0.7627 0.6467
vn -0.0000 -0.7861 -0.6181
vn 0.6604 -0.4524 -0.5994
vn 0.6602 -0.4541 0.5982
vn 0.7263 0.2603 -0.6362
vn 0.7208 0.2564 0.6440
vn -0.0000 0.8319 -0.5550
vn -0.0000 0.8173 0.5762
vn -0.7220 0.2533 0.6439
vn -0.7276 0.2546 -0.6370
vn -0.6625 -0.4557 0.5944
vn -0.6610 -0.4438 -0.6051
vn -0.0000 -0.7822 0.6231
vn -0.0000 -0.7656 -0.6433
vn 0.6610 -0.4438 -0.6051
vn 0.6625 -0.4557 0.5944
vn 0.7276 0.2546 -0.6370
vn 0.5782 0.5775 0.5763
vn -0.5782 0.5775 0.5763
vn 0.5769 -0.5768 0.5784
vn -0.5769 -0.5768 0.5784
vn 0.5777 -0.5782 -0.5761
vn 0.5775 0.5766 -0.5780
vn -0.5775 0.5766 -0.5780
vn -0.5778 -0.5782 -0.5761
vn -0.6312 -0.5273 -0.5689
vn 0.6308 -0.5276 -0.5690
vn -0.6333 -0.5259 0.5678
vn 0.6329 -0.5262 0.5679
vn 0.5184 0.6206 -0.5883
vn 0.5173 0.6229 0.5869
vn -0.5189 0.6204 -0.5881
vn -0.5177 0.6227 0.5867
vn -0.5988 -0.6609 -0.4524
vn 0.5988 -0.6609 -0.4524
vn 0.5776 -0.5768 0.5777
vn 0.5606 0.4677 -0.6834
vn 0.5771 0.5780 0.5770
vn -0.5772 0.5780 0.5769
vn -0.5776 -0.5768 0.5777
vn -0.5605 0.4677 -0.6834
vn -0.0003 0.8804 -0.4742
vn 0.6154 0.3808 0.6901
vn 0.7535 0.4526 -0.4768
vn 0.6194 -0.3733 0.6907
vn 0.7545 -0.4523 -0.4754
vn -0.0003 -0.7113 0.7029
vn -0.0002 -0.8820 -0.4713
vn -0.6194 -0.3736 0.6905
vn -0.7545 -0.4526 -0.4752
vn -0.6154 0.3813 0.6899
vn -0.7535 0.4529 -0.4765
vn -0.0004 0.7045 0.7097
vn -0.0000 -0.0070 1.0000
vn -0.0000 -0.0039 -1.0000
vt 0.895610 0.303000
vt 0.622870 0.303000
vt 0.895610 0.040060
vt 0.622870 0.040060
vt 0.622870 0.005350
vt 0.622870 0.322910
vt 0.895610 0.323000
vt 0.626340 0.327820
vt 0.626340 0.251430
vt 0.373870 0.251430
vt 0.626340 0.273020
vt 0.373870 0.273020
vt 0.373870 0.327820
vt 0.175340 0.318000
vt 0.175340 0.191620
vt 0.131630 0.312270
vt 0.131630 0.212670
vt 0.054660 0.212840
vt 0.131630 0.212840
vt 0.024420 0.121290
vt 0.160750 0.121290
vt 0.131630 0.212770
vt 0.175340 0.191570
vt 0.054660 0.312270
vt 0.097420 0.005710
vt 0.175880 0.005710
vt 0.097420 0.064910
vt 0.175880 0.064910
vt 0.097420 0.113230
vt 0.175880 0.113230
vt 0.014710 0.113230
vt 0.014710 0.064910
vt 0.580740 0.246530
vt 0.580740 0.125260
vt 0.533740 0.233250
vt 0.533740 0.137190
vt 0.404790 0.137190
vt 0.376920 0.040670
vt 0.554550 0.040670
vt 0.404790 0.233250
vt 0.827340 0.346940
vt 0.994830 0.346940
vt 0.827340 0.373390
vt 0.994830 0.373390
vt 0.841120 0.508610
vt 0.994830 0.508610
vt 0.841120 0.529540
vt 0.994830 0.529540
vt 0.994540 0.331740
vt 0.950160 0.331740
vt 0.994540 0.315650
vt 0.950160 0.315650
vt 0.605360 0.920610
vt 0.605360 0.893720
vt 0.059600 0.893720
vt 0.059600 0.920610
vt 0.605360 0.995000
vt 0.059600 0.995000
vt 0.643090 0.107910
vt 0.585950 0.053970
vt 0.585950 0.151790
vt 0.992000 0.920610
vt 0.992000 0.894400
vt 0.690300 0.894400
vt 0.690300 0.920610
vt 0.992000 0.995000
vt 0.690300 0.995000
vt 0.516050 0.920610
vt 0.895810 0.040060
vt 0.895810 0.303000
vt 0.925610 0.040060
vt 0.925610 0.303000
vt 0.895810 0.323000
vt 0.925610 0.323000
vt 0.925700 0.040060
vt 0.991840 0.040060
vt 0.925700 0.303000
vt 0.991840 0.303000
vt 0.895810 0.005350
vt 0.925610 0.005350
vt 0.053930 0.798210
vt 0.005000 0.919950
vt 0.053930 0.919950
vt 0.005000 0.798210
vt 0.053930 0.666730
vt 0.005000 0.666730
vt 0.053930 0.566830
vt 0.005000 0.566830
vt 0.090010 0.868270
vt 0.090010 0.643390
vt 0.333080 0.136000
vt 0.333080 0.323290
vt 0.369660 0.136000
vt 0.369660 0.323290
vt 0.333080 0.033230
vt 0.183960 0.033230
vt 0.183960 0.136000
vt 0.183960 0.323290
vt 0.376920 0.008070
vt 0.554770 0.040670
vt 0.554770 0.008070
vt 0.993230 0.874070
vt 0.893440 0.874070
vt 0.993230 0.817540
vt 0.893440 0.817540
vt 0.794550 0.874070
vt 0.794550 0.817540
vt 0.799020 0.805400
vt 0.799020 0.749350
vt 0.979020 0.749350
vt 0.779190 0.642130
vt 0.995290 0.642130
vt 0.786680 0.341630
vt 0.786680 0.386410
vt 0.057300 0.386410
vt 0.844540 0.545000
vt 0.057300 0.545000
vt 0.057300 0.631340
vt 0.006000 0.386410
vt 0.006000 0.545000
vt 0.844620 0.545000
vt 0.970900 0.545000
vt 0.844620 0.631340
vt 0.970900 0.631340
vt 0.771540 0.872970
vt 0.094100 0.792270
vt 0.771540 0.792270
vt 0.094100 0.705520
vt 0.771540 0.705520
vt 0.094100 0.639740
vt 0.771540 0.639740
vt 0.094100 0.872970
vt 0.585160 0.006810
vt 0.670920 0.051250
vt 0.585160 0.101240
vt 0.670920 0.147550
vt 0.585160 0.201580
vt 0.788900 0.748890
vt 0.895610 0.005350
vt 0.979020 0.805400
vt 0.057300 0.341630
vt 0.844540 0.631340
s 1
usemtl 32749389e145aafa-XA128.png.001
f 1/1/1 2/2/2 3/3/3
f 2/2/2 4/4/4 3/3/3
f 3/3/3 4/4/4 5/5/5
f 5/4/5 7/2/6 6/3/7
f 6/3/7 7/2/6 8/1/8
f 7/2/6 2/6/2 8/1/8
f 8/1/8 2/6/2 1/7/1
f 9/8/9 10/9/10 11/10/11
f 10/9/10 12/11/12 11/10/11
f 11/10/11 12/11/12 13/12/13
f 12/11/12 9/8/9 13/12/13
f 13/12/13 9/8/9 14/13/14
f 9/8/9 11/10/11 14/13/14
f 15/10/15 17/8/16 16/13/17
f 16/13/17 17/8/16 18/12/18
f 17/8/16 19/11/19 18/12/18
f 18/12/18 19/11/19 15/10/15
f 19/11/19 20/9/20 15/10/15
f 15/10/15 20/9/20 17/8/16
f 21/14/21 22/15/22 23/16/23
f 22/15/22 24/17/24 23/16/23
f 25/18/25 24/19/24 26/20/26
f 26/20/26 24/19/24 22/21/22
f 27/22/27 25/16/25 28/23/28
f 28/23/28 25/16/25 26/14/26
f 21/21/21 23/19/23 28/20/28
f 28/20/28 23/19/23 27/18/27
f 23/19/23 24/16/24 27/18/27
f 27/18/27 24/16/24 25/24/25
f 29/25/29 30/26/30 31/27/31
f 30/26/30 32/28/32 31/27/31
f 31/27/31 32/28/32 33/29/33
f 32/28/32 34/30/34 33/29/33
f 34/29/34 32/27/32 35/31/35
f 35/31/35 32/27/32 30/32/30
f 33/27/33 34/28/34 36/25/36
f 36/25/36 34/28/34 35/26/35
f 29/32/29 31/27/31 36/31/36
f 36/31/36 31/27/31 33/29/33
f 37/33/37 38/34/38 39/35/39
f 38/34/38 40/36/40 39/35/39
f 41/37/41 40/36/40 42/38/42
f 42/38/42 40/36/40 38/39/38
f 43/36/43 41/35/41 44/34/44
f 44/34/44 41/35/41 42/33/42
f 37/39/37 39/36/39 44/38/44
f 44/38/44 39/36/39 43/37/43
f 39/36/39 40/35/40 43/37/43
f 43/37/43 40/35/40 41/40/41
f 45/41/45 46/42/46 47/43/47
f 46/42/46 48/44/48 47/43/47
f 47/43/47 48/44/48 49/45/49
f 48/44/48 50/46/50 49/45/49
f 49/47/49 50/48/50 51/45/51
f 50/48/50 52/46/52 51/45/51
f 51/45/51 52/46/52 46/44/46
f 50/49/50 48/50/48 52/51/52
f 52/51/52 48/50/48 46/52/46
f 53/53/53 54/54/54 55/55/55
f 54/54/54 56/53/56 55/55/55
f 55/55/55 56/53/56 57/56/57
f 56/53/56 58/57/58 57/56/57
f 57/56/57 58/57/58 59/58/59
f 58/57/58 60/56/60 59/58/59
f 60/59/60 55/60/55 59/61/59
f 59/61/59 55/60/55 57/59/57
f 55/55/55 60/56/60 53/53/53
f 60/56/60 58/57/58 53/53/53
f 61/62/61 62/63/62 63/64/63
f 62/63/62 64/62/64 63/64/63
f 63/64/63 64/62/64 65/65/65
f 64/62/64 66/66/66 65/65/65
f 65/65/65 66/66/66 67/67/67
f 66/66/66 68/65/68 67/67/67
f 67/67/67 68/65/68 69/68/69
f 68/65/68 63/64/63 69/68/69
f 69/68/69 63/64/63 65/65/65
f 66/66/66 61/62/61 68/65/68
f 61/62/61 63/64/63 68/65/68
f 70/69/70 72/70/71 71/71/72
f 71/71/72 72/70/71 73/72/73
f 72/70/71 74/73/74 73/72/73
f 73/72/73 74/73/74 75/74/75
f 76/75/76 71/76/72 75/77/75
f 75/77/75 71/76/72 73/78/73
f 74/70/74 77/69/77 75/72/75
f 75/72/75 77/69/77 76/71/76
f 77/69/77 70/79/70 76/71/76
f 76/71/76 70/79/70 71/80/72
f 74/70/74 72/70/71 77/69/77
f 77/69/77 72/70/71 70/69/70
f 78/81/78 80/82/79 79/83/80
f 79/83/80 80/82/79 81/81/81
f 80/82/79 82/84/82 81/81/81
f 81/81/81 82/84/82 83/85/83
f 82/84/82 84/86/84 83/85/83
f 83/85/83 84/86/84 85/87/85
f 84/86/84 86/88/86 85/87/85
f 85/87/85 86/88/86 87/86/87
f 81/81/81 83/85/83 79/89/80
f 83/85/83 85/90/85 79/89/80
f 79/89/80 85/90/85 88/85/88
f 87/85/87 86/90/86 80/89/79
f 86/90/86 84/85/84 80/89/79
f 80/89/79 84/85/84 82/81/82
f 85/87/85 87/86/87 88/85/88
f 87/86/87 89/84/89 88/85/88
f 88/85/88 89/84/89 78/81/78
f 89/84/89 80/82/79 78/81/78
f 90/81/90 92/82/91 91/83/92
f 91/83/92 92/82/91 93/81/93
f 92/82/91 94/84/94 93/81/93
f 93/81/93 94/84/94 95/85/95
f 94/84/94 96/86/96 95/85/95
f 95/85/95 96/86/96 97/87/97
f 96/86/96 98/88/98 97/87/97
f 97/87/97 98/88/98 99/86/99
f 93/81/93 95/85/95 91/89/92
f 95/85/95 97/90/97 91/89/92
f 91/89/92 97/90/97 100/85/100
f 99/85/99 98/90/98 92/89/91
f 98/90/98 96/85/96 92/89/91
f 92/89/91 96/85/96 94/81/94
f 97/87/97 99/86/99 100/85/100
f 99/86/99 101/84/101 100/85/100
f 100/85/100 101/84/101 90/81/90
f 101/84/101 92/82/91 90/81/90
f 102/91/102 103/92/103 104/93/104
f 103/92/103 105/94/105 104/93/104
f 106/95/106 107/91/107 104/96/104
f 104/96/104 107/91/107 102/97/102
f 107/91/107 108/92/108 102/97/102
f 102/97/102 108/92/108 103/98/103
f 103/97/103 108/91/108 105/96/105
f 108/91/108 109/95/109 105/96/105
f 106/94/106 109/93/109 107/92/107
f 107/92/107 109/93/109 108/91/108
f 104/38/104 105/99/105 106/100/106
f 106/100/106 105/99/105 109/101/109
f 110/102/110 112/103/111 111/104/112
f 111/104/112 112/103/111 113/105/113
f 112/103/111 114/106/114 113/105/113
f 113/105/113 114/106/114 115/107/115
f 116/108/116 117/109/117 115/110/115
f 117/109/117 111/111/112 115/110/115
f 115/110/115 111/111/112 113/112/113
f 111/105/112 117/107/117 110/103/110
f 117/107/117 116/106/116 110/103/110
f 116/110/116 114/109/114 110/112/110
f 110/112/110 114/109/114 112/111/111
f 118/113/118 119/114/119 120/115/120
f 119/114/119 121/116/121 120/115/120
f 120/115/120 121/116/121 122/117/122
f 121/116/121 123/118/123 122/117/122
f 120/115/120 122/117/122 124/119/124
f 122/117/122 123/120/123 124/119/124
f 121/121/121 119/122/119 125/123/125
f 125/123/125 119/122/119 118/124/118
f 123/117/123 125/116/125 124/115/124
f 124/115/124 125/116/125 118/114/118
f 126/125/126 127/126/127 128/127/128
f 127/126/127 129/128/129 128/127/128
f 128/127/128 129/128/129 130/129/130
f 129/128/129 131/130/131 130/129/130
f 130/129/130 131/130/131 132/131/132
f 131/130/131 133/128/133 132/131/132
f 132/131/132 133/128/133 134/129/134
f 133/128/133 135/126/135 134/129/134
f 134/129/134 135/126/135 136/127/136
f 135/126/135 137/132/137 136/127/136
f 136/127/136 137/132/137 126/125/126
f 137/132/137 127/126/127 126/125/126
f 131/133/131 129/134/129 138/135/138
f 129/134/129 127/136/127 138/135/138
f 138/135/138 127/136/127 137/137/137
f 137/137/137 135/136/135 138/135/138
f 135/136/135 133/134/133 138/135/138
f 138/135/138 133/134/133 131/133/131
f 132/131/132 134/129/134 139/138/139
f 134/129/134 136/127/136 139/138/139
f 139/138/139 136/127/136 126/125/126
f 126/125/126 128/127/128 139/138/139
f 128/127/128 130/129/130 139/138/139
f 139/138/139 130/129/130 132/131/132
f 3/3/3 5/5/5 6/139/7
f 79/89/80 88/85/88 78/81/78
f 80/89/79 89/81/89 87/85/87
f 91/89/92 100/85/100 90/81/90
f 92/89/91 101/81/101 99/85/99
f 69/68/69 65/65/65 67/67/67
f 116/108/116 115/110/115 114/140/114
f 118/113/118 120/115/120 124/141/124
f 123/118/123 121/116/121 125/142/125
f 46/44/46 45/43/45 51/45/51
