# Blender 5.1.0
# www.blender.org
o Plane.003
v -0.734829 0.001072 0.000000
v -0.192596 0.538483 -0.000000
v -0.192596 -0.526691 0.000000
v -0.192596 0.320338 -0.000000
v 0.740284 0.320338 -0.000000
v 0.740284 -0.310009 0.000000
v -0.192596 -0.310009 0.000000
v -0.734829 0.001072 0.008058
v -0.192596 0.538483 0.008058
v -0.192596 -0.526691 0.008058
v -0.192596 0.320338 0.008058
v 0.740284 0.320338 0.008058
v 0.740284 -0.310009 0.008058
v -0.192596 -0.310009 0.008058
vn -0.0000 -0.0000 -1.0000
vn -0.0000 -0.0000 1.0000
vn 1.0000 -0.0000 -0.0000
vn -0.7039 0.7103 -0.0000
vn -0.0000 1.0000 -0.0000
vn -0.6975 -0.7166 -0.0000
vn -0.0000 -1.0000 -0.0000
vt 0.628662 0.673999
vt 0.937636 0.492075
vt 0.628662 0.798301
vt 0.628662 0.314816
vt 0.077405 0.314816
vt 0.077405 0.673999
vt 0.628662 0.191347
s 0
g off
f 4/1/1 1/2/1 2/3/1
f 7/4/1 1/2/1 4/1/1
f 6/5/1 7/4/1 4/1/1 5/6/1
f 3/7/1 1/2/1 7/4/1
f 11/1/2 9/3/2 8/2/2
f 14/4/2 11/1/2 8/2/2
f 13/5/2 12/6/2 11/1/2 14/4/2
f 10/7/2 14/4/2 8/2/2
f 4/1/3 2/3/3 9/3/3 11/1/3
f 2/3/4 1/2/4 8/2/4 9/3/4
f 5/6/5 4/1/5 11/1/5 12/6/5
f 6/5/3 5/6/3 12/6/3 13/5/3
f 1/2/6 3/7/6 10/7/6 8/2/6
f 3/7/3 7/4/3 14/4/3 10/7/3
f 7/4/7 6/5/7 13/5/7 14/4/7
