# Blender 5.1.0
# www.blender.org
o Egg
v 0.062379 -0.243175 0.055504
v -0.301329 -0.158442 -0.088391
v 0.169299 -0.036485 -0.190034
v -0.220489 -0.002169 -0.274036
v 0.006867 0.023637 0.255930
v -0.343299 0.043288 0.063146
v 0.113787 0.230327 0.010393
v -0.262460 0.199561 -0.122499
v 0.179801 -0.103522 -0.148567
v 0.163848 -0.178700 -0.079079
v 0.115698 -0.227441 -0.001357
v -0.015034 -0.257745 0.029272
v -0.124421 -0.246362 -0.012104
v -0.230500 -0.204517 -0.056382
v -0.309357 -0.134540 -0.144881
v -0.298238 -0.092773 -0.207964
v -0.262063 -0.043113 -0.253491
v -0.131331 -0.012810 -0.284121
v -0.009969 -0.025111 -0.274939
v 0.100944 -0.033545 -0.237066
v 0.161376 0.193283 -0.041440
v 0.196472 0.121785 -0.107706
v 0.194658 0.033317 -0.161604
v -0.251978 0.049779 -0.262341
v -0.275831 0.113601 -0.227625
v -0.276532 0.167800 -0.173685
v -0.182818 0.234662 -0.098223
v -0.069391 0.260497 -0.060393
v 0.040730 0.255871 -0.019660
v 0.050332 0.086738 0.234651
v 0.093393 0.159939 0.175303
v 0.114435 0.210658 0.087441
v -0.308398 0.179594 -0.086196
v -0.346626 0.139805 -0.033253
v -0.355693 0.088168 0.022415
v -0.281988 0.042954 0.129515
v -0.183843 0.039247 0.202442
v -0.075248 0.031671 0.246678
v 0.068756 -0.210066 0.127523
v 0.060769 -0.140546 0.203930
v 0.035475 -0.050101 0.247688
v -0.365778 -0.004724 0.031264
v -0.369033 -0.066569 -0.013592
v -0.341223 -0.122745 -0.057392
v 0.027030 -0.249486 -0.059473
v -0.090074 -0.236551 -0.102014
v -0.209139 -0.192695 -0.133280
v 0.068248 -0.203311 -0.141425
v -0.055987 -0.189605 -0.183986
v -0.185846 -0.148874 -0.206247
v 0.090698 -0.126408 -0.205684
v -0.027523 -0.115634 -0.245658
v -0.154084 -0.086266 -0.259712
v 0.111323 0.063559 -0.223783
v -0.007270 0.070910 -0.263430
v -0.137440 0.067040 -0.274317
v 0.107051 0.154087 -0.175475
v -0.018093 0.159423 -0.217238
v -0.154067 0.143823 -0.234132
v 0.078267 0.222439 -0.104434
v -0.039745 0.227001 -0.146177
v -0.166024 0.204426 -0.171114
v 0.013101 0.246560 0.074485
v -0.103738 0.250687 0.029517
v -0.218614 0.223892 -0.026724
v -0.015551 0.199468 0.161137
v -0.137824 0.203740 0.111490
v -0.254474 0.180988 0.041542
v -0.050567 0.123481 0.220696
v -0.166288 0.129769 0.173162
v -0.273669 0.117463 0.099707
v -0.071192 -0.066486 0.238794
v -0.186541 -0.056775 0.190934
v -0.290313 -0.035842 0.114313
v -0.054354 -0.157930 0.195187
v -0.175718 -0.145287 0.144742
v -0.286253 -0.111709 0.069427
v -0.038137 -0.225366 0.119445
v -0.154066 -0.212865 0.073680
v -0.261730 -0.173229 0.011109
v 0.227454 -0.032831 -0.085406
v 0.230933 0.060552 -0.016646
v 0.190100 0.146707 0.049462
v 0.212383 -0.110303 -0.000369
v 0.213693 -0.015585 0.079934
v 0.172323 0.082246 0.144272
v 0.155508 -0.171913 0.079817
v 0.153773 -0.088609 0.160549
v 0.118154 0.007625 0.214684
v -0.355370 0.130315 -0.147003
v -0.362194 0.074502 -0.199495
v -0.331084 0.013587 -0.234688
v -0.398609 0.087980 -0.099515
v -0.407504 0.029720 -0.152430
v -0.373719 -0.031652 -0.189381
v -0.402146 0.039890 -0.039583
v -0.410135 -0.018173 -0.089402
v -0.377861 -0.076838 -0.127268
vn 0.2908 -0.9285 0.2311
vn -0.5770 -0.8105 -0.1009
vn 0.6973 -0.1426 -0.7025
vn -0.1950 -0.0720 -0.9781
vn 0.0797 0.0860 0.9931
vn -0.7754 0.1428 0.6152
vn 0.4862 0.8718 0.0596
vn -0.3934 0.8812 -0.2621
vn 0.7502 -0.4122 -0.5170
vn 0.6929 -0.6713 -0.2633
vn 0.5223 -0.8527 0.0063
vn -0.0015 -0.9911 0.1331
vn -0.2526 -0.9668 0.0383
vn -0.4422 -0.8960 -0.0403
vn -0.5472 -0.7422 -0.3870
vn -0.4567 -0.5726 -0.6809
vn -0.3288 -0.3200 -0.8885
vn -0.0263 -0.0920 -0.9954
vn 0.1888 -0.1134 -0.9754
vn 0.4426 -0.1325 -0.8869
vn 0.6918 0.7079 -0.1424
vn 0.8143 0.4473 -0.3699
vn 0.8101 0.1393 -0.5695
vn -0.2711 0.2110 -0.9391
vn -0.3382 0.5192 -0.7849
vn -0.3845 0.7560 -0.5298
vn -0.2423 0.9459 -0.2158
vn -0.0403 0.9882 -0.1479
vn 0.2120 0.9758 -0.0543
vn 0.2747 0.3375 0.9004
vn 0.4306 0.5893 0.6836
vn 0.5026 0.7780 0.3771
vn -0.5667 0.8234 -0.0296
vn -0.7127 0.6579 0.2434
vn -0.7851 0.4013 0.4719
vn -0.6582 0.1419 0.7394
vn -0.4818 0.1348 0.8659
vn -0.2321 0.1172 0.9656
vn 0.3331 -0.7827 0.5258
vn 0.3092 -0.5292 0.7901
vn 0.2148 -0.2141 0.9529
vn -0.8427 -0.1298 0.5225
vn -0.8313 -0.4339 0.3474
vn -0.7293 -0.6747 0.1131
vn 0.1662 -0.9565 -0.2396
vn -0.1098 -0.9314 -0.3471
vn -0.3164 -0.8561 -0.4086
vn 0.3112 -0.7895 -0.5290
vn 0.0081 -0.7667 -0.6419
vn -0.2178 -0.6979 -0.6823
vn 0.3925 -0.5191 -0.7593
vn 0.1126 -0.5015 -0.8578
vn -0.1101 -0.4572 -0.8826
vn 0.4784 0.2727 -0.8347
vn 0.1993 0.2969 -0.9339
vn -0.0282 0.2972 -0.9544
vn 0.4612 0.5923 -0.6607
vn 0.1580 0.6139 -0.7734
vn -0.0782 0.5883 -0.8048
vn 0.3609 0.8374 -0.4105
vn 0.0838 0.8519 -0.5170
vn -0.1353 0.8121 -0.5676
vn 0.0893 0.9379 0.3352
vn -0.1901 0.9532 0.2350
vn -0.3941 0.9079 0.1429
vn -0.0127 0.7677 0.6407
vn -0.3156 0.7892 0.5269
vn -0.5194 0.7516 0.4065
vn -0.1370 0.5005 0.8549
vn -0.4124 0.5233 0.7457
vn -0.6004 0.5090 0.6168
vn -0.2229 -0.2913 0.9303
vn -0.4991 -0.2750 0.8217
vn -0.6823 -0.2453 0.6887
vn -0.1628 -0.6140 0.7723
vn -0.4655 -0.5914 0.6584
vn -0.6590 -0.5346 0.5291
vn -0.1054 -0.8560 0.5061
vn -0.3837 -0.8300 0.4048
vn -0.5752 -0.7603 0.3018
vn 0.9690 -0.1255 -0.2130
vn 0.9826 0.1838 0.0274
vn 0.8429 0.4805 0.2422
vn 0.9213 -0.3802 0.0811
vn 0.9344 -0.0682 0.3495
vn 0.7891 0.2555 0.5587
vn 0.7261 -0.5949 0.3447
vn 0.7278 -0.3086 0.6124
vn 0.6001 0.0111 0.7999
vn -0.6723 0.6607 -0.3339
vn -0.6657 0.3547 -0.6565
vn -0.5300 -0.0232 -0.8477
vn -0.8975 0.4405 -0.0200
vn -0.9344 0.0682 -0.3495
vn -0.7391 -0.3211 -0.5922
vn -0.9463 0.1309 0.2955
vn -0.9709 -0.2353 0.0444
vn -0.8040 -0.5531 -0.2183
vt 0.580340 0.730381
vt 0.582006 0.665872
vt 0.639715 0.664362
vt 0.634270 0.740718
vt 0.576585 0.594037
vt 0.628599 0.580572
vt 0.704159 0.662224
vt 0.698190 0.747794
vt 0.688315 0.570400
vt 0.531795 0.765365
vt 0.531795 0.724492
vt 0.567381 0.783752
vt 0.531795 0.666571
vt 0.531795 0.601600
vt 0.531795 0.550474
vt 0.560517 0.526643
vt 0.603713 0.501489
vt 0.657901 0.487263
vt 0.709360 0.485268
vt 0.751701 0.554341
vt 0.778292 0.656589
vt 0.775835 0.758266
vt 0.683848 0.822186
vt 0.749486 0.829775
vt 0.618300 0.803753
vt 0.349311 0.774564
vt 0.344140 0.681421
vt 0.414171 0.682205
vt 0.421438 0.768760
vt 0.356252 0.583193
vt 0.421029 0.588877
vt 0.478652 0.680871
vt 0.484027 0.755137
vt 0.479623 0.599687
vt 0.284929 0.852589
vt 0.267533 0.778692
vt 0.356778 0.864907
vt 0.267248 0.676205
vt 0.289993 0.572466
vt 0.323717 0.499078
vt 0.377629 0.488283
vt 0.440542 0.498475
vt 0.491800 0.522443
vt 0.526258 0.546993
vt 0.530404 0.604631
vt 0.535679 0.677955
vt 0.540501 0.744988
vt 0.502047 0.818584
vt 0.544005 0.793696
vt 0.439418 0.844477
vt 0.597847 0.746949
vt 0.592536 0.672679
vt 0.656544 0.664770
vt 0.661741 0.751474
vt 0.515892 0.660344
vt 0.558490 0.585229
vt 0.512896 0.549327
vt 0.464091 0.623002
vt 0.725742 0.653971
vt 0.733956 0.746895
vt 0.636399 0.573385
vt 0.699695 0.558487
vt 0.589094 0.812322
vt 0.573422 0.684440
vt 0.604730 0.612448
vt 0.623915 0.554597
vt 0.601651 0.519131
vt 0.565819 0.484846
vt 0.604147 0.486707
vt 0.664954 0.467614
vt 0.719855 0.470581
vt 0.763736 0.538387
vt 0.801095 0.637802
vt 0.815483 0.739275
vt 0.739497 0.837376
vt 0.808843 0.814901
vt 0.654783 0.828985
vt 0.365400 0.747795
vt 0.359431 0.662224
vt 0.423874 0.664362
vt 0.429320 0.740718
vt 0.375275 0.570400
vt 0.434991 0.580572
vt 0.481584 0.665872
vt 0.483250 0.730381
vt 0.487005 0.594037
vt 0.314103 0.829775
vt 0.287754 0.758267
vt 0.379742 0.822186
vt 0.285298 0.656589
vt 0.311889 0.554341
vt 0.354230 0.485268
vt 0.405689 0.487263
vt 0.459877 0.501489
vt 0.503073 0.526643
vt 0.496208 0.783752
vt 0.445290 0.803753
vt 0.673536 0.907274
vt 0.630330 1.000980
vt 0.531795 0.951081
vt 0.590306 0.869586
vt 0.475478 0.931060
vt 0.549575 0.871128
vt 0.631488 0.919838
vt 0.559582 1.010240
vt 0.473283 0.869586
vt 0.531795 0.828202
vt 0.433260 1.000980
vt 0.390054 0.907274
vt 0.769318 0.899044
vt 0.375243 0.958018
vt 0.734549 0.932171
vt 0.294272 0.899044
vt 0.638979 0.482968
vt 0.661958 0.474303
vt 0.632353 0.440320
vt 0.607481 0.447694
vt 0.596052 0.353007
vt 0.630364 0.414920
vt 0.571201 0.439251
vt 0.531795 0.387950
vt 0.467539 0.353007
vt 0.492390 0.439251
vt 0.433226 0.414920
vt 0.531795 0.476285
vt 0.653166 0.540633
vt 0.470644 0.422286
vt 0.520123 0.461711
vt 0.402516 0.410532
vt 0.712792 0.429716
vt 0.350798 0.429716
vt 0.563450 0.415610
vt 0.629194 0.394226
s 1
g off
f 45/1/45 46/2/46 49/3/49 48/4/48
f 46/2/46 47/5/47 50/6/50 49/3/49
f 48/4/48 49/3/49 52/7/52 51/8/51
f 49/3/49 50/6/50 53/9/53 52/7/52
f 1/10/1 12/11/12 45/1/45 11/12/11
f 12/11/12 13/13/13 46/2/46 45/1/45
f 13/13/13 14/14/14 47/5/47 46/2/46
f 14/14/14 2/15/2 15/16/15 47/5/47
f 47/5/47 15/16/15 16/17/16 50/6/50
f 50/6/50 16/17/16 17/18/17 53/9/53
f 53/9/53 17/18/17 4/19/4 18/20/18
f 52/7/52 53/9/53 18/20/18 19/21/19
f 51/8/51 52/7/52 19/21/19 20/22/20
f 9/23/9 51/8/51 20/22/20 3/24/3
f 10/25/10 48/4/48 51/8/51 9/23/9
f 11/12/11 45/1/45 48/4/48 10/25/10
f 54/26/54 55/27/55 58/28/58 57/29/57
f 55/27/55 56/30/56 59/31/59 58/28/58
f 57/29/57 58/28/58 61/32/61 60/33/60
f 58/28/58 59/31/59 62/34/62 61/32/61
f 3/35/3 20/36/20 54/26/54 23/37/23
f 20/36/20 19/38/19 55/27/55 54/26/54
f 19/38/19 18/39/18 56/30/56 55/27/55
f 18/39/18 4/40/4 24/41/24 56/30/56
f 56/30/56 24/41/24 25/42/25 59/31/59
f 59/31/59 25/42/25 26/43/26 62/34/62
f 62/34/62 26/43/26 8/44/8 27/45/27
f 61/32/61 62/34/62 27/45/27 28/46/28
f 60/33/60 61/32/61 28/46/28 29/47/29
f 21/48/21 60/33/60 29/47/29 7/49/7
f 22/50/22 57/29/57 60/33/60 21/48/21
f 23/37/23 54/26/54 57/29/57 22/50/22
f 63/51/63 64/52/64 67/53/67 66/54/66
f 64/55/64 65/56/65 68/57/68 67/58/67
f 66/54/66 67/53/67 70/59/70 69/60/69
f 67/53/67 68/61/68 71/62/71 70/59/70
f 7/49/7 29/47/29 63/51/63 32/63/32
f 29/47/29 28/46/28 64/52/64 63/51/63
f 28/64/28 27/65/27 65/56/65 64/55/64
f 27/65/27 8/66/8 33/67/33 65/56/65
f 65/56/65 33/67/33 34/68/34 68/57/68
f 68/61/68 34/69/34 35/70/35 71/62/71
f 71/62/71 35/70/35 6/71/6 36/72/36
f 70/59/70 71/62/71 36/72/36 37/73/37
f 69/60/69 70/59/70 37/73/37 38/74/38
f 30/75/30 69/60/69 38/74/38 5/76/5
f 31/77/31 66/54/66 69/60/69 30/75/30
f 32/63/32 63/51/63 66/54/66 31/77/31
f 72/78/72 73/79/73 76/80/76 75/81/75
f 73/79/73 74/82/74 77/83/77 76/80/76
f 75/81/75 76/80/76 79/84/79 78/85/78
f 76/80/76 77/83/77 80/86/80 79/84/79
f 5/87/5 38/88/38 72/78/72 41/89/41
f 38/88/38 37/90/37 73/79/73 72/78/72
f 37/90/37 36/91/36 74/82/74 73/79/73
f 36/91/36 6/92/6 42/93/42 74/82/74
f 74/82/74 42/93/42 43/94/43 77/83/77
f 77/83/77 43/94/43 44/95/44 80/86/80
f 80/86/80 44/95/44 2/15/2 14/14/14
f 79/84/79 80/86/80 14/14/14 13/13/13
f 78/85/78 79/84/79 13/13/13 12/11/12
f 39/96/39 78/85/78 12/11/12 1/10/1
f 40/97/40 75/81/75 78/85/78 39/96/39
f 41/89/41 72/78/72 75/81/75 40/97/40
f 81/98/81 82/99/82 85/100/85 84/101/84
f 82/102/82 83/103/83 86/104/86 85/105/85
f 84/101/84 85/100/85 88/106/88 87/107/87
f 85/100/85 86/108/86 89/109/89 88/106/88
f 3/24/3 23/110/23 81/98/81 9/23/9
f 23/37/23 22/50/22 82/102/82 81/111/81
f 22/50/22 21/48/21 83/103/83 82/102/82
f 21/48/21 7/49/7 32/63/32 83/103/83
f 83/103/83 32/63/32 31/77/31 86/104/86
f 86/104/86 31/77/31 30/75/30 89/112/89
f 89/109/89 30/113/30 5/87/5 41/89/41
f 88/106/88 89/109/89 41/89/41 40/97/40
f 87/107/87 88/106/88 40/97/40 39/96/39
f 11/12/11 87/107/87 39/96/39 1/10/1
f 10/25/10 84/101/84 87/107/87 11/12/11
f 9/23/9 81/98/81 84/101/84 10/25/10
f 90/114/90 91/115/91 94/116/94 93/117/93
f 91/118/91 92/119/92 95/120/95 94/121/94
f 93/122/93 94/121/94 97/123/97 96/124/96
f 94/121/94 95/120/95 98/125/98 97/123/97
f 8/66/8 26/126/26 90/114/90 33/67/33
f 26/43/26 25/42/25 91/127/91 90/128/90
f 25/42/25 24/41/24 92/129/92 91/127/91
f 24/130/24 4/19/4 17/18/17 92/119/92
f 92/119/92 17/18/17 16/17/16 95/120/95
f 95/120/95 16/17/16 15/16/15 98/125/98
f 98/125/98 15/16/15 2/15/2 44/95/44
f 97/123/97 98/125/98 44/95/44 43/94/43
f 96/124/96 97/123/97 43/94/43 42/93/42
f 35/131/35 96/124/96 42/93/42 6/92/6
f 34/69/34 93/132/93 96/133/96 35/70/35
f 33/67/33 90/114/90 93/117/93 34/68/34
